<svg xmlns="http://www.w3.org/2000/svg" width="22" height="22" viewBox="0 0 22 22"><defs><style>.a{fill:none;}.b{fill:#172e60;}</style></defs><g transform="translate(-68 -425)"><rect class="a" width="22" height="22" transform="translate(68 425)"/><g transform="translate(-2901.212 -1343.596)"><path class="b" d="M2973.723,1776.582c2.094-.688,2.771-1.374,3.359-3.412h1.462c1.289,0,2.578-.006,3.867.009.126,0,.341.105.363.2a4.1,4.1,0,0,0,3.356,3.2,35.431,35.431,0,0,1-.163,4.407,5.929,5.929,0,0,1-3.724,4.445,8.5,8.5,0,0,1-2.1.673,3.131,3.131,0,0,1-1.358-.2,7.3,7.3,0,0,1-4.2-2.979,4.844,4.844,0,0,1-.857-2.622C2973.71,1779.06,2973.723,1777.815,2973.723,1776.582Zm5.479,3.771c-.438-.453-.839-.885-1.26-1.3a.583.583,0,0,0-.877-.037.592.592,0,0,0,.026.906q.832.854,1.685,1.687a.591.591,0,0,0,.909.031c1.026-1.009,2.047-2.024,3.053-3.054a.625.625,0,0,0-.253-1.038.658.658,0,0,0-.732.235C2980.926,1778.624,2980.093,1779.458,2979.2,1780.352Z" transform="translate(0 0)"/></g></g></svg>