<svg xmlns="http://www.w3.org/2000/svg" width="22" height="22" viewBox="0 0 22 22"><defs><style>.a{fill:none;}.b{fill:#172e60;}</style></defs><g transform="translate(-68 -518)"><rect class="a" width="22" height="22" transform="translate(68 518)"/><g transform="translate(-3547.515 -1033.163)"><path class="b" d="M3621.028,1562.158q0-2.325,0-4.651a1.684,1.684,0,0,1,.3-.893,1.827,1.827,0,0,1,.66-.652,3.189,3.189,0,0,1,.56-.239,1.253,1.253,0,0,1,.38-.045q2.6,0,5.191,0a1.2,1.2,0,0,1,.483.136,1.514,1.514,0,0,1,.346.226c.11.09.2.2.3.3s.224.222.336.334.2.206.3.306c.122.12.249.236.37.358.14.141.274.287.415.427.163.162.333.318.494.482a1.844,1.844,0,0,1,.468.707,1.59,1.59,0,0,1,.071.523c0,2.469,0,4.937,0,7.405a1.5,1.5,0,0,1-.278.8,2.385,2.385,0,0,1-.316.4,1.879,1.879,0,0,1-.922.517,1.838,1.838,0,0,1-.392.043c-2.3,0-4.6,0-6.907.005a1.561,1.561,0,0,1-.586-.122,1.926,1.926,0,0,1-.707-.47,2.1,2.1,0,0,1-.512-.891,1.707,1.707,0,0,1-.057-.453q0-2.278,0-4.556Zm6.95-5.443h-.2c-.883,0-1.766,0-2.648,0-.737,0-1.474,0-2.21.025a.907.907,0,0,0-.832.9q-.007,4.523,0,9.047a.811.811,0,0,0,.059.293.95.95,0,0,0,.938.628q2.982.006,5.964,0c.25,0,.5-.008.748-.021a.948.948,0,0,0,.851-.95q-.005-2.537,0-5.074,0-1.049,0-2.1c0-.141,0-.141-.141-.141-.339,0-.678-.006-1.017,0a1.538,1.538,0,0,1-.479-.081,1.377,1.377,0,0,1-.7-.463,1.227,1.227,0,0,1-.312-.662c-.018-.2-.019-.406-.022-.61C3627.976,1557.247,3627.978,1556.987,3627.978,1556.715Z" transform="translate(0)"/><path class="b" d="M3642.619,1570.836c0,.282,0,.552,0,.822,0,.211,0,.423.023.633a1.272,1.272,0,0,0,.324.687,1.428,1.428,0,0,0,.724.48,1.6,1.6,0,0,0,.5.084c.351-.009.7,0,1.055,0,.146,0,.146,0,.146.146q0,1.088,0,2.176,0,2.632,0,5.264a.983.983,0,0,1-.882.986c-.258.014-.517.022-.776.022q-3.093,0-6.187,0a.985.985,0,0,1-.974-.652.833.833,0,0,1-.062-.3q0-4.693,0-9.386a.941.941,0,0,1,.863-.93c.764-.023,1.528-.023,2.292-.026.916,0,1.832,0,2.748,0Zm-1.664,5.451c-.934,0-1.868,0-2.8,0a.662.662,0,0,0-.279.066.633.633,0,0,0-.332.757.664.664,0,0,0,.637.469q2.769.01,5.537,0a.669.669,0,0,0,.524-.253.587.587,0,0,0,.089-.647.627.627,0,0,0-.6-.4Zm.005,2.682c-.945,0-1.89,0-2.834,0a.657.657,0,0,0-.594.779.691.691,0,0,0,.691.517q2.659.008,5.318,0a1.638,1.638,0,0,0,.374-.045.591.591,0,0,0,.416-.359.656.656,0,0,0-.6-.9C3642.806,1578.978,3641.884,1578.97,3640.96,1578.97Zm-1.184-4.067h0c.512,0,1.025,0,1.538,0a.688.688,0,0,0,.586-.28.585.585,0,0,0,.055-.669.61.61,0,0,0-.547-.348c-1.076,0-2.153.005-3.229,0a.66.66,0,0,0-.625.866.7.7,0,0,0,.63.434C3638.715,1574.906,3639.246,1574.9,3639.777,1574.9Z" transform="translate(-14.58 -14.325)"/></g></g></svg>