<svg xmlns="http://www.w3.org/2000/svg" width="17.561" height="16.778" viewBox="0 0 17.561 16.778"><defs><style>.a,.b{fill:#ff1744;}.b{stroke:#ff1744;stroke-miterlimit:10;stroke-width:2.94px;}.c{fill:#fff;}</style></defs><g transform="translate(-6818.1 -3460.536)"><g transform="translate(6818.1 3460.536)"><path class="a" d="M6824.157,3477.314a1.645,1.645,0,0,1-.571-.737c-.135-.279-.262-.563-.409-.837a2.3,2.3,0,0,0-1.887-1.228,10.43,10.43,0,0,1-1.081-.164c-.438-.1-.59-.291-.548-.735.041-.429.135-.853.208-1.278a2.186,2.186,0,0,0-.614-2.009c-.251-.255-.522-.491-.771-.748-.514-.532-.512-.813,0-1.338.227-.231.473-.445.7-.674a2.122,2.122,0,0,0,.72-1.389,4.8,4.8,0,0,0-.087-.859c-.051-.381-.131-.759-.16-1.141a.531.531,0,0,1,.5-.658c.356-.073.72-.107,1.082-.155a2.519,2.519,0,0,0,2.189-1.738,4.45,4.45,0,0,1,.352-.7.641.641,0,0,1,.928-.291c.543.256,1.088.512,1.615.8a1.051,1.051,0,0,0,1.091.008c.511-.275,1.036-.523,1.559-.777a.686.686,0,0,1,1.057.342c.188.35.368.706.524,1.071a1.9,1.9,0,0,0,1.761,1.242,8.042,8.042,0,0,1,1.235.2.576.576,0,0,1,.529.744q-.1.926-.258,1.845a1.007,1.007,0,0,0,.286.961c.413.408.817.827,1.221,1.244a.74.74,0,0,1,.014,1.212c-.277.294-.564.583-.869.847a1.877,1.877,0,0,0-.609,1.814c.056.387.141.77.205,1.157.116.708-.04.941-.743,1.072-.338.063-.682.093-1.023.141a2.185,2.185,0,0,0-1.709,1.189c-.171.322-.322.654-.486.979a1.3,1.3,0,0,1-.525.594h-.284c-.414-.207-.832-.407-1.242-.623a2.336,2.336,0,0,0-2.269-.036c-.437.222-.877.439-1.315.659Zm-3.125-4.473c0,.289.111.424.349.451.121.014.243.009.365.011a2.573,2.573,0,0,1,2.521,1.754c.056.144.109.291.168.433a.353.353,0,0,0,.569.192c.106-.06.2-.135.3-.2a2.6,2.6,0,0,1,3.173.015,3.689,3.689,0,0,0,.382.228.275.275,0,0,0,.421-.134,3.577,3.577,0,0,0,.145-.377,2.643,2.643,0,0,1,1.827-1.8,7.186,7.186,0,0,1,1.141-.146c.285-.028.4-.164.339-.445-.023-.106-.058-.208-.086-.312a2.649,2.649,0,0,1,.884-3c.119-.1.251-.184.365-.288a.364.364,0,0,0,0-.608c-.089-.083-.19-.152-.286-.226a2.559,2.559,0,0,1-1.092-2.41,10.313,10.313,0,0,1,.211-1.029c.055-.26-.04-.389-.3-.405-.128-.008-.258,0-.386-.009a2.65,2.65,0,0,1-2.555-1.782c-.049-.126-.089-.255-.143-.379-.137-.321-.346-.386-.647-.2-.086.052-.167.113-.252.17a2.554,2.554,0,0,1-3.164-.016c-.088-.062-.179-.123-.271-.177a.354.354,0,0,0-.574.182c-.048.1-.082.214-.122.321a2.6,2.6,0,0,1-2.081,1.829c-.266.044-.538.042-.807.062-.334.024-.458.186-.39.513.015.072.048.141.062.214a6.449,6.449,0,0,1,.163.955,2.582,2.582,0,0,1-1.145,2.21c-.551.422-.551.588,0,1a2.594,2.594,0,0,1,1.014,3.041C6821.088,3472.612,6821.054,3472.756,6821.032,3472.841Z" transform="translate(-6818.1 -3460.536)"/><path class="b" d="M6829.121,3480.521c.021-.085.056-.229.1-.372a2.593,2.593,0,0,0-1.014-3.041c-.548-.414-.548-.58,0-1a2.584,2.584,0,0,0,1.145-2.21,6.488,6.488,0,0,0-.163-.955c-.014-.072-.047-.141-.062-.213-.068-.327.056-.489.39-.513.269-.02.542-.018.807-.062a2.6,2.6,0,0,0,2.081-1.829c.04-.107.074-.218.122-.321a.354.354,0,0,1,.574-.182c.094.054.183.114.271.177a2.556,2.556,0,0,0,3.165.016c.084-.058.165-.118.251-.17.3-.183.51-.118.647.2.053.124.093.253.143.379a2.649,2.649,0,0,0,2.555,1.782c.128.005.258,0,.386.008.262.017.356.146.3.405a9.946,9.946,0,0,0-.21,1.03,2.554,2.554,0,0,0,1.091,2.41c.1.074.2.144.286.226a.364.364,0,0,1,0,.608c-.113.1-.246.19-.366.289a2.65,2.65,0,0,0-.883,3c.029.1.063.207.086.312.06.281-.054.418-.339.446a7.242,7.242,0,0,0-1.141.145,2.642,2.642,0,0,0-1.826,1.8,3.67,3.67,0,0,1-.146.377.274.274,0,0,1-.421.134,3.932,3.932,0,0,1-.382-.229,2.6,2.6,0,0,0-3.172-.015c-.1.068-.2.142-.3.2a.353.353,0,0,1-.569-.192c-.06-.143-.113-.289-.168-.433a2.574,2.574,0,0,0-2.521-1.754c-.122,0-.245,0-.365-.011C6829.231,3480.944,6829.115,3480.81,6829.121,3480.521Zm9.04-6.608a.461.461,0,0,0-.3-.436.569.569,0,0,0-.67.193q-2.554,2.561-5.107,5.124a1.4,1.4,0,0,0-.231.3.424.424,0,0,0,.12.546.405.405,0,0,0,.549.085,1.866,1.866,0,0,0,.329-.267q2.461-2.454,4.916-4.914a1.86,1.86,0,0,0,.259-.31A1.97,1.97,0,0,0,6838.161,3473.912Zm-2.684,4.656a1.53,1.53,0,0,0,1.485,1.537,1.579,1.579,0,0,0,1.529-1.487,1.545,1.545,0,0,0-1.5-1.524A1.487,1.487,0,0,0,6835.477,3478.568Zm-2.519-2.484a1.485,1.485,0,0,0,1.507-1.48,1.533,1.533,0,0,0-1.492-1.532,1.579,1.579,0,0,0-1.521,1.52A1.519,1.519,0,0,0,6832.958,3476.084Z" transform="translate(-6826.188 -3468.216)"/><path class="a" d="M6880.723,3521.177a.464.464,0,0,1-.512-.5.48.48,0,0,1,.459-.491.5.5,0,0,1,.53.51A.438.438,0,0,1,6880.723,3521.177Z" transform="translate(-6869.927 -3510.314)"/><path class="a" d="M6857.084,3496.558a.491.491,0,1,1-.981-.031.439.439,0,0,1,.481-.472A.457.457,0,0,1,6857.084,3496.558Z" transform="translate(-6849.811 -3490.175)"/></g><path class="c" d="M6858.33,3492.513a1.987,1.987,0,0,1-.139.328,1.82,1.82,0,0,1-.26.31q-2.455,2.459-4.915,4.914a1.817,1.817,0,0,1-.329.267.4.4,0,0,1-.548-.086.424.424,0,0,1-.121-.546,1.374,1.374,0,0,1,.232-.3q2.55-2.564,5.106-5.124a.569.569,0,0,1,.67-.193A.462.462,0,0,1,6858.33,3492.513Z" transform="translate(-28.257 -26.28)"/><path class="c" d="M6874.2,3515.631a1.487,1.487,0,0,1,1.511-1.475,1.547,1.547,0,0,1,1.5,1.524,1.581,1.581,0,0,1-1.53,1.487A1.529,1.529,0,0,1,6874.2,3515.631Zm1.5.511a.44.44,0,0,0,.479-.477.5.5,0,0,0-.53-.51.48.48,0,0,0-.46.492A.464.464,0,0,0,6875.708,3516.142Z" transform="translate(-46.814 -44.742)"/><path class="c" d="M6851.4,3492.881a1.519,1.519,0,0,1-1.506-1.492,1.578,1.578,0,0,1,1.521-1.52,1.532,1.532,0,0,1,1.492,1.532A1.485,1.485,0,0,1,6851.4,3492.881Zm.5-1.485a.458.458,0,0,0-.5-.5.44.44,0,0,0-.482.473.492.492,0,1,0,.982.03Z" transform="translate(-26.533 -24.477)"/></g></svg>