<svg xmlns="http://www.w3.org/2000/svg" width="22" height="22" viewBox="0 0 22 22"><defs><style>.a{fill:none;}.b{fill:#172e60;}</style></defs><g transform="translate(-68 -611)"><rect class="a" width="22" height="22" transform="translate(68 611)"/><g transform="translate(-3969.381 -916.981)"><path class="b" d="M4052.094,1546.249h-7.606a.518.518,0,0,0-.071-.029,1.753,1.753,0,0,1-1.347-1.229c-.026-.076-.047-.154-.07-.23v-4.96a.437.437,0,0,0,.028-.072,1.774,1.774,0,0,1,1.735-1.421v-.116c0-.836,0-1.671,0-2.507a3.522,3.522,0,0,1,2.559-3.41c.192-.054.389-.09.584-.134h.772a.512.512,0,0,0,.087.027,3.529,3.529,0,0,1,3.055,3.476v2.664a1.774,1.774,0,0,1,1.693,1.262c.023.077.047.154.07.232v4.96a.5.5,0,0,0-.029.072,1.755,1.755,0,0,1-1.229,1.347C4052.249,1546.2,4052.172,1546.225,4052.094,1546.249Zm-2.045-7.942c0-.03.006-.048.006-.066,0-.877.007-1.754-.007-2.631a1.757,1.757,0,0,0-3.513,0c-.015.881-.006,1.763-.007,2.645a.4.4,0,0,0,.009.056Zm-2.2,5.035h0c0,.229,0,.459,0,.688a.439.439,0,1,0,.878-.015c.007-.44,0-.881.006-1.321a.246.246,0,0,1,.081-.166.855.855,0,0,0,.115-1.284.871.871,0,0,0-1.283,0,.856.856,0,0,0,.116,1.284.249.249,0,0,1,.081.167C4047.856,1542.91,4047.851,1543.126,4047.851,1543.341Z" transform="translate(-0.001 0)"/></g></g></svg>