<svg xmlns="http://www.w3.org/2000/svg" width="64.728" height="56.351" viewBox="0 0 64.728 56.351"><defs><style>.a{fill:#fed100;}.b{fill:#ffdf5a;}.c{fill:#fcc200;}.d{fill:#e2a700;}.e{fill:#fff;}</style></defs><g transform="translate(-225 -268.481)"><g transform="translate(225 268.481)"><path class="a" d="M234.919,312.551a14.21,14.21,0,0,0,.888-2.493,22.347,22.347,0,1,1,6.679,2.689A14.176,14.176,0,0,1,230.456,318,14.082,14.082,0,0,0,234.919,312.551Z" transform="translate(-225 -268.481)"/><g transform="translate(2.519 2.611)"><path class="b" d="M252.622,317.574a19.784,19.784,0,0,1,35.468-12.061,19.786,19.786,0,1,0-32.839,21.922A19.693,19.693,0,0,1,252.622,317.574Z" transform="translate(-251.149 -295.59)"/></g><g transform="translate(3.592 3.371)"><path class="c" d="M303.5,321.807c0-.014,0-.028,0-.042a22.356,22.356,0,0,0-10.652-18.285,22.372,22.372,0,0,1-30.552,31.114,22.485,22.485,0,0,0,7.169,7.029l-.016.024.062.039a14.172,14.172,0,0,1-5.351,7.938,14.176,14.176,0,0,0,12.03-5.249l.034.007,0-.014a22.386,22.386,0,0,0,27.227-20.132A22.832,22.832,0,0,0,303.5,321.807Z" transform="translate(-262.294 -303.48)"/></g></g><g transform="translate(244.918 275.282)"><path class="c" d="M466.682,383.156a14.21,14.21,0,0,1-.888-2.493,22.345,22.345,0,1,0-6.679,2.689,14.176,14.176,0,0,0,12.03,5.249A14.082,14.082,0,0,1,466.682,383.156Z" transform="translate(-431.792 -339.086)"/><g transform="translate(3.591 3.375)"><path class="d" d="M500.376,414.824a14.2,14.2,0,0,1-.884-2.479,22.374,22.374,0,0,0,.137-38.215,22.372,22.372,0,0,1-30.552,31.114,22.4,22.4,0,0,0,23.737,9.783,14.176,14.176,0,0,0,12.025,5.243A14.082,14.082,0,0,1,500.376,414.824Z" transform="translate(-469.077 -374.13)"/></g><g transform="translate(2.519 2.615)"><path class="b" d="M459.415,388.224a19.784,19.784,0,0,1,35.468-12.061,19.786,19.786,0,1,0-32.839,21.922A19.693,19.693,0,0,1,459.415,388.224Z" transform="translate(-457.942 -366.24)"/></g></g><g transform="translate(256.973 296.098)"><circle class="e" cx="2.104" cy="2.104" r="2.104"/></g><g transform="translate(265.219 296.098)"><circle class="e" cx="2.104" cy="2.104" r="2.104"/></g><g transform="translate(273.263 296.098)"><circle class="e" cx="2.104" cy="2.104" r="2.104"/></g></g></svg>