<svg xmlns="http://www.w3.org/2000/svg" width="306.564" height="208.037" viewBox="0 0 306.564 208.037"><defs><style>.a{fill:#fbecdb;}.b{fill:#f47458;}.c{fill:#50bfa5;}.d{fill:#f7cc7f;}.e{fill:#efefef;}.f{fill:#f48c7f;}.g{fill:#a8d29f;}.h{fill:#96d9c9;}.i{fill:#f7a491;}.j{fill:#184655;}.k{fill:#ffb27d;}.l{fill:#e58638;}.m{fill:#ee9849;}.n{fill:#2a4e96;}.o{fill:#a9453d;}.p{fill:#13375b;}.q{fill:#f8a492;}.r{fill:#2b478b;}.s{fill:#2e3552;}</style></defs><g transform="translate(-1275.322 -1184.229)"><path class="a" d="M1289.057,1510.979s-33.278-79.518,32.309-79.518c34.654,0,20.378-21.817,43.938-47.066s105.955-45.422,123.492,3.335-25.8,85.775,16.076,79.425c50.326-7.631,70.207,43.824,70.207,43.824Z" transform="translate(-3.642 -119.522)"/><path class="b" d="M1670.95,1523.657l-.955-2.226-2.375-.474a.333.333,0,0,1-.154-.577l1.822-1.6-.283-2.406a.333.333,0,0,1,.5-.325l2.081,1.239,2.2-1.012a.333.333,0,0,1,.464.376l-.535,2.362,1.643,1.78a.333.333,0,0,1-.214.557l-2.412.221-1.185,2.112A.333.333,0,0,1,1670.95,1523.657Z" transform="translate(-269.701 -228.25)"/><path class="c" d="M1725.2,1186.805l.743-.948,2.316,1.814,1.959-3.442,1.047.6-2.65,4.655Z" transform="translate(-309.497 0)"/><g transform="translate(1343.053 1194.605)"><path class="d" d="M1504.171,1223.984a5.908,5.908,0,1,1-5.285-6.473A5.907,5.907,0,0,1,1504.171,1223.984Z" transform="translate(-1492.384 -1217.481)"/><path class="e" d="M1500.91,1238.387a3.159,3.159,0,1,0,6.286.635Z" transform="translate(-1498.239 -1231.863)"/></g><path class="f" d="M2035.838,1751.808l1.787-1.914-.992-.657a.471.471,0,0,1-.133-.653h0a.471.471,0,0,1,.653-.133l1.144.757,1.6-1.72-1.06-.7a.471.471,0,0,1-.133-.653h0a.471.471,0,0,1,.653-.133l1.212.8,1.852-1.966a.471.471,0,0,1,.6-.07l.185.123a.471.471,0,0,1,.085.714l-1.729,1.859,1.757,1.163,1.851-1.965a.471.471,0,0,1,.6-.07l.2.133a.472.472,0,0,1,.085.714l-1.728,1.858.992.657a.471.471,0,0,1,.133.653h0a.471.471,0,0,1-.653.133l-1.144-.757-1.583,1.731,1.06.7a.471.471,0,0,1,.133.653h0a.471.471,0,0,1-.653.133l-1.212-.8-1.9,2.03a.472.472,0,0,1-.6.071l-.216-.143a.472.472,0,0,1-.084-.715l1.787-1.914-1.757-1.163-1.9,2.03a.472.472,0,0,1-.6.072l-.216-.143A.471.471,0,0,1,2035.838,1751.808Zm5.231-.766,1.6-1.72-1.757-1.163-1.6,1.72Z" transform="translate(-523.119 -385.576)"/><path class="g" d="M1946.717,1246.11l-1.3,1.491-2.256-.813-2.128,2.059-1.917-.3-.568,1,2.563.4,2.017-1.951,2.347.846,1.957-2.243Z" transform="translate(-456.274 -42.572)"/><path class="h" d="M1348.732,1659.041c-1.859,2.6-.143,6.39,2.54,7.609a7.236,7.236,0,0,0,8.59-2.28c2.092-2.8,1.573-6.22-1.136-7.966a4.01,4.01,0,0,0-6.256,2.706c-.384,2.081.879,3.614,1.958,3.564a.921.921,0,0,0,.642-1.606.9.9,0,0,0-.974-.084,2.64,2.64,0,0,1,.637-3.292c1.466-1.393,3.657-.338,4.561,1.166,1.15,1.915.251,4.22-1.3,5.61a5.91,5.91,0,0,1-6.178,1.023,4.6,4.6,0,0,1-2.3-6.02A.449.449,0,0,0,1348.732,1659.041Z" transform="translate(-49.968 -324.346)"/><g transform="translate(1338.882 1378.829)"><path class="i" d="M1481.662,1807.871s-.329,6.1-.331,6.108c-.125.774-.621,2.688-.619,3.391.008,2.642,11.815-2.294,9.162-3.453-.24-.1-1.873-1.5-1.955-2.4-.125-1.385-.068-3.59-.068-3.59Z" transform="translate(-1480.183 -1807.871)"/><path class="j" d="M1488.678,1827a42.942,42.942,0,0,1-4.194,1.028c-1.421.208-3.3-1.485-4.3-1.021-1.105.511-1.164,6.337-1.164,6.337s14.555,1.044,18.276-.044C1498.964,1832.815,1494.358,1828.861,1488.678,1827Z" transform="translate(-1479.016 -1820.983)"/></g><g transform="translate(1361.675 1378.731)"><path class="i" d="M1554.707,1807.557s-.329,6.095-.331,6.108c-.125.774-.621,2.688-.619,3.391.008,2.642,11.815-2.293,9.162-3.453-.24-.1-1.873-1.5-1.955-2.4-.126-1.385-.068-3.59-.068-3.59Z" transform="translate(-1553.228 -1807.557)"/><path class="j" d="M1561.723,1826.688a42.911,42.911,0,0,1-4.194,1.029c-1.421.208-3.3-1.485-4.3-1.021-1.105.511-1.164,6.337-1.164,6.337s14.555,1.044,18.276-.044C1572.009,1832.5,1567.4,1828.546,1561.723,1826.688Z" transform="translate(-1552.061 -1820.668)"/></g><path class="k" d="M1533.833,1275.032c.39,2.974.861,2.784.9,3.167a61.3,61.3,0,0,1-2.673,5.925s-7.913,16.182-8.37,17.042l-14.126,11.936,3.7,8.755s15.035-13.4,15.7-14.237,8.891-23.947,9.679-25.958c0,0,1.8-2.059,2.891-3.389a14.94,14.94,0,0,0,1.8-3.5,15.724,15.724,0,0,0,1.264-3.551c.4-1.754-.762-.267-.762-.267s-1.319,3.122-1.541,2.977c-.171-.112.647-1.774,1.115-3.711.12-.5.237-.99.341-1.443.272-1.188-.361-1.687-.839-.487a12.537,12.537,0,0,0-.551,1.667,10.328,10.328,0,0,1-.606,1.533,13.46,13.46,0,0,1-.635,1.576c-.038-.046-.235.089-.124-.443.134-.64.713-1.94.839-2.9.072-.542.288-1.666.288-1.666a10.912,10.912,0,0,0-.082-1.791c-.542-.184-.886,1.017-.889,1.765a8.4,8.4,0,0,0-.436,1.668s-.922,2.322-1.243,2.2a28.269,28.269,0,0,1,.431-3.063c.156-1.412.089-2.86-.179-2.93-.455-.118-.792,1.434-.792,1.434s-.179,1.1-.266,1.459c-.1.423-.5,1.666-.5,1.666s-1.585,4.267-1.879,4.124-.9-.822-.892-1.119.305-.839.315-1.136a.727.727,0,0,0-.586-.724c-.357-.034-.94,1.4-.94,1.4A5.014,5.014,0,0,0,1533.833,1275.032Z" transform="translate(-161.15 -56.188)"/><path class="k" d="M1333.65,1297.208c.176,2.995-.322,2.9-.289,3.28a61.33,61.33,0,0,0,3.74,5.315s10.816,14.4,11.426,15.156l16.118,9.057-1.982,9.3s-17.286-10.321-18.1-11.018-13.236-21.84-14.388-23.667c0,0-2.156-1.682-3.476-2.782a14.911,14.911,0,0,1-2.429-3.1,15.72,15.72,0,0,1-1.909-3.249c-.728-1.646.7-.406.7-.406s1.883,2.817,2.073,2.633c.147-.142-.97-1.621-1.793-3.434-.212-.466-.419-.927-.606-1.352-.491-1.116.036-1.725.732-.637a12.492,12.492,0,0,1,.855,1.533,10.331,10.331,0,0,0,.884,1.391,13.558,13.558,0,0,0,.92,1.428c.028-.052.248.043.038-.458-.252-.6-1.065-1.771-1.369-2.686-.172-.518-.6-1.581-.6-1.581a10.921,10.921,0,0,1-.256-1.774c.5-.283,1.061.832,1.205,1.566a8.38,8.38,0,0,1,.743,1.555s1.342,2.106,1.634,1.924a28.335,28.335,0,0,0-1-2.927c-.419-1.357-.625-2.792-.375-2.912.424-.2,1.047,1.258,1.047,1.258s.382,1.045.535,1.383c.179.4.805,1.542.805,1.542s2.359,3.891,2.621,3.7a2.109,2.109,0,0,0,.665-1.268c-.065-.29-.458-.766-.523-1.057a.726.726,0,0,1,.439-.822c.344-.1,1.186,1.193,1.186,1.193A5.015,5.015,0,0,1,1333.65,1297.208Z" transform="translate(-32.218 -72.313)"/><path class="l" d="M1493.98,1556.178s18.038,42.3,18.712,46.116c.492,2.785-.041,34.49-.041,34.49l8.468-.172,2.865-36.228-11.281-45.628Z" transform="translate(-150.428 -254.908)"/><path class="m" d="M1468.78,1556.049l8.3,47.032-5.241,31.511,9.645-.042,7.474-33.895.932-37.11-3.943-11.926Z" transform="translate(-133.092 -252.751)"/><path class="n" d="M1455.049,1386.438s2.144,9.47,3.635,10.942c0,0-7.553,5.061-7.2,7.053s8.5,39.214,8.5,39.214-16.513,8.64-26.8,7.3c0,0-7.871-42.4-9.881-44.385s-8.24-5.114-8.24-5.114,4.625-8.9,4.62-10.473c0,0,11.055,5.058,12.926,6.9s5.477-.519,6.345-.889C1438.958,1396.991,1453.725,1387.25,1455.049,1386.438Z" transform="translate(-96.139 -139.112)"/><path class="k" d="M1472.851,1394.235l-1.377,8.714s3.693,6.068,6.631,5.148c2.466-.772,2.239-5.574,2.239-5.574s-1.36-4.964-.964-7.453S1472.851,1394.235,1472.851,1394.235Z" transform="translate(-134.945 -144.105)"/><path class="k" d="M1470.979,1349.51c-.2-.07-1.541,10.011,1.076,12.771s7.7,3.646,9.515,1.455c2.009-2.424,1.875-13.251-2.188-16.085S1470.979,1349.51,1470.979,1349.51Z" transform="translate(-134.247 -111.803)"/><path class="o" d="M1457.889,1333.968c-1.422.172-3.9,2.141-5.89,5.416-2.444,4.027.657,8.946,3.523,11.116s2.813,4.7,2.813,4.7l.468-1.312a7.211,7.211,0,0,0,.349-3.074,5.94,5.94,0,0,0-.468-1.845c-.692-1.455,1.47-2.433,2.073-3.649.465-.936.481-3.073,1.213-4.62l.876-1.182a6.114,6.114,0,0,0,4.01-1.136C1471.233,1334.532,1464.514,1329.493,1457.889,1333.968Z" transform="translate(-120.939 -101.806)"/><path class="o" d="M1475.865,1375.117c.024,1.229-.538,2.238-1.257,2.253s-1.321-.969-1.345-2.2.538-2.238,1.257-2.253S1475.841,1373.888,1475.865,1375.117Z" transform="translate(-136.176 -129.812)"/><path class="p" d="M1907.981,1323.085a9.776,9.776,0,0,0-12.559,2.45,10.149,10.149,0,0,0-7.92.865c-4.622,2.668-7.459,10.142-3.712,14.2.912,4.176,2.583,7.475,6.736,7.528,2.453,4.508,10.091,5.824,14.509,1.6,3.855,1.219,7.978-.987,10.655-4.05.632-.723,1.166-1.86,1.407-2.012,0,0,9.944-1.829,9.041-11.459C1925.194,1322.125,1914.72,1315.172,1907.981,1323.085Z" transform="translate(-417.412 -93.171)"/><path class="q" d="M1830.5,1716.893a56.37,56.37,0,0,0,1.171,8.745c.058.223.771,1.107.837,1.336-1.076,5.136-4.624,7.8-7.87,9.6.969-2.533,2.776-5.345,2.663-5.953a77.749,77.749,0,0,0-2.6-11C1827.216,1719.654,1828.291,1718.2,1830.5,1716.893Z" transform="translate(-377.909 -366.452)"/><path class="r" d="M1826.791,1516.169l15.454,12.513s-7.786,7.677-10.708,10.531-17.617,13.136-17.875,13.793a22.611,22.611,0,0,1,.961,3.654c.645,5.281,1.372,15.55,1.59,24.356-1.663,1.743-5.264,2.157-7.417,2.7-5.294-10.82-7.208-31.59-7.183-34.085C1801.653,1545.571,1826.791,1516.169,1826.791,1516.169Z" transform="translate(-362.068 -228.362)"/><path class="q" d="M2001.082,1587.8a73.805,73.805,0,0,0-7.4,9.615c-1.573-1.644-2.37-3.347-4.245-4.646,2.151-2.064,6.591-7.207,7.156-8.548,1.34-3.18,2.169-3.5,2.169-3.5s9.848,6.3,10.328,7.526S2003.519,1586.245,2001.082,1587.8Z" transform="translate(-491.282 -272.775)"/><path class="j" d="M2010.969,1581.242c-.828-.194.922-3.891,1.308-4.747.434-.963,1.062-1.133,1.209-1.136.4-.008,11.344,6.995,13.02,8.975a2.6,2.6,0,0,1,.308.6c.632,2.4-9.232.49-10.435-.778C2015.309,1583.024,2014.695,1582.114,2010.969,1581.242Z" transform="translate(-505.946 -269.082)"/><path class="r" d="M1871.526,1514.027l14.706-6.23c-.055.025.069.581.087.622,2.187,4.987,7.323,4.835,9.712,12.924,1.888,6.4.836,27.807.836,27.807s6.366-4.641,13.047-9.592c.609-.451,5.391,4.868,5.391,4.868-9.1,15.24-23.162,21.114-24.944,20.41-6.08-2.4-15.116-43.287-15.1-43.284C1874.089,1519.1,1871.526,1514.027,1871.526,1514.027Z" transform="translate(-410.165 -222.602)"/><path class="q" d="M1942.4,1384.042s16.731-3.347,20.454-3.864,16.712-4.68,17.211-4.859,2.529-6.957,3.239-6.441-1.212,3.408-.315,3.841,8.738-2.775,8.773-2.121c.066,1.224-4.723,2.155-4.589,2.722s4.9-1.45,5.455-.582-4.695,1.472-4.8,1.94,5.019.114,4.712,1.107c-.166.54-4.569.2-4.4.846s3.5,1.443,3.254,2.044-2.716-1.054-4.463-.684-3.209-.3-5.808,1.132-11.165,7.573-17.161,8.627-19.24,3.421-19.24,3.421Z" transform="translate(-458.926 -127.012)"/><path class="q" d="M1831.454,1304.392s-6.334-15.844-7.934-19.245-5.206-16.556-5.329-17.072,4.447-5.918,3.626-6.231-2.193,2.876-3.045,2.363-2.448-8.836-3.015-8.507c-1.061.614.775,5.133.226,5.331s-1.463-4.9-2.492-4.888,1.331,4.736,1,5.083-2.836-4.142-3.5-3.343c-.361.434,2.327,3.937,1.7,4.149s-3.123-2.148-3.49-1.609,2.366,1.7,3.011,3.365,2,2.526,2.224,5.483-.247,13.489,2.146,19.087,7.642,17.985,7.642,17.985Z" transform="translate(-367.261 -49.162)"/><path class="m" d="M1853.615,1416.217c-.2-2.942-.519-10.879-.383-11.852-.821-3.062-3.882-7.619-4.521-8.906,0,0,4.26-4.945,7.383-4.873,0,0,3.28,4.417,5.732,5.785a5.924,5.924,0,0,0,1.236.4c2.381.006,10.7-.177,12.251.322l-1.01,13.426c-.456.765-1.148,16.207-2.081,17.469s-14.381,6.92-16.585,5.405C1855.549,1433.332,1854.026,1422.165,1853.615,1416.217Z" transform="translate(-394.47 -141.965)"/><path class="m" d="M1920.362,1410.838a6.694,6.694,0,0,1,2.531-.391c3.774-.029,10.13-.125,10.13-.125s1.473,8.1.2,10.026c0,0-9.944,1.448-9.67,2.3Z" transform="translate(-443.763 -155.544)"/><rect class="s" width="306.564" height="1.241" rx="0.62" transform="translate(1275.322 1391.025)"/><path class="q" d="M1896.756,1389.254a37.344,37.344,0,0,0-.753,6.492c.155,1.84-.733,7.757-4.457,7.74s-.634-7.54-.266-9.338a72.016,72.016,0,0,0,.506-7.373Z" transform="translate(-422.689 -139.344)"/><path class="b" d="M1895.99,1389.572c.073-1.525.1-2.8.1-2.8l4.969,2.479s-.186.952-.375,2.164A4.273,4.273,0,0,1,1895.99,1389.572Z" transform="translate(-426.996 -139.344)"/><path class="q" d="M1898.945,1352.143a6.4,6.4,0,0,1,2.593,3.559c.68,2.425-.181,8.655-5.166,10.112s-7.09-3.5-6.029-7.356S1893.678,1349.737,1898.945,1352.143Z" transform="translate(-422.926 -115.077)"/><path class="q" d="M1888.962,1364.613c.087,1.039.627,1.836,1.206,1.783s.977-.939.89-1.977-.627-1.837-1.206-1.783S1888.874,1363.575,1888.962,1364.613Z" transform="translate(-422.152 -122.735)"/><path class="j" d="M1828.749,1745.064c.413-.775,3.234,2.251,3.91,2.879a1.763,1.763,0,0,1,.7,1.532c-.1.393-9.375,9.617-11.89,10.726a1.3,1.3,0,0,1-.833-.027c-1.235-.7,1.921-8.839,3.833-10.274A10.706,10.706,0,0,0,1828.749,1745.064Z" transform="translate(-374.964 -385.746)"/><path class="p" d="M1916.643,1352.529s.833,6.968,2.974,8.245,1.209,4.355,1.209,4.355,2.022-7.15.343-9.469A9.413,9.413,0,0,0,1916.643,1352.529Z" transform="translate(-441.204 -115.784)"/><path class="q" d="M1921.065,1379.816c-.593.9-.6,1.97-.018,2.388s1.535.027,2.128-.875.6-1.97.018-2.388S1921.658,1378.915,1921.065,1379.816Z" transform="translate(-443.937 -133.839)"/></g></svg>