<svg xmlns="http://www.w3.org/2000/svg" width="22" height="22" viewBox="0 0 22 22"><defs><style>.a{fill:none;}.b{fill:#172e60;}</style></defs><g transform="translate(-62 -241)"><rect class="a" width="22" height="22" transform="translate(62 241)"/><g transform="translate(-4024.972 -2392.659)"><path class="b" d="M4092.906,2647.2c-.43,0-.84.006-1.251,0a1.691,1.691,0,0,1-1.632-1.3,1.771,1.771,0,0,1-.048-.417q0-2.539,0-5.078a1.682,1.682,0,0,1,1.735-1.738q3.6-.007,7.2,0c.724,0,1.448-.007,2.172,0a1.677,1.677,0,0,1,1.652,1.35,2.048,2.048,0,0,1,.041.434q0,2.469,0,4.937a1.714,1.714,0,0,1-1.812,1.813q-2.422,0-4.844,0a.33.33,0,0,0-.259.106c-.66.666-1.325,1.326-1.986,1.991a.539.539,0,0,1-.631.173.556.556,0,0,1-.342-.577C4092.911,2648.333,4092.906,2647.777,4092.906,2647.2Z" transform="translate(0 0)"/><path class="b" d="M4270.238,2780.226a8.074,8.074,0,0,1,1.208.077,1.431,1.431,0,0,1,1.134,1.438q.012,2.093,0,4.186a1.451,1.451,0,0,1-1.173,1.457,5.334,5.334,0,0,1-.886.045c-.108,0-.216,0-.34,0v.919q0,.2,0,.406a.536.536,0,0,1-.92.395c-.28-.272-.554-.551-.83-.827s-.534-.541-.808-.8a.344.344,0,0,0-.215-.086c-1.307,0-2.613,0-3.92,0a1.512,1.512,0,0,1-1.52-1.107.205.205,0,0,1,.064-.231q.41-.4.806-.806a.31.31,0,0,1,.247-.1c1.578,0,3.155.011,4.732-.006A2.487,2.487,0,0,0,4270.2,2783c.063-.724.031-1.456.041-2.184C4270.239,2780.636,4270.238,2780.454,4270.238,2780.226Z" transform="translate(-166.609 -137.143)"/></g></g></svg>