<svg xmlns="http://www.w3.org/2000/svg" width="57.301" height="82.302" viewBox="0 0 57.301 82.302"><defs><style>.a{fill:#ffd4bb;}.b{fill:#e0b18f;opacity:0.5;}.c{fill:#e86859;}.d{fill:#e2a700;}.e{fill:#2d2d2d;}.f{fill:#cddcf5;}.g{fill:#e0ebff;}.h{fill:#091a3f;}.i{fill:#10397a;}.j{fill:#6e7175;opacity:0.3;}.k{fill:#f0f5ff;}</style></defs><g transform="translate(-1138.994 -194)"><path class="a" d="M1325.08,475.549l-6.915,21.61-6.914-21.61.048-1.588.069-2.371.068-2.2v-.007l.144-4.8v-.048l.144-4.66H1324.6l.144,4.66v.048l.124,3.835.028.969.075,2.33.062,2.241Z" transform="translate(-150.52 -232.328)"/><path class="b" d="M1326.565,467.012c-1.539,3.526-4.743,6.11-7.018,6.11-2.2,0-5.148-2.632-6.31-5.554l.089-2.983v-.048l.144-4.66h12.874l.144,4.66v.048Z" transform="translate(-152.257 -232.328)"/><path class="a" d="M1276.082,241.811a1.168,1.168,0,0,0-1.044-.053c.106-8.049-1.814-15.485-12.708-15.485s-12.814,7.436-12.707,15.485a1.168,1.168,0,0,0-1.044.053c-1.281.63-.668,2.623-.668,2.623s.279,6.767,1,7.658a2.176,2.176,0,0,0,1.346.744c.678,4.354,6.518,11.639,12.071,11.639,5.1,0,11.394-7.285,12.072-11.639a2.176,2.176,0,0,0,1.346-.744c.725-.891,1-7.658,1-7.658S1277.362,242.441,1276.082,241.811Z" transform="translate(-95.045 -28.201)"/><path class="c" d="M1332.642,462.179h8.947S1336.752,467.823,1332.642,462.179Z" transform="translate(-169.213 -234.339)"/><path class="d" d="M1282.675,219.115a9.6,9.6,0,0,0-5.419-4.769,8.918,8.918,0,0,0-1.941-1.245c-4.468-1.833-11.648-.2-14.979,3.007-3.979,3.832-3.188,10.976-2.881,12.934a40.959,40.959,0,0,0,1.019,5.452s-.073-2.793.086-4.815a7.159,7.159,0,0,1,.223-.912c3.668-3.758,15.174-5.08,17.743-7.568.007.049.018.1.025.149.368,2.582,5.225,3.61,6.038,8.331.159,2.021.086,4.815.086,4.815S1285.482,224.319,1282.675,219.115Z" transform="translate(-103.274 -16.021)"/><path class="e" d="M1196.295,610.789s-1.375-16.668-3.78-21.308c-.516-1.375-15.322-4.622-15.322-4.622l-9.544,31.23-9.551-31.23s-14.807,3.248-15.323,4.622c-2.406,4.64-3.78,21.308-3.78,21.308,5.267,3.4,18.451,7.052,28.65,7.052C1177.9,617.841,1191.028,614.187,1196.295,610.789Z" transform="translate(0 -341.539)"/><path class="e" d="M1370.887,445.559v-.427c5.239,0,9-1.206,11.173-3.583a7.106,7.106,0,0,0,1.906-4.978l.425-.039a7.4,7.4,0,0,1-2.009,5.3C1380.124,444.3,1376.256,445.559,1370.887,445.559Z" transform="translate(-202.632 -211.929)"/><path class="e" d="M1357.023,490.371a2.051,2.051,0,1,1-2.052-2.051A2.051,2.051,0,0,1,1357.023,490.371Z" transform="translate(-186.933 -257.182)"/><path class="e" d="M1274.92,215.978h-.64V208.9a14.259,14.259,0,1,0-28.518,0v7.078h-.641V208.9a14.9,14.9,0,1,1,29.8,0Z" transform="translate(-92.735)"/><path class="e" d="M1210.489,368.823h-4.19a2.506,2.506,0,0,1-2.506-2.506v-5.812A2.506,2.506,0,0,1,1206.3,358h4.19Z" transform="translate(-56.623 -143.306)"/><path class="e" d="M1468.794,358h4.19a2.506,2.506,0,0,1,2.506,2.506v5.812a2.506,2.506,0,0,1-2.506,2.506h-4.19Z" transform="translate(-288.184 -143.306)"/><path class="f" d="M1302.82,535.265l-.068,2.2-.069,2.371-1.292-3.849S1301.548,535.409,1302.82,535.265Z" transform="translate(-141.904 -298.203)"/><path class="f" d="M1420.815,535.987l-1.3,3.849-.062-2.241-.075-2.33C1420.65,535.409,1420.815,535.987,1420.815,535.987Z" transform="translate(-245.005 -298.203)"/><path class="g" d="M1314.028,597.574c.229-2.405-3.781-4.238-5.728-1.489A64.48,64.48,0,0,0,1305.894,608a23.445,23.445,0,0,1-.541,4.373.342.342,0,0,0-.178.016,22.8,22.8,0,0,1-.552-4.388,64.356,64.356,0,0,0-2.406-11.914c-1.947-2.75-5.957-.917-5.727,1.489.212,2.226,8.535,28.832,8.769,28.832S1313.817,599.79,1314.028,597.574Z" transform="translate(-137.614 -350.147)"/><path class="h" d="M1220.416,598.542l9.222,31.212a103.694,103.694,0,0,1-12.868-17.363l2.621-1.757-9.367-2.97A46.705,46.705,0,0,1,1220.416,598.542Z" transform="translate(-62.066 -353.495)"/><path class="h" d="M1375.849,598.542l-9.222,31.212a103.651,103.651,0,0,0,12.869-17.363l-2.621-1.757,9.367-2.97A46.676,46.676,0,0,0,1375.849,598.542Z" transform="translate(-198.909 -353.495)"/><path class="i" d="M1220.416,573.143l9.222,34.417a113.958,113.958,0,0,1-12.868-19.146l2.621-1.938-9.367-3.275A48.715,48.715,0,0,1,1220.416,573.143Z" transform="translate(-62.066 -331.301)"/><path class="i" d="M1375.849,573.143l-9.222,34.417a113.91,113.91,0,0,0,12.869-19.146l-2.621-1.938,9.367-3.275A48.684,48.684,0,0,0,1375.849,573.143Z" transform="translate(-198.909 -331.301)"/><path class="j" d="M1395.271,549.642a34.509,34.509,0,0,1-5.121,7.062c1.738-.983,6.1,2.433,7.485,5.366,0,0,.322-4.4.163-7.661C1397.1,552.658,1395.906,550.932,1395.271,549.642Z" transform="translate(-219.464 -310.766)"/><path class="j" d="M1283.562,549.642a34.537,34.537,0,0,0,5.121,7.062c-1.738-.983-6.1,2.433-7.484,5.366,0,0-.323-4.4-.163-7.661C1281.728,552.658,1282.927,550.932,1283.562,549.642Z" transform="translate(-124.08 -310.766)"/><path class="k" d="M1395.271,540.983a27.864,27.864,0,0,1-5.121,8.155c1.738-.983,6.1,1.34,7.485,4.274,0,0,.322-4.4.163-7.661C1397.1,544,1395.906,542.274,1395.271,540.983Z" transform="translate(-219.464 -303.199)"/><path class="k" d="M1283.562,540.983a27.878,27.878,0,0,0,5.121,8.155c-1.738-.983-6.1,1.34-7.484,4.274,0,0-.323-4.4-.163-7.661C1281.728,544,1282.927,542.274,1283.562,540.983Z" transform="translate(-124.08 -303.199)"/></g></svg>