<svg xmlns="http://www.w3.org/2000/svg" width="22" height="22" viewBox="0 0 22 22"><defs><style>.a{fill:none;}.b{fill:#172e60;}</style></defs><g transform="translate(-68 -657)"><rect class="a" width="22" height="22" transform="translate(68 657)"/><path class="b" d="M4202.018,1534.518a6.625,6.625,0,1,1-6.492-6.629A6.623,6.623,0,0,1,4202.018,1534.518Zm-6.681,3.307h0c.588,0,1.176,0,1.763,0a1.456,1.456,0,0,0,.955-.364.345.345,0,0,0,.136-.321,3.939,3.939,0,0,0-.086-.538,2.078,2.078,0,0,0-1.869-1.505c-.582-.027-1.165-.031-1.746,0a2.1,2.1,0,0,0-2,1.99.449.449,0,0,0,.184.417,1.5,1.5,0,0,0,.9.323C4194.155,1537.829,4194.746,1537.825,4195.337,1537.825Zm-1.708-4.91a1.712,1.712,0,1,0,1.7-1.714A1.711,1.711,0,0,0,4193.629,1532.915Z" transform="translate(-4116.393 -866.513)"/></g></svg>