<svg xmlns="http://www.w3.org/2000/svg" width="59.53" height="59.617" viewBox="0 0 59.53 59.617"><defs><style>.a{fill:#995f13;}.b{fill:#f1f2f2;}.c{fill:#ea6552;}.d{fill:#facb34;}.e{fill:#f8db1d;}.f{fill:#f8a81d;}</style></defs><g transform="translate(-253.551 -169.855)"><path class="a" d="M253.551,194.543l29.765-24.687,29.765,24.687v34.93h-59.53Z"/><path class="b" d="M2.507,0H38.681a2.506,2.506,0,0,1,2.506,2.506V38.025a2.505,2.505,0,0,1-2.505,2.505H2.506A2.506,2.506,0,0,1,0,38.024V2.507A2.507,2.507,0,0,1,2.507,0Z" transform="translate(262.723 174.936)"/><rect class="c" width="10.693" height="10.693" transform="translate(267.919 180.132)"/><path class="d" d="M253.551,283.679l24.683,17.465-24.683,17.465Z" transform="translate(0 -89.136)"/><path class="e" d="M253.551,283.679v.342l24.2,17.123-24.2,17.123v.342l24.683-17.465Z" transform="translate(0 -89.136)"/><path class="d" d="M438.9,283.679l-24.683,17.465L438.9,318.609Z" transform="translate(-125.818 -89.136)"/><path class="e" d="M438.9,283.679v.342l-24.2,17.123,24.2,17.123v.342l-24.683-17.465Z" transform="translate(-125.818 -89.136)"/><path class="f" d="M288.419,364.15H278.234v-.015l-24.683,17.479h59.53Z" transform="translate(0 -152.143)"/></g></svg>