<svg xmlns="http://www.w3.org/2000/svg" width="22" height="22" viewBox="0 0 22 22"><defs><style>.a,.b{fill:#172e60;}.a{fill-rule:evenodd;}.c{fill:none;}</style></defs><g transform="translate(-65 -379)"><g transform="translate(-0.256 108.76)"><path class="a" d="M72.163,300.885c.9.538,2.318,2.759,3.086,3.227,1.04.634,1.751.094,2.648-.608a8.752,8.752,0,0,1,2.994-1.63,1.41,1.41,0,0,1,1.654,1.256,5.33,5.33,0,0,1-.747,3.157c-.434.831-3.424,4.182-5.6,4.409-.963.1-1.559-.365-2.5-1.164a10.214,10.214,0,0,1-2.642-3.133,8.873,8.873,0,0,1-1.043-3.256C69.927,302.258,70.264,299.751,72.163,300.885Z" transform="translate(0 -23.404)"/><path class="a" d="M100.463,274.937a1.215,1.215,0,1,1-1.215,1.215A1.216,1.216,0,0,1,100.463,274.937Z" transform="translate(-26.679)"/><circle class="b" cx="1.215" cy="1.215" r="1.215" transform="translate(77.634 276.599) rotate(-26.608)"/><circle class="b" cx="1.016" cy="1.016" r="1.016" transform="translate(75.067 280.199) rotate(-80.033)"/></g><rect class="c" width="22" height="22" transform="translate(65 379)"/></g></svg>