<svg xmlns="http://www.w3.org/2000/svg" xmlns:xlink="http://www.w3.org/1999/xlink" width="27.305" height="27.305" viewBox="0 0 27.305 27.305"><defs><style>.a{fill:url(#a);}.b{fill:#fff;}</style><linearGradient id="a" x1="21.751" y1="-14.191" x2="22.597" y2="-13.344" gradientUnits="objectBoundingBox"><stop offset="0" stop-color="#1677f1"/><stop offset="0.175" stop-color="#176ee9"/><stop offset="0.46" stop-color="#1d55d3"/><stop offset="0.818" stop-color="#252eb0"/><stop offset="1" stop-color="#2b189c"/></linearGradient></defs><path class="a" d="M19.2,180.415V167.394a7.163,7.163,0,0,1,7.142-7.142H39.365a7.163,7.163,0,0,1,7.142,7.142v13.021a7.163,7.163,0,0,1-7.142,7.142H34.987L32.7,187l-1.975.558H26.344A7.163,7.163,0,0,1,19.2,180.415Z" transform="translate(-19.202 -160.252)"/><g transform="translate(8.107 5.969)"><path class="b" d="M33.642,175.011l.6-3.911H30.487v-2.54a1.956,1.956,0,0,1,2.207-2.112H34.4v-3.332a20.82,20.82,0,0,0-3.029-.265c-3.091,0-5.113,1.874-5.113,5.265V171.1H22.823v3.911h3.435v9.176h4.229v-9.176Z" transform="translate(-22.823 -162.851)"/></g></svg>