<svg xmlns="http://www.w3.org/2000/svg" xmlns:xlink="http://www.w3.org/1999/xlink" width="48" height="48" viewBox="0 0 48 48"><defs><style>.a{fill:#2979ff;}.b{fill:#fff;}.c{filter:url(#a);}</style><filter id="a" x="0" y="0" width="48" height="48" filterUnits="userSpaceOnUse"><feOffset dy="3" input="SourceAlpha"/><feGaussianBlur stdDeviation="3" result="b"/><feFlood flood-opacity="0.161"/><feComposite operator="in" in2="b"/><feComposite in="SourceGraphic"/></filter></defs><g transform="translate(-469 -370)"><g class="c" transform="matrix(1, 0, 0, 1, 469, 370)"><circle class="a" cx="15" cy="15" r="15" transform="translate(9 6)"/></g><path class="b" d="M6.158,3.241V10.7a2.593,2.593,0,1,1-5.186,0v-8.1a1.621,1.621,0,1,1,3.241,0V9.4a.648.648,0,0,1-1.3,0V3.241H1.945V9.4a1.621,1.621,0,1,0,3.241,0V2.593A2.593,2.593,0,1,0,0,2.593v8.1a3.565,3.565,0,1,0,7.13,0V3.241Z" transform="translate(495.256 383.201) rotate(43)"/></g></svg>