<svg xmlns="http://www.w3.org/2000/svg" width="22" height="22" viewBox="0 0 22 22"><defs><style>.a{fill:none;}.b{fill:#172e60;}</style></defs><g transform="translate(-68 -565)"><rect class="a" width="22" height="22" transform="translate(68 565)"/><g transform="translate(-2914.828 -991.841)"><path class="b" d="M2986.961,1631.507h13.618c.005.076.014.142.014.208q0,1.645,0,3.29a1.2,1.2,0,0,1-1.285,1.28q-5.534,0-11.068,0a1.2,1.2,0,0,1-1.279-1.285q0-1.621,0-3.242Z" transform="translate(-0.001 -63.775)"/><path class="b" d="M2986.969,1565.479c0-.388-.024-.765.006-1.137a1.177,1.177,0,0,1,1.07-1.033c.054,0,.108,0,.161,0q5.567,0,11.134,0a1.18,1.18,0,0,1,1.241,1.053c.03.365.005.734.005,1.121Z" transform="translate(0 0)"/></g></g></svg>