<svg xmlns="http://www.w3.org/2000/svg" xmlns:xlink="http://www.w3.org/1999/xlink" width="27.292" height="27.292" viewBox="0 0 27.292 27.292"><defs><style>.a{fill:url(#a);}.b{fill:#fff;}</style><linearGradient id="a" x1="15.469" y1="-13.549" x2="16.315" y2="-12.702" gradientUnits="objectBoundingBox"><stop offset="0" stop-color="#007bb8"/><stop offset="1" stop-color="#0044e9"/></linearGradient></defs><rect class="a" width="27.292" height="27.292" rx="3.211" transform="translate(27.292 0) rotate(90)"/><path class="b" d="M75.1,167.534h2.622v8.42H75.1Zm1.31-4.185a1.518,1.518,0,1,1-1.519,1.517,1.519,1.519,0,0,1,1.519-1.517" transform="translate(-66.72 -156.967)"/><path class="b" d="M76.922,165.361h2.511v1.151h.035a2.752,2.752,0,0,1,2.478-1.36c2.65,0,3.137,1.744,3.137,4.011v4.619H82.469v-4.094c0-.977-.02-2.234-1.36-2.234-1.363,0-1.57,1.065-1.57,2.163v4.165H76.922Z" transform="translate(-64.2 -154.768)"/></svg>