<svg xmlns="http://www.w3.org/2000/svg" xmlns:xlink="http://www.w3.org/1999/xlink" width="16.968" height="15.864" viewBox="0 0 16.968 15.864"><defs><style>.a{fill:#fff;}.b{clip-path:url(#a);}.c{clip-path:url(#b);}.d{clip-path:url(#c);}.e{clip-path:url(#d);}.f{clip-path:url(#e);}.g{clip-path:url(#f);}</style><clipPath id="a"><path class="a" d="M-60.417,24.608q0,.223.011.436c0,.072.008.144.013.216a7.739,7.739,0,0,0,.637,2.633c.015.032.029.065.043.1a8.031,8.031,0,0,0,4.367,4c-4.536-3.223-4.218-7.379-4.218-7.379a7.64,7.64,0,0,1,7.631-7.632A7.64,7.64,0,0,1-44.3,24.608s.319,4.155-4.218,7.379a8.031,8.031,0,0,0,4.367-4l.044-.1a7.753,7.753,0,0,0,.636-2.629c0-.072.01-.144.013-.216q.011-.213.011-.436a8.494,8.494,0,0,0-8.484-8.485,8.495,8.495,0,0,0-8.484,8.485" transform="translate(60.417 -16.123)"/></clipPath><clipPath id="b"><path class="a" d="M-48,38.759c1.166,1.325,2.155,2.262,2.159,2.266a32.655,32.655,0,0,0,4.767-5.742A22.089,22.089,0,0,1-48,38.759" transform="translate(47.997 -35.283)"/></clipPath><clipPath id="c"><path class="a" d="M-43.687,31.782c-1.567.7-5.379,1.13-10.9.332a13.5,13.5,0,0,0,1.29,2.216l.222.286s6.668-.293,9.867-2.979a3.2,3.2,0,0,0,.273-.242Z" transform="translate(54.585 -31.394)"/></clipPath><clipPath id="d"><path class="a" d="M-43.591,25.06c.575,1.324,2.044,3.208,5.691,2.592a2.755,2.755,0,0,0,0-1.842,2.554,2.554,0,0,0-2.56-1.559,8,8,0,0,0-3.132.809" transform="translate(43.591 -24.251)"/></clipPath><clipPath id="e"><path class="a" d="M-42.036,32.439c-1.491.994-4.19,2.13-8.874,2.725.215.287.437.566.658.837q.159.2.317.382l.177.205s6.224-1.462,8.751-4.936c-.591.481-1.028.787-1.028.787" transform="translate(50.91 -31.652)"/></clipPath><clipPath id="f"><path class="a" d="M-55.365,25.811a2.534,2.534,0,0,0-.073,1.554l.159.4s7.826,2.152,11.83-.116a2.136,2.136,0,0,1-.282.112c.154-.063.282-.112.282-.112l-.562.115a4.733,4.733,0,0,1-4.863-1.181,4.95,4.95,0,0,1-1.094-1.654,7.675,7.675,0,0,0-2.838-.673,2.554,2.554,0,0,0-2.56,1.559" transform="translate(55.523 -24.252)"/></clipPath></defs><g transform="translate(60.417 -16.123)"><g transform="translate(-60.417 16.123)"><path class="a" d="M-60.417,24.608q0,.223.011.436c0,.072.008.144.013.216a7.739,7.739,0,0,0,.637,2.633c.015.032.029.065.043.1a8.031,8.031,0,0,0,4.367,4c-4.536-3.223-4.218-7.379-4.218-7.379a7.64,7.64,0,0,1,7.631-7.632A7.64,7.64,0,0,1-44.3,24.608s.319,4.155-4.218,7.379a8.031,8.031,0,0,0,4.367-4l.044-.1a7.753,7.753,0,0,0,.636-2.629c0-.072.01-.144.013-.216q.011-.213.011-.436a8.494,8.494,0,0,0-8.484-8.485,8.495,8.495,0,0,0-8.484,8.485" transform="translate(60.417 -16.123)"/><g class="b"><rect class="a" width="20.944" height="21.572" transform="matrix(0.363, -0.932, 0.932, 0.363, -5.369, 13.771)"/></g></g><g transform="translate(-54.323 25.523)"><path class="a" d="M-48,38.759c1.166,1.325,2.155,2.262,2.159,2.266a32.655,32.655,0,0,0,4.767-5.742A22.089,22.089,0,0,1-48,38.759" transform="translate(47.997 -35.283)"/><g class="c"><rect class="a" width="8.928" height="8.979" transform="matrix(0.685, -0.728, 0.728, 0.685, -2.865, 3.046)"/></g></g><g transform="translate(-57.556 23.615)"><path class="a" d="M-43.687,31.782c-1.567.7-5.379,1.13-10.9.332a13.5,13.5,0,0,0,1.29,2.216l.222.286s6.668-.293,9.867-2.979a3.2,3.2,0,0,0,.273-.242Z" transform="translate(54.585 -31.394)"/><g class="d" transform="translate(0 0)"><rect class="a" width="10.331" height="10.694" transform="matrix(0.685, -0.728, 0.728, 0.685, -1.608, 1.709)"/></g></g><g transform="translate(-52.162 20.111)"><path class="a" d="M-43.591,25.06c.575,1.324,2.044,3.208,5.691,2.592a2.755,2.755,0,0,0,0-1.842,2.554,2.554,0,0,0-2.56-1.559,8,8,0,0,0-3.132.809" transform="translate(43.591 -24.251)"/><g class="e"><rect class="a" width="6.979" height="7.061" transform="matrix(0.685, -0.728, 0.728, 0.685, -2.005, 2.131)"/></g></g><g transform="translate(-55.753 23.742)"><path class="a" d="M-42.036,32.439c-1.491.994-4.19,2.13-8.874,2.725.215.287.437.566.658.837q.159.2.317.382l.177.205s6.224-1.462,8.751-4.936c-.591.481-1.028.787-1.028.787" transform="translate(50.91 -31.652)"/><g class="f" transform="translate(0)"><rect class="a" width="10.381" height="10.595" transform="matrix(0.685, -0.728, 0.728, 0.685, -2.464, 2.618)"/></g></g><g transform="translate(-58.016 20.111)"><path class="a" d="M-55.365,25.811a2.534,2.534,0,0,0-.073,1.554l.159.4s7.826,2.152,11.83-.116a2.136,2.136,0,0,1-.282.112c.154-.063.282-.112.282-.112l-.562.115a4.733,4.733,0,0,1-4.863-1.181,4.95,4.95,0,0,1-1.094-1.654,7.675,7.675,0,0,0-2.838-.673,2.554,2.554,0,0,0-2.56,1.559" transform="translate(55.523 -24.252)"/><g class="g" transform="translate(0 0)"><rect class="a" width="12.427" height="12.705" transform="matrix(0.685, -0.728, 0.728, 0.685, -2.868, 3.003)"/></g></g></g></svg>