<svg xmlns="http://www.w3.org/2000/svg" width="188.16" height="184.322" viewBox="0 0 188.16 184.322"><defs><style>.a{fill:#ff6c00;}</style></defs><g transform="translate(349.814 -12.057)"><circle class="a" cx="0.021" cy="0.021" r="0.021" transform="translate(-288.366 12.099)"/><path class="a" d="M-250.17,12.172a.043.043,0,0,0,.043-.042.043.043,0,0,0-.043-.043.043.043,0,0,0-.042.043A.042.042,0,0,0-250.17,12.172Z" transform="translate(-30.5 -0.009)"/><path class="a" d="M-239.106,12.172a.042.042,0,0,0,.042-.042.043.043,0,0,0-.042-.043.043.043,0,0,0-.043.043A.043.043,0,0,0-239.106,12.172Z" transform="translate(-33.888 -0.009)"/><circle class="a" cx="0.064" cy="0.064" r="0.064" transform="translate(-265.382 12.057)"/><circle class="a" cx="0.064" cy="0.064" r="0.064" transform="translate(-257.706 12.057)"/><circle class="a" cx="0.064" cy="0.064" r="0.064" transform="translate(-250.031 12.057)"/><path class="a" d="M-194.852,12.172a.042.042,0,0,0,.042-.042.043.043,0,0,0-.042-.043.043.043,0,0,0-.043.043A.043.043,0,0,0-194.852,12.172Z" transform="translate(-47.439 -0.009)"/><circle class="a" cx="0.021" cy="0.021" r="0.021" transform="translate(-234.637 12.099)"/><circle class="a" cx="0.021" cy="0.021" r="0.021" transform="translate(-299.88 19.775)"/><path class="a" d="M-266.774,23.248a.064.064,0,0,0,.064-.064.064.064,0,0,0-.064-.064.064.064,0,0,0-.064.064A.064.064,0,0,0-266.774,23.248Z" transform="translate(-25.409 -3.388)"/><circle class="a" cx="0.106" cy="0.106" r="0.106" transform="translate(-284.614 19.69)"/><path class="a" d="M-244.685,23.3a.149.149,0,0,0,.149-.149.149.149,0,0,0-.149-.149.149.149,0,0,0-.149.149A.149.149,0,0,0-244.685,23.3Z" transform="translate(-32.147 -3.35)"/><path class="a" d="M-233.64,23.319a.192.192,0,0,0,.192-.191.192.192,0,0,0-.192-.191.192.192,0,0,0-.191.191A.191.191,0,0,0-233.64,23.319Z" transform="translate(-35.516 -3.331)"/><path class="a" d="M-222.586,23.331a.213.213,0,0,0,.213-.213.213.213,0,0,0-.213-.213.213.213,0,0,0-.213.213A.213.213,0,0,0-222.586,23.331Z" transform="translate(-38.894 -3.322)"/><path class="a" d="M-211.532,23.343a.234.234,0,0,0,.234-.234.234.234,0,0,0-.234-.234.234.234,0,0,0-.234.234A.234.234,0,0,0-211.532,23.343Z" transform="translate(-42.273 -3.313)"/><path class="a" d="M-200.459,23.331a.213.213,0,0,0,.213-.213.213.213,0,0,0-.213-.213.213.213,0,0,0-.213.213A.213.213,0,0,0-200.459,23.331Z" transform="translate(-45.67 -3.322)"/><circle class="a" cx="0.192" cy="0.192" r="0.192" transform="translate(-238.645 19.605)"/><path class="a" d="M-178.3,23.3a.149.149,0,0,0,.149-.149A.15.15,0,0,0-178.3,23a.149.149,0,0,0-.149.149A.149.149,0,0,0-178.3,23.3Z" transform="translate(-52.474 -3.35)"/><circle class="a" cx="0.085" cy="0.085" r="0.085" transform="translate(-223.187 19.711)"/><path class="a" d="M-156.13,23.236a.043.043,0,0,0,.042-.043.042.042,0,0,0-.042-.042.042.042,0,0,0-.042.042A.043.043,0,0,0-156.13,23.236Z" transform="translate(-59.297 -3.397)"/><circle class="a" cx="0.021" cy="0.021" r="0.021" transform="translate(-207.772 19.775)"/><path class="a" d="M-294.424,34.3a.043.043,0,0,0,.043-.042.043.043,0,0,0-.043-.043.043.043,0,0,0-.042.043A.042.042,0,0,0-294.424,34.3Z" transform="translate(-16.949 -6.785)"/><path class="a" d="M-283.4,34.347a.128.128,0,0,0,.128-.128.128.128,0,0,0-.128-.128.127.127,0,0,0-.128.128A.128.128,0,0,0-283.4,34.347Z" transform="translate(-20.299 -6.748)"/><circle class="a" cx="0.192" cy="0.192" r="0.192" transform="translate(-296.212 27.28)"/><circle class="a" cx="0.277" cy="0.277" r="0.277" transform="translate(-288.622 27.195)"/><path class="a" d="M-250.311,34.478a.362.362,0,0,0,.362-.361.362.362,0,0,0-.362-.362.362.362,0,0,0-.361.362A.361.361,0,0,0-250.311,34.478Z" transform="translate(-30.359 -6.644)"/><circle class="a" cx="0.404" cy="0.404" r="0.404" transform="translate(-273.398 27.067)"/><path class="a" d="M-228.221,34.525a.447.447,0,0,0,.447-.447.447.447,0,0,0-.447-.447.447.447,0,0,0-.447.447A.447.447,0,0,0-228.221,34.525Z" transform="translate(-37.097 -6.606)"/><path class="a" d="M-217.157,34.525a.447.447,0,0,0,.447-.447.448.448,0,0,0-.447-.447.448.448,0,0,0-.447.447A.448.448,0,0,0-217.157,34.525Z" transform="translate(-40.485 -6.606)"/><circle class="a" cx="0.426" cy="0.426" r="0.426" transform="translate(-250.393 27.046)"/><circle class="a" cx="0.404" cy="0.404" r="0.404" transform="translate(-242.696 27.067)"/><path class="a" d="M-183.92,34.466a.341.341,0,0,0,.341-.341.341.341,0,0,0-.341-.341.341.341,0,0,0-.341.341A.341.341,0,0,0-183.92,34.466Z" transform="translate(-50.695 -6.654)"/><path class="a" d="M-172.819,34.418a.256.256,0,0,0,.255-.255.256.256,0,0,0-.255-.256.256.256,0,0,0-.256.256A.256.256,0,0,0-172.819,34.418Z" transform="translate(-54.121 -6.691)"/><path class="a" d="M-161.718,34.371a.17.17,0,0,0,.171-.17.171.171,0,0,0-.171-.171.17.17,0,0,0-.17.171A.17.17,0,0,0-161.718,34.371Z" transform="translate(-57.546 -6.729)"/><circle class="a" cx="0.085" cy="0.085" r="0.085" transform="translate(-211.674 27.387)"/><path class="a" d="M-139.535,34.3a.042.042,0,0,0,.042-.042.043.043,0,0,0-.042-.043.043.043,0,0,0-.042.043A.042.042,0,0,0-139.535,34.3Z" transform="translate(-64.378 -6.785)"/><circle class="a" cx="0.021" cy="0.021" r="0.021" transform="translate(-322.907 35.126)"/><path class="a" d="M-299.965,45.375a.064.064,0,0,0,.064-.064.064.064,0,0,0-.064-.064.064.064,0,0,0-.064.064A.064.064,0,0,0-299.965,45.375Z" transform="translate(-15.245 -10.163)"/><path class="a" d="M-288.948,45.435a.17.17,0,0,0,.17-.171.17.17,0,0,0-.17-.17.17.17,0,0,0-.171.17A.171.171,0,0,0-288.948,45.435Z" transform="translate(-18.586 -10.117)"/><circle class="a" cx="0.277" cy="0.277" r="0.277" transform="translate(-300.135 34.871)"/><circle class="a" cx="0.404" cy="0.404" r="0.404" transform="translate(-292.587 34.743)"/><circle class="a" cx="0.511" cy="0.511" r="0.511" transform="translate(-285.018 34.637)"/><path class="a" d="M-244.892,45.684a.618.618,0,0,0,.617-.617.618.618,0,0,0-.617-.617.618.618,0,0,0-.617.617A.618.618,0,0,0-244.892,45.684Z" transform="translate(-31.94 -9.919)"/><path class="a" d="M-233.856,45.72a.681.681,0,0,0,.681-.681.681.681,0,0,0-.681-.681.681.681,0,0,0-.681.681A.681.681,0,0,0-233.856,45.72Z" transform="translate(-35.3 -9.891)"/><path class="a" d="M-222.811,45.743a.724.724,0,0,0,.724-.724.724.724,0,0,0-.724-.724.724.724,0,0,0-.724.724A.724.724,0,0,0-222.811,45.743Z" transform="translate(-38.669 -9.872)"/><path class="a" d="M-211.748,45.743a.723.723,0,0,0,.724-.724.723.723,0,0,0-.724-.724.724.724,0,0,0-.724.724A.724.724,0,0,0-211.748,45.743Z" transform="translate(-42.057 -9.872)"/><path class="a" d="M-200.684,45.743a.724.724,0,0,0,.724-.724.724.724,0,0,0-.724-.724.724.724,0,0,0-.724.724A.724.724,0,0,0-200.684,45.743Z" transform="translate(-45.445 -9.872)"/><path class="a" d="M-189.593,45.708a.66.66,0,0,0,.66-.66.66.66,0,0,0-.66-.66.66.66,0,0,0-.66.66A.66.66,0,0,0-189.593,45.708Z" transform="translate(-48.86 -9.9)"/><path class="a" d="M-178.492,45.66a.574.574,0,0,0,.574-.574.575.575,0,0,0-.574-.574.574.574,0,0,0-.574.574A.574.574,0,0,0-178.492,45.66Z" transform="translate(-52.286 -9.938)"/><path class="a" d="M-167.382,45.6a.468.468,0,0,0,.468-.468.468.468,0,0,0-.468-.468.469.469,0,0,0-.468.468A.469.469,0,0,0-167.382,45.6Z" transform="translate(-55.721 -9.985)"/><path class="a" d="M-156.271,45.542a.362.362,0,0,0,.361-.362.361.361,0,0,0-.361-.361.362.362,0,0,0-.362.361A.362.362,0,0,0-156.271,45.542Z" transform="translate(-59.156 -10.032)"/><path class="a" d="M-145.151,45.47a.234.234,0,0,0,.234-.234.234.234,0,0,0-.234-.234.234.234,0,0,0-.234.234A.234.234,0,0,0-145.151,45.47Z" transform="translate(-62.6 -10.088)"/><circle class="a" cx="0.128" cy="0.128" r="0.128" transform="translate(-200.203 35.02)"/><path class="a" d="M-122.94,45.363a.043.043,0,0,0,.043-.042.043.043,0,0,0-.043-.042.042.042,0,0,0-.042.042A.042.042,0,0,0-122.94,45.363Z" transform="translate(-69.46 -10.173)"/><path class="a" d="M-316.56,56.439a.064.064,0,0,0,.064-.064.064.064,0,0,0-.064-.064.064.064,0,0,0-.064.064A.064.064,0,0,0-316.56,56.439Z" transform="translate(-10.163 -13.551)"/><circle class="a" cx="0.192" cy="0.192" r="0.192" transform="translate(-319.239 42.632)"/><circle class="a" cx="0.319" cy="0.319" r="0.319" transform="translate(-311.691 42.504)"/><path class="a" d="M-283.548,56.665a.469.469,0,0,0,.468-.468.468.468,0,0,0-.468-.468.468.468,0,0,0-.468.468A.469.469,0,0,0-283.548,56.665Z" transform="translate(-20.149 -13.373)"/><circle class="a" cx="0.617" cy="0.617" r="0.617" transform="translate(-296.638 42.206)"/><circle class="a" cx="0.788" cy="0.788" r="0.788" transform="translate(-289.133 42.036)"/><circle class="a" cx="0.894" cy="0.894" r="0.894" transform="translate(-281.563 41.929)"/><circle class="a" cx="1" cy="1" r="1" transform="translate(-273.994 41.823)"/><path class="a" d="M-228.494,57a1.064,1.064,0,0,0,1.064-1.064,1.064,1.064,0,0,0-1.064-1.064,1.064,1.064,0,0,0-1.064,1.064A1.064,1.064,0,0,0-228.494,57Z" transform="translate(-36.825 -13.11)"/><circle class="a" cx="1.085" cy="1.085" r="1.085" transform="translate(-258.728 41.738)"/><path class="a" d="M-206.367,57a1.064,1.064,0,0,0,1.064-1.064,1.064,1.064,0,0,0-1.064-1.064,1.064,1.064,0,0,0-1.064,1.064A1.064,1.064,0,0,0-206.367,57Z" transform="translate(-43.6 -13.11)"/><circle class="a" cx="0.979" cy="0.979" r="0.979" transform="translate(-243.27 41.844)"/><circle class="a" cx="0.873" cy="0.873" r="0.873" transform="translate(-235.488 41.951)"/><circle class="a" cx="0.724" cy="0.724" r="0.724" transform="translate(-227.664 42.099)"/><circle class="a" cx="0.575" cy="0.575" r="0.575" transform="translate(-219.839 42.248)"/><path class="a" d="M-150.767,56.64a.425.425,0,0,0,.425-.425.425.425,0,0,0-.425-.426.426.426,0,0,0-.426.426A.425.425,0,0,0-150.767,56.64Z" transform="translate(-60.821 -13.392)"/><path class="a" d="M-139.638,56.557a.277.277,0,0,0,.277-.276.277.277,0,0,0-.277-.277.277.277,0,0,0-.277.277A.277.277,0,0,0-139.638,56.557Z" transform="translate(-64.275 -13.457)"/><path class="a" d="M-128.518,56.486a.149.149,0,0,0,.148-.148.149.149,0,0,0-.148-.149.149.149,0,0,0-.149.149A.149.149,0,0,0-128.518,56.486Z" transform="translate(-67.719 -13.514)"/><path class="a" d="M-117.408,56.426a.042.042,0,0,0,.042-.042.043.043,0,0,0-.042-.043.043.043,0,0,0-.042.043A.042.042,0,0,0-117.408,56.426Z" transform="translate(-71.154 -13.561)"/><path class="a" d="M-322.083,67.49a.043.043,0,0,0,.043-.042.043.043,0,0,0-.043-.042.042.042,0,0,0-.042.042A.042.042,0,0,0-322.083,67.49Z" transform="translate(-8.479 -16.949)"/><circle class="a" cx="0.17" cy="0.17" r="0.17" transform="translate(-323.056 50.329)"/><circle class="a" cx="0.319" cy="0.319" r="0.319" transform="translate(-315.529 50.18)"/><circle class="a" cx="0.49" cy="0.49" r="0.49" transform="translate(-308.024 50.009)"/><circle class="a" cx="0.681" cy="0.681" r="0.681" transform="translate(-300.54 49.818)"/><circle class="a" cx="0.894" cy="0.894" r="0.894" transform="translate(-293.077 49.605)"/><circle class="a" cx="1.085" cy="1.085" r="1.085" transform="translate(-285.593 49.413)"/><path class="a" d="M-245.173,68.167a1.255,1.255,0,0,0,1.256-1.256,1.255,1.255,0,0,0-1.256-1.256,1.255,1.255,0,0,0-1.256,1.256A1.255,1.255,0,0,0-245.173,68.167Z" transform="translate(-31.658 -16.413)"/><path class="a" d="M-234.157,68.227a1.362,1.362,0,0,0,1.363-1.363,1.362,1.362,0,0,0-1.363-1.362,1.362,1.362,0,0,0-1.362,1.362A1.362,1.362,0,0,0-234.157,68.227Z" transform="translate(-34.999 -16.366)"/><path class="a" d="M-223.131,68.274a1.447,1.447,0,0,0,1.447-1.447,1.447,1.447,0,0,0-1.447-1.447,1.447,1.447,0,0,0-1.447,1.447A1.447,1.447,0,0,0-223.131,68.274Z" transform="translate(-38.35 -16.329)"/><path class="a" d="M-212.077,68.286a1.469,1.469,0,0,0,1.469-1.469,1.469,1.469,0,0,0-1.469-1.469,1.468,1.468,0,0,0-1.468,1.469A1.468,1.468,0,0,0-212.077,68.286Z" transform="translate(-41.728 -16.319)"/><path class="a" d="M-200.995,68.263a1.426,1.426,0,0,0,1.426-1.426,1.426,1.426,0,0,0-1.426-1.426,1.426,1.426,0,0,0-1.426,1.426A1.427,1.427,0,0,0-200.995,68.263Z" transform="translate(-45.134 -16.338)"/><path class="a" d="M-189.894,68.215a1.341,1.341,0,0,0,1.341-1.341,1.341,1.341,0,0,0-1.341-1.341,1.341,1.341,0,0,0-1.34,1.341A1.341,1.341,0,0,0-189.894,68.215Z" transform="translate(-48.56 -16.375)"/><circle class="a" cx="1.192" cy="1.192" r="1.192" transform="translate(-231.97 49.307)"/><path class="a" d="M-167.626,68.037a1.022,1.022,0,0,0,1.022-1.022,1.021,1.021,0,0,0-1.022-1.021,1.021,1.021,0,0,0-1.021,1.021A1.022,1.022,0,0,0-167.626,68.037Z" transform="translate(-55.477 -16.517)"/><path class="a" d="M-156.477,67.93a.83.83,0,0,0,.83-.83.829.829,0,0,0-.83-.83.829.829,0,0,0-.83.83A.83.83,0,0,0-156.477,67.93Z" transform="translate(-58.949 -16.601)"/><circle class="a" cx="0.617" cy="0.617" r="0.617" transform="translate(-208.368 49.882)"/><circle class="a" cx="0.426" cy="0.426" r="0.426" transform="translate(-200.501 50.073)"/><path class="a" d="M-123.034,67.609a.256.256,0,0,0,.256-.255.256.256,0,0,0-.256-.255.256.256,0,0,0-.255.255A.256.256,0,0,0-123.034,67.609Z" transform="translate(-69.366 -16.855)"/><circle class="a" cx="0.128" cy="0.128" r="0.128" transform="translate(-184.852 50.371)"/><circle class="a" cx="0.021" cy="0.021" r="0.021" transform="translate(-177.069 50.478)"/><path class="a" d="M-338.668,78.541a.021.021,0,0,0,.022-.021.022.022,0,0,0-.022-.022.021.021,0,0,0-.021.022A.02.02,0,0,0-338.668,78.541Z" transform="translate(-3.407 -20.346)"/><path class="a" d="M-327.651,78.6a.128.128,0,0,0,.128-.128.128.128,0,0,0-.128-.128.127.127,0,0,0-.128.128A.128.128,0,0,0-327.651,78.6Z" transform="translate(-6.748 -20.299)"/><path class="a" d="M-316.654,78.684a.277.277,0,0,0,.277-.276.277.277,0,0,0-.277-.277.277.277,0,0,0-.277.277A.277.277,0,0,0-316.654,78.684Z" transform="translate(-10.069 -20.233)"/><path class="a" d="M-305.675,78.792a.469.469,0,0,0,.468-.468.469.469,0,0,0-.468-.468.468.468,0,0,0-.468.468A.469.469,0,0,0-305.675,78.792Z" transform="translate(-13.373 -20.149)"/><circle class="a" cx="0.681" cy="0.681" r="0.681" transform="translate(-312.053 57.493)"/><path class="a" d="M-283.754,79.053a.937.937,0,0,0,.937-.936.937.937,0,0,0-.937-.937.936.936,0,0,0-.937.937A.936.936,0,0,0-283.754,79.053Z" transform="translate(-19.942 -19.942)"/><path class="a" d="M-272.795,79.184a1.171,1.171,0,0,0,1.171-1.17,1.171,1.171,0,0,0-1.171-1.171,1.171,1.171,0,0,0-1.17,1.171A1.17,1.17,0,0,0-272.795,79.184Z" transform="translate(-23.226 -19.838)"/><circle class="a" cx="1.405" cy="1.405" r="1.405" transform="translate(-289.75 56.77)"/><circle class="a" cx="1.618" cy="1.618" r="1.618" transform="translate(-282.287 56.557)"/><circle class="a" cx="1.809" cy="1.809" r="1.809" transform="translate(-274.803 56.365)"/><circle class="a" cx="1.894" cy="1.894" r="1.894" transform="translate(-267.212 56.28)"/><circle class="a" cx="1.916" cy="1.916" r="1.916" transform="translate(-259.558 56.259)"/><path class="a" d="M-206.724,79.576a1.873,1.873,0,0,0,1.873-1.873,1.873,1.873,0,0,0-1.873-1.873A1.873,1.873,0,0,0-208.6,77.7,1.873,1.873,0,0,0-206.724,79.576Z" transform="translate(-43.243 -19.529)"/><path class="a" d="M-195.6,79.5a1.745,1.745,0,0,0,1.745-1.745,1.745,1.745,0,0,0-1.745-1.746,1.745,1.745,0,0,0-1.746,1.746A1.745,1.745,0,0,0-195.6,79.5Z" transform="translate(-46.688 -19.585)"/><path class="a" d="M-184.456,79.4a1.554,1.554,0,0,0,1.554-1.553,1.554,1.554,0,0,0-1.554-1.554,1.554,1.554,0,0,0-1.553,1.554A1.553,1.553,0,0,0-184.456,79.4Z" transform="translate(-50.16 -19.669)"/><path class="a" d="M-173.3,79.278a1.34,1.34,0,0,0,1.34-1.34A1.341,1.341,0,0,0-173.3,76.6a1.341,1.341,0,0,0-1.341,1.341A1.341,1.341,0,0,0-173.3,79.278Z" transform="translate(-53.642 -19.763)"/><circle class="a" cx="1.085" cy="1.085" r="1.085" transform="translate(-220.35 57.089)"/><path class="a" d="M-150.955,79.005a.852.852,0,0,0,.851-.851.852.852,0,0,0-.851-.852.852.852,0,0,0-.852.852A.852.852,0,0,0-150.955,79.005Z" transform="translate(-60.633 -19.979)"/><circle class="a" cx="0.617" cy="0.617" r="0.617" transform="translate(-204.53 57.557)"/><circle class="a" cx="0.404" cy="0.404" r="0.404" transform="translate(-196.642 57.77)"/><path class="a" d="M-117.483,78.648a.212.212,0,0,0,.213-.212.213.213,0,0,0-.213-.213.213.213,0,0,0-.213.213A.213.213,0,0,0-117.483,78.648Z" transform="translate(-71.079 -20.261)"/><path class="a" d="M-106.363,78.577a.085.085,0,0,0,.085-.085.085.085,0,0,0-.085-.085.085.085,0,0,0-.085.085A.085.085,0,0,0-106.363,78.577Z" transform="translate(-74.523 -20.318)"/><path class="a" d="M-333.155,89.629a.064.064,0,0,0,.064-.064.064.064,0,0,0-.064-.064.064.064,0,0,0-.064.064A.064.064,0,0,0-333.155,89.629Z" transform="translate(-5.082 -23.715)"/><circle class="a" cx="0.192" cy="0.192" r="0.192" transform="translate(-330.753 65.659)"/><circle class="a" cx="0.404" cy="0.404" r="0.404" transform="translate(-323.29 65.446)"/><circle class="a" cx="0.617" cy="0.617" r="0.617" transform="translate(-315.827 65.233)"/><circle class="a" cx="0.894" cy="0.894" r="0.894" transform="translate(-308.428 64.956)"/><path class="a" d="M-278.327,90.247a1.171,1.171,0,0,0,1.171-1.17,1.171,1.171,0,0,0-1.171-1.17,1.171,1.171,0,0,0-1.17,1.17A1.171,1.171,0,0,0-278.327,90.247Z" transform="translate(-21.532 -23.226)"/><path class="a" d="M-267.394,90.413a1.469,1.469,0,0,0,1.469-1.469,1.469,1.469,0,0,0-1.469-1.469,1.469,1.469,0,0,0-1.469,1.469A1.469,1.469,0,0,0-267.394,90.413Z" transform="translate(-24.789 -23.095)"/><path class="a" d="M-256.462,90.58a1.766,1.766,0,0,0,1.766-1.766,1.766,1.766,0,0,0-1.766-1.766,1.767,1.767,0,0,0-1.767,1.766A1.767,1.767,0,0,0-256.462,90.58Z" transform="translate(-28.045 -22.963)"/><path class="a" d="M-245.521,90.734a2.043,2.043,0,0,0,2.043-2.043,2.044,2.044,0,0,0-2.043-2.043,2.043,2.043,0,0,0-2.043,2.043A2.043,2.043,0,0,0-245.521,90.734Z" transform="translate(-31.311 -22.841)"/><path class="a" d="M-234.542,90.841a2.235,2.235,0,0,0,2.235-2.235,2.235,2.235,0,0,0-2.235-2.235,2.235,2.235,0,0,0-2.235,2.235A2.235,2.235,0,0,0-234.542,90.841Z" transform="translate(-34.614 -22.757)"/><path class="a" d="M-223.554,90.937a2.4,2.4,0,0,0,2.405-2.405,2.406,2.406,0,0,0-2.405-2.405,2.406,2.406,0,0,0-2.405,2.405A2.4,2.4,0,0,0-223.554,90.937Z" transform="translate(-37.927 -22.681)"/><path class="a" d="M-212.5,90.948a2.426,2.426,0,0,0,2.427-2.426A2.427,2.427,0,0,0-212.5,86.1a2.426,2.426,0,0,0-2.426,2.426A2.426,2.426,0,0,0-212.5,90.948Z" transform="translate(-41.305 -22.672)"/><path class="a" d="M-201.4,90.9a2.341,2.341,0,0,0,2.342-2.342,2.341,2.341,0,0,0-2.342-2.342,2.341,2.341,0,0,0-2.342,2.342A2.341,2.341,0,0,0-201.4,90.9Z" transform="translate(-44.731 -22.71)"/><circle class="a" cx="2.192" cy="2.192" r="2.192" transform="translate(-240.646 63.658)"/><path class="a" d="M-179.093,90.675a1.937,1.937,0,0,0,1.937-1.937,1.937,1.937,0,0,0-1.937-1.937,1.937,1.937,0,0,0-1.937,1.937A1.937,1.937,0,0,0-179.093,90.675Z" transform="translate(-51.685 -22.888)"/><path class="a" d="M-167.908,90.52a1.66,1.66,0,0,0,1.66-1.66,1.66,1.66,0,0,0-1.66-1.66,1.661,1.661,0,0,0-1.66,1.66A1.66,1.66,0,0,0-167.908,90.52Z" transform="translate(-55.195 -23.01)"/><path class="a" d="M-156.712,90.354a1.363,1.363,0,0,0,1.362-1.363,1.362,1.362,0,0,0-1.362-1.362,1.362,1.362,0,0,0-1.363,1.362A1.363,1.363,0,0,0-156.712,90.354Z" transform="translate(-58.714 -23.142)"/><circle class="a" cx="1.085" cy="1.085" r="1.085" transform="translate(-208.836 64.765)"/><circle class="a" cx="0.788" cy="0.788" r="0.788" transform="translate(-200.863 65.063)"/><path class="a" d="M-123.156,89.89a.532.532,0,0,0,.532-.532.532.532,0,0,0-.532-.532.533.533,0,0,0-.532.532A.532.532,0,0,0-123.156,89.89Z" transform="translate(-69.244 -23.508)"/><circle class="a" cx="0.319" cy="0.319" r="0.319" transform="translate(-185.043 65.531)"/><path class="a" d="M-100.86,89.676a.149.149,0,0,0,.149-.149.149.149,0,0,0-.149-.149.149.149,0,0,0-.148.149A.149.149,0,0,0-100.86,89.676Z" transform="translate(-76.189 -23.677)"/><path class="a" d="M-89.749,89.617a.042.042,0,0,0,.042-.042.042.042,0,0,0-.042-.042.043.043,0,0,0-.043.042A.043.043,0,0,0-89.749,89.617Z" transform="translate(-79.623 -23.724)"/><path class="a" d="M-349.731,100.668a.02.02,0,0,0,.021-.021.021.021,0,0,0-.021-.022.022.022,0,0,0-.022.022A.021.021,0,0,0-349.731,100.668Z" transform="translate(-0.019 -27.122)"/><path class="a" d="M-338.706,100.716a.107.107,0,0,0,.107-.106.107.107,0,0,0-.107-.107.106.106,0,0,0-.106.107A.106.106,0,0,0-338.706,100.716Z" transform="translate(-3.369 -27.084)"/><path class="a" d="M-327.717,100.811a.277.277,0,0,0,.277-.276.277.277,0,0,0-.277-.277.276.276,0,0,0-.277.277A.276.276,0,0,0-327.717,100.811Z" transform="translate(-6.682 -27.009)"/><path class="a" d="M-316.757,100.942a.511.511,0,0,0,.511-.511.511.511,0,0,0-.511-.511.511.511,0,0,0-.511.511A.511.511,0,0,0-316.757,100.942Z" transform="translate(-9.966 -26.905)"/><circle class="a" cx="0.788" cy="0.788" r="0.788" transform="translate(-319.835 72.738)"/><circle class="a" cx="1.085" cy="1.085" r="1.085" transform="translate(-312.458 72.44)"/><circle class="a" cx="1.405" cy="1.405" r="1.405" transform="translate(-305.101 72.121)"/><path class="a" d="M-273.058,101.643a1.767,1.767,0,0,0,1.767-1.766,1.767,1.767,0,0,0-1.767-1.767,1.767,1.767,0,0,0-1.766,1.767A1.766,1.766,0,0,0-273.058,101.643Z" transform="translate(-22.963 -26.351)"/><circle class="a" cx="2.107" cy="2.107" r="2.107" transform="translate(-290.452 71.419)"/><path class="a" d="M-251.231,102.024a2.448,2.448,0,0,0,2.448-2.448,2.447,2.447,0,0,0-2.448-2.448,2.448,2.448,0,0,0-2.448,2.448A2.448,2.448,0,0,0-251.231,102.024Z" transform="translate(-29.438 -26.051)"/><path class="a" d="M-240.3,102.19a2.746,2.746,0,0,0,2.745-2.745A2.746,2.746,0,0,0-240.3,96.7a2.746,2.746,0,0,0-2.746,2.746A2.746,2.746,0,0,0-240.3,102.19Z" transform="translate(-32.695 -25.919)"/><circle class="a" cx="2.916" cy="2.916" r="2.916" transform="translate(-268.234 70.61)"/><path class="a" d="M-218.266,102.309a2.958,2.958,0,0,0,2.958-2.958,2.958,2.958,0,0,0-2.958-2.959,2.959,2.959,0,0,0-2.959,2.959A2.959,2.959,0,0,0-218.266,102.309Z" transform="translate(-39.376 -25.825)"/><path class="a" d="M-207.156,102.25A2.852,2.852,0,0,0-204.3,99.4a2.852,2.852,0,0,0-2.852-2.852,2.852,2.852,0,0,0-2.852,2.852A2.853,2.853,0,0,0-207.156,102.25Z" transform="translate(-42.811 -25.872)"/><path class="a" d="M-196.007,102.143a2.659,2.659,0,0,0,2.66-2.66,2.66,2.66,0,0,0-2.66-2.661,2.661,2.661,0,0,0-2.661,2.661A2.66,2.66,0,0,0-196.007,102.143Z" transform="translate(-46.284 -25.957)"/><path class="a" d="M-184.8,101.964a2.341,2.341,0,0,0,2.342-2.341,2.341,2.341,0,0,0-2.342-2.342,2.341,2.341,0,0,0-2.342,2.342A2.341,2.341,0,0,0-184.8,101.964Z" transform="translate(-49.812 -26.098)"/><path class="a" d="M-173.6,101.786a2.022,2.022,0,0,0,2.022-2.022,2.022,2.022,0,0,0-2.022-2.022,2.022,2.022,0,0,0-2.022,2.022A2.022,2.022,0,0,0-173.6,101.786Z" transform="translate(-53.341 -26.238)"/><path class="a" d="M-162.366,101.572a1.639,1.639,0,0,0,1.639-1.639,1.639,1.639,0,0,0-1.639-1.639A1.639,1.639,0,0,0-164,99.933,1.639,1.639,0,0,0-162.366,101.572Z" transform="translate(-56.898 -26.407)"/><path class="a" d="M-151.161,101.394a1.32,1.32,0,0,0,1.32-1.32,1.32,1.32,0,0,0-1.32-1.32,1.319,1.319,0,0,0-1.32,1.32A1.32,1.32,0,0,0-151.161,101.394Z" transform="translate(-60.427 -26.549)"/><path class="a" d="M-139.948,101.2a.979.979,0,0,0,.979-.979.979.979,0,0,0-.979-.98.979.979,0,0,0-.979.98A.979.979,0,0,0-139.948,101.2Z" transform="translate(-63.965 -26.699)"/><path class="a" d="M-128.753,101.037a.68.68,0,0,0,.681-.681.681.681,0,0,0-.681-.681.681.681,0,0,0-.681.681A.681.681,0,0,0-128.753,101.037Z" transform="translate(-67.484 -26.83)"/><path class="a" d="M-117.577,100.894a.426.426,0,0,0,.426-.425.426.426,0,0,0-.426-.426.425.425,0,0,0-.425.426A.425.425,0,0,0-117.577,100.894Z" transform="translate(-70.985 -26.943)"/><path class="a" d="M-106.419,100.775a.212.212,0,0,0,.212-.212.212.212,0,0,0-.212-.213.213.213,0,0,0-.213.213A.212.212,0,0,0-106.419,100.775Z" transform="translate(-74.467 -27.037)"/><path class="a" d="M-95.29,100.693a.064.064,0,0,0,.064-.064.064.064,0,0,0-.064-.064.064.064,0,0,0-.064.064A.064.064,0,0,0-95.29,100.693Z" transform="translate(-77.92 -27.103)"/><path class="a" d="M-344.21,111.744a.043.043,0,0,0,.043-.042.043.043,0,0,0-.043-.042.042.042,0,0,0-.042.042A.042.042,0,0,0-344.21,111.744Z" transform="translate(-1.703 -30.5)"/><path class="a" d="M-333.193,111.8a.149.149,0,0,0,.149-.149.149.149,0,0,0-.149-.149.149.149,0,0,0-.149.149A.149.149,0,0,0-333.193,111.8Z" transform="translate(-5.044 -30.453)"/><path class="a" d="M-322.224,111.923a.362.362,0,0,0,.362-.362.362.362,0,0,0-.362-.361.361.361,0,0,0-.361.361A.362.362,0,0,0-322.224,111.923Z" transform="translate(-8.338 -30.359)"/><path class="a" d="M-311.272,112.065a.618.618,0,0,0,.617-.617.618.618,0,0,0-.617-.617.618.618,0,0,0-.617.617A.618.618,0,0,0-311.272,112.065Z" transform="translate(-11.613 -30.246)"/><circle class="a" cx="0.894" cy="0.894" r="0.894" transform="translate(-316.104 80.307)"/><path class="a" d="M-289.427,112.421a1.255,1.255,0,0,0,1.256-1.256,1.255,1.255,0,0,0-1.256-1.256,1.255,1.255,0,0,0-1.256,1.256A1.255,1.255,0,0,0-289.427,112.421Z" transform="translate(-18.107 -29.964)"/><path class="a" d="M-278.524,112.624a1.618,1.618,0,0,0,1.618-1.618,1.617,1.617,0,0,0-1.618-1.617,1.617,1.617,0,0,0-1.617,1.617A1.618,1.618,0,0,0-278.524,112.624Z" transform="translate(-21.335 -29.805)"/><path class="a" d="M-267.648,112.861a2.043,2.043,0,0,0,2.043-2.043,2.044,2.044,0,0,0-2.043-2.043,2.043,2.043,0,0,0-2.043,2.043A2.043,2.043,0,0,0-267.648,112.861Z" transform="translate(-24.535 -29.617)"/><path class="a" d="M-256.763,113.087a2.447,2.447,0,0,0,2.447-2.448,2.447,2.447,0,0,0-2.447-2.448,2.448,2.448,0,0,0-2.448,2.448A2.448,2.448,0,0,0-256.763,113.087Z" transform="translate(-27.744 -29.438)"/><path class="a" d="M-245.878,113.313a2.852,2.852,0,0,0,2.852-2.852,2.853,2.853,0,0,0-2.852-2.852,2.852,2.852,0,0,0-2.852,2.852A2.852,2.852,0,0,0-245.878,113.313Z" transform="translate(-30.954 -29.26)"/><path class="a" d="M-234.974,113.516a3.214,3.214,0,0,0,3.214-3.214,3.214,3.214,0,0,0-3.214-3.214,3.214,3.214,0,0,0-3.214,3.214A3.214,3.214,0,0,0-234.974,113.516Z" transform="translate(-34.182 -29.1)"/><path class="a" d="M-224.023,113.658a3.47,3.47,0,0,0,3.47-3.47,3.47,3.47,0,0,0-3.47-3.47,3.47,3.47,0,0,0-3.47,3.47A3.47,3.47,0,0,0-224.023,113.658Z" transform="translate(-37.457 -28.987)"/><path class="a" d="M-213,113.705a3.554,3.554,0,0,0,3.555-3.554A3.555,3.555,0,0,0-213,106.6a3.555,3.555,0,0,0-3.554,3.554A3.554,3.554,0,0,0-213,113.705Z" transform="translate(-40.807 -28.95)"/><circle class="a" cx="3.405" cy="3.405" r="3.405" transform="translate(-249.535 77.796)"/><circle class="a" cx="3.108" cy="3.108" r="3.108" transform="translate(-241.561 78.094)"/><path class="a" d="M-179.45,113.254a2.746,2.746,0,0,0,2.746-2.746,2.745,2.745,0,0,0-2.746-2.745,2.745,2.745,0,0,0-2.746,2.745A2.746,2.746,0,0,0-179.45,113.254Z" transform="translate(-51.328 -29.307)"/><path class="a" d="M-168.2,113.016a2.32,2.32,0,0,0,2.32-2.32,2.32,2.32,0,0,0-2.32-2.32,2.32,2.32,0,0,0-2.32,2.32A2.32,2.32,0,0,0-168.2,113.016Z" transform="translate(-54.903 -29.495)"/><circle class="a" cx="1.894" cy="1.894" r="1.894" transform="translate(-217.321 79.307)"/><circle class="a" cx="1.49" cy="1.49" r="1.49" transform="translate(-209.241 79.712)"/><path class="a" d="M-134.482,112.35a1.128,1.128,0,0,0,1.128-1.128,1.128,1.128,0,0,0-1.128-1.128,1.128,1.128,0,0,0-1.128,1.128A1.128,1.128,0,0,0-134.482,112.35Z" transform="translate(-65.593 -30.021)"/><circle class="a" cx="0.788" cy="0.788" r="0.788" transform="translate(-193.187 80.414)"/><circle class="a" cx="0.511" cy="0.511" r="0.511" transform="translate(-185.235 80.691)"/><path class="a" d="M-100.916,111.875a.277.277,0,0,0,.277-.277.277.277,0,0,0-.277-.277.277.277,0,0,0-.276.277A.277.277,0,0,0-100.916,111.875Z" transform="translate(-76.133 -30.397)"/><circle class="a" cx="0.106" cy="0.106" r="0.106" transform="translate(-169.479 81.095)"/><path class="a" d="M-78.676,111.732a.022.022,0,0,0,.022-.022.022.022,0,0,0-.022-.021.021.021,0,0,0-.021.021A.021.021,0,0,0-78.676,111.732Z" transform="translate(-83.021 -30.509)"/><path class="a" d="M-349.741,122.807a.042.042,0,0,0,.042-.042.043.043,0,0,0-.042-.043.043.043,0,0,0-.043.043A.043.043,0,0,0-349.741,122.807Z" transform="translate(-0.009 -33.888)"/><path class="a" d="M-338.744,122.891a.191.191,0,0,0,.192-.191.191.191,0,0,0-.192-.191.191.191,0,0,0-.191.191A.192.192,0,0,0-338.744,122.891Z" transform="translate(-3.331 -33.822)"/><circle class="a" cx="0.404" cy="0.404" r="0.404" transform="translate(-334.803 88.473)"/><path class="a" d="M-316.833,123.164a.681.681,0,0,0,.681-.681.681.681,0,0,0-.681-.681.681.681,0,0,0-.681.681A.681.681,0,0,0-316.833,123.164Z" transform="translate(-9.891 -33.606)"/><circle class="a" cx="1" cy="1" r="1" transform="translate(-320.048 87.877)"/><path class="a" d="M-295.006,123.544a1.362,1.362,0,0,0,1.363-1.362,1.362,1.362,0,0,0-1.363-1.363,1.362,1.362,0,0,0-1.362,1.363A1.362,1.362,0,0,0-295.006,123.544Z" transform="translate(-16.366 -33.305)"/><path class="a" d="M-284.14,123.794a1.809,1.809,0,0,0,1.809-1.809,1.809,1.809,0,0,0-1.809-1.809,1.809,1.809,0,0,0-1.809,1.809A1.809,1.809,0,0,0-284.14,123.794Z" transform="translate(-19.557 -33.108)"/><path class="a" d="M-273.264,124.032a2.235,2.235,0,0,0,2.235-2.235,2.235,2.235,0,0,0-2.235-2.235A2.235,2.235,0,0,0-275.5,121.8,2.235,2.235,0,0,0-273.264,124.032Z" transform="translate(-22.757 -32.92)"/><path class="a" d="M-262.426,124.317a2.746,2.746,0,0,0,2.745-2.745,2.746,2.746,0,0,0-2.745-2.746,2.746,2.746,0,0,0-2.746,2.746A2.746,2.746,0,0,0-262.426,124.317Z" transform="translate(-25.919 -32.695)"/><path class="a" d="M-251.569,124.579a3.214,3.214,0,0,0,3.214-3.214,3.214,3.214,0,0,0-3.214-3.214,3.214,3.214,0,0,0-3.214,3.214A3.214,3.214,0,0,0-251.569,124.579Z" transform="translate(-29.1 -32.488)"/><path class="a" d="M-240.712,124.84a3.682,3.682,0,0,0,3.682-3.682,3.682,3.682,0,0,0-3.682-3.683,3.682,3.682,0,0,0-3.683,3.683A3.682,3.682,0,0,0-240.712,124.84Z" transform="translate(-32.281 -32.281)"/><path class="a" d="M-229.809,125.043A4.044,4.044,0,0,0-225.765,121a4.044,4.044,0,0,0-4.044-4.044A4.044,4.044,0,0,0-233.853,121,4.044,4.044,0,0,0-229.809,125.043Z" transform="translate(-35.509 -32.122)"/><path class="a" d="M-218.792,125.1a4.15,4.15,0,0,0,4.15-4.15,4.151,4.151,0,0,0-4.15-4.151,4.151,4.151,0,0,0-4.151,4.151A4.151,4.151,0,0,0-218.792,125.1Z" transform="translate(-38.85 -32.075)"/><path class="a" d="M-207.644,125a3.959,3.959,0,0,0,3.959-3.959,3.959,3.959,0,0,0-3.959-3.959,3.959,3.959,0,0,0-3.959,3.959A3.959,3.959,0,0,0-207.644,125Z" transform="translate(-42.323 -32.159)"/><path class="a" d="M-196.4,124.769a3.555,3.555,0,0,0,3.554-3.554,3.555,3.555,0,0,0-3.554-3.555,3.555,3.555,0,0,0-3.555,3.555A3.555,3.555,0,0,0-196.4,124.769Z" transform="translate(-45.889 -32.338)"/><path class="a" d="M-185.113,124.484a3.044,3.044,0,0,0,3.044-3.044,3.044,3.044,0,0,0-3.044-3.044,3.044,3.044,0,0,0-3.044,3.044A3.044,3.044,0,0,0-185.113,124.484Z" transform="translate(-49.502 -32.563)"/><path class="a" d="M-173.843,124.222a2.575,2.575,0,0,0,2.575-2.575,2.576,2.576,0,0,0-2.575-2.576,2.575,2.575,0,0,0-2.575,2.576A2.575,2.575,0,0,0-173.843,124.222Z" transform="translate(-53.097 -32.77)"/><path class="a" d="M-162.563,123.949a2.086,2.086,0,0,0,2.086-2.086,2.086,2.086,0,0,0-2.086-2.086,2.086,2.086,0,0,0-2.086,2.086A2.086,2.086,0,0,0-162.563,123.949Z" transform="translate(-56.701 -32.986)"/><path class="a" d="M-151.3,123.7a1.639,1.639,0,0,0,1.639-1.639,1.639,1.639,0,0,0-1.639-1.639,1.639,1.639,0,0,0-1.639,1.639A1.639,1.639,0,0,0-151.3,123.7Z" transform="translate(-60.286 -33.183)"/><path class="a" d="M-140.07,123.485a1.256,1.256,0,0,0,1.256-1.256,1.255,1.255,0,0,0-1.256-1.256,1.255,1.255,0,0,0-1.256,1.256A1.256,1.256,0,0,0-140.07,123.485Z" transform="translate(-63.843 -33.352)"/><circle class="a" cx="0.894" cy="0.894" r="0.894" transform="translate(-197.131 87.983)"/><path class="a" d="M-117.643,123.1a.574.574,0,0,0,.574-.574.574.574,0,0,0-.574-.575.575.575,0,0,0-.574.575A.575.575,0,0,0-117.643,123.1Z" transform="translate(-70.919 -33.653)"/><path class="a" d="M-106.475,122.974a.34.34,0,0,0,.341-.34.341.341,0,0,0-.341-.341.341.341,0,0,0-.341.341A.34.34,0,0,0-106.475,122.974Z" transform="translate(-74.41 -33.756)"/><path class="a" d="M-95.328,122.867a.149.149,0,0,0,.149-.148.149.149,0,0,0-.149-.149.149.149,0,0,0-.149.149A.149.149,0,0,0-95.328,122.867Z" transform="translate(-77.883 -33.841)"/><path class="a" d="M-84.207,122.8a.02.02,0,0,0,.021-.021.021.021,0,0,0-.021-.022.022.022,0,0,0-.022.022A.021.021,0,0,0-84.207,122.8Z" transform="translate(-81.327 -33.897)"/><path class="a" d="M-344.219,133.883a.064.064,0,0,0,.064-.064.064.064,0,0,0-.064-.064.064.064,0,0,0-.064.064A.064.064,0,0,0-344.219,133.883Z" transform="translate(-1.694 -37.266)"/><path class="a" d="M-333.221,133.966a.213.213,0,0,0,.213-.213.213.213,0,0,0-.213-.213.213.213,0,0,0-.213.213A.213.213,0,0,0-333.221,133.966Z" transform="translate(-5.016 -37.2)"/><path class="a" d="M-322.261,134.1a.447.447,0,0,0,.447-.447.447.447,0,0,0-.447-.447.447.447,0,0,0-.447.447A.447.447,0,0,0-322.261,134.1Z" transform="translate(-8.3 -37.097)"/><path class="a" d="M-311.319,134.251a.724.724,0,0,0,.724-.724.724.724,0,0,0-.724-.724.724.724,0,0,0-.724.724A.724.724,0,0,0-311.319,134.251Z" transform="translate(-11.566 -36.975)"/><path class="a" d="M-300.407,134.441a1.064,1.064,0,0,0,1.064-1.064,1.064,1.064,0,0,0-1.064-1.064,1.064,1.064,0,0,0-1.064,1.064A1.064,1.064,0,0,0-300.407,134.441Z" transform="translate(-14.804 -36.825)"/><path class="a" d="M-289.512,134.655a1.447,1.447,0,0,0,1.447-1.447,1.447,1.447,0,0,0-1.447-1.447,1.447,1.447,0,0,0-1.447,1.447A1.447,1.447,0,0,0-289.512,134.655Z" transform="translate(-18.022 -36.656)"/><path class="a" d="M-278.646,134.906a1.9,1.9,0,0,0,1.895-1.895,1.894,1.894,0,0,0-1.895-1.894,1.894,1.894,0,0,0-1.894,1.894A1.894,1.894,0,0,0-278.646,134.906Z" transform="translate(-21.213 -36.458)"/><path class="a" d="M-267.808,135.191a2.4,2.4,0,0,0,2.405-2.405,2.406,2.406,0,0,0-2.405-2.405,2.406,2.406,0,0,0-2.405,2.405A2.4,2.4,0,0,0-267.808,135.191Z" transform="translate(-24.375 -36.233)"/><path class="a" d="M-256.969,135.476a2.916,2.916,0,0,0,2.915-2.916,2.916,2.916,0,0,0-2.915-2.916,2.916,2.916,0,0,0-2.917,2.916A2.916,2.916,0,0,0-256.969,135.476Z" transform="translate(-27.538 -36.007)"/><path class="a" d="M-246.15,135.785a3.47,3.47,0,0,0,3.47-3.47,3.47,3.47,0,0,0-3.47-3.47,3.47,3.47,0,0,0-3.47,3.47A3.47,3.47,0,0,0-246.15,135.785Z" transform="translate(-30.681 -35.763)"/><path class="a" d="M-235.341,136.106a4.044,4.044,0,0,0,4.044-4.044,4.044,4.044,0,0,0-4.044-4.044,4.044,4.044,0,0,0-4.044,4.044A4.044,4.044,0,0,0-235.341,136.106Z" transform="translate(-33.815 -35.509)"/><path class="a" d="M-224.53,136.427a4.618,4.618,0,0,0,4.618-4.618,4.618,4.618,0,0,0-4.618-4.619,4.618,4.618,0,0,0-4.618,4.619A4.618,4.618,0,0,0-224.53,136.427Z" transform="translate(-36.95 -35.256)"/><path class="a" d="M-213.561,136.546a4.831,4.831,0,0,0,4.831-4.831,4.831,4.831,0,0,0-4.831-4.831,4.832,4.832,0,0,0-4.832,4.831A4.832,4.832,0,0,0-213.561,136.546Z" transform="translate(-40.244 -35.162)"/><path class="a" d="M-202.328,136.332a4.449,4.449,0,0,0,4.449-4.449,4.449,4.449,0,0,0-4.449-4.449,4.449,4.449,0,0,0-4.449,4.449A4.449,4.449,0,0,0-202.328,136.332Z" transform="translate(-43.801 -35.331)"/><path class="a" d="M-191,136a3.852,3.852,0,0,0,3.853-3.853A3.852,3.852,0,0,0-191,128.294a3.852,3.852,0,0,0-3.852,3.853A3.852,3.852,0,0,0-191,136Z" transform="translate(-47.452 -35.594)"/><path class="a" d="M-179.685,135.679a3.278,3.278,0,0,0,3.277-3.278,3.277,3.277,0,0,0-3.277-3.277,3.278,3.278,0,0,0-3.278,3.277A3.279,3.279,0,0,0-179.685,135.679Z" transform="translate(-51.093 -35.848)"/><path class="a" d="M-168.387,135.381a2.746,2.746,0,0,0,2.746-2.746,2.745,2.745,0,0,0-2.746-2.745,2.745,2.745,0,0,0-2.745,2.745A2.746,2.746,0,0,0-168.387,135.381Z" transform="translate(-54.716 -36.083)"/><path class="a" d="M-157.088,135.084a2.214,2.214,0,0,0,2.213-2.214,2.213,2.213,0,0,0-2.213-2.213,2.214,2.214,0,0,0-2.214,2.213A2.214,2.214,0,0,0-157.088,135.084Z" transform="translate(-58.338 -36.318)"/><path class="a" d="M-145.818,134.822a1.746,1.746,0,0,0,1.746-1.746,1.746,1.746,0,0,0-1.746-1.746,1.745,1.745,0,0,0-1.745,1.746A1.745,1.745,0,0,0-145.818,134.822Z" transform="translate(-61.933 -36.524)"/><path class="a" d="M-134.566,134.584a1.32,1.32,0,0,0,1.32-1.32,1.32,1.32,0,0,0-1.32-1.32,1.32,1.32,0,0,0-1.32,1.32A1.319,1.319,0,0,0-134.566,134.584Z" transform="translate(-65.509 -36.712)"/><path class="a" d="M-123.344,134.383a.958.958,0,0,0,.958-.958.958.958,0,0,0-.958-.957.958.958,0,0,0-.957.957A.958.958,0,0,0-123.344,134.383Z" transform="translate(-69.056 -36.872)"/><path class="a" d="M-112.13,134.192a.618.618,0,0,0,.617-.617.618.618,0,0,0-.617-.617.618.618,0,0,0-.617.617A.618.618,0,0,0-112.13,134.192Z" transform="translate(-72.594 -37.022)"/><path class="a" d="M-100.954,134.05a.362.362,0,0,0,.362-.362.362.362,0,0,0-.362-.361.361.361,0,0,0-.361.361A.362.362,0,0,0-100.954,134.05Z" transform="translate(-76.095 -37.135)"/><path class="a" d="M-89.805,133.943a.17.17,0,0,0,.17-.171.17.17,0,0,0-.17-.17.17.17,0,0,0-.171.17A.171.171,0,0,0-89.805,133.943Z" transform="translate(-79.567 -37.219)"/><path class="a" d="M-78.686,133.871a.043.043,0,0,0,.043-.042.043.043,0,0,0-.043-.042.042.042,0,0,0-.042.042A.042.042,0,0,0-78.686,133.871Z" transform="translate(-83.011 -37.276)"/><path class="a" d="M-349.75,144.947a.064.064,0,0,0,.064-.064.064.064,0,0,0-.064-.064.064.064,0,0,0-.064.064A.064.064,0,0,0-349.75,144.947Z" transform="translate(0 -40.654)"/><path class="a" d="M-338.762,145.041a.234.234,0,0,0,.234-.234.234.234,0,0,0-.234-.234.234.234,0,0,0-.234.234A.234.234,0,0,0-338.762,145.041Z" transform="translate(-3.313 -40.579)"/><path class="a" d="M-327.792,145.16a.447.447,0,0,0,.447-.447.447.447,0,0,0-.447-.447.448.448,0,0,0-.447.447A.448.448,0,0,0-327.792,145.16Z" transform="translate(-6.606 -40.485)"/><path class="a" d="M-316.851,145.315a.724.724,0,0,0,.724-.724.724.724,0,0,0-.724-.724.724.724,0,0,0-.724.724A.724.724,0,0,0-316.851,145.315Z" transform="translate(-9.872 -40.363)"/><path class="a" d="M-305.947,145.517a1.085,1.085,0,0,0,1.085-1.085,1.085,1.085,0,0,0-1.085-1.086,1.086,1.086,0,0,0-1.086,1.086A1.085,1.085,0,0,0-305.947,145.517Z" transform="translate(-13.1 -40.203)"/><path class="a" d="M-295.053,145.731a1.468,1.468,0,0,0,1.469-1.468,1.469,1.469,0,0,0-1.469-1.469,1.469,1.469,0,0,0-1.469,1.469A1.468,1.468,0,0,0-295.053,145.731Z" transform="translate(-16.319 -40.034)"/><path class="a" d="M-284.186,145.981a1.915,1.915,0,0,0,1.916-1.916,1.915,1.915,0,0,0-1.916-1.916,1.915,1.915,0,0,0-1.916,1.916A1.915,1.915,0,0,0-284.186,145.981Z" transform="translate(-19.51 -39.837)"/><path class="a" d="M-273.349,146.266a2.427,2.427,0,0,0,2.427-2.426,2.427,2.427,0,0,0-2.427-2.427,2.427,2.427,0,0,0-2.426,2.427A2.426,2.426,0,0,0-273.349,146.266Z" transform="translate(-22.672 -39.611)"/><path class="a" d="M-262.52,146.563a2.958,2.958,0,0,0,2.958-2.958,2.958,2.958,0,0,0-2.958-2.959,2.959,2.959,0,0,0-2.959,2.959A2.959,2.959,0,0,0-262.52,146.563Z" transform="translate(-25.825 -39.376)"/><path class="a" d="M-251.72,146.9a3.555,3.555,0,0,0,3.555-3.554,3.555,3.555,0,0,0-3.555-3.555,3.555,3.555,0,0,0-3.554,3.555A3.555,3.555,0,0,0-251.72,146.9Z" transform="translate(-28.95 -39.113)"/><path class="a" d="M-240.919,147.229a4.15,4.15,0,0,0,4.15-4.15,4.151,4.151,0,0,0-4.15-4.151,4.151,4.151,0,0,0-4.151,4.151A4.151,4.151,0,0,0-240.919,147.229Z" transform="translate(-32.075 -38.85)"/><circle class="a" cx="4.832" cy="4.832" r="4.832" transform="translate(-270.15 99.397)"/><circle class="a" cx="5.257" cy="5.257" r="5.257" transform="translate(-262.9 98.971)"/><circle class="a" cx="4.619" cy="4.619" r="4.619" transform="translate(-254.586 99.61)"/><path class="a" d="M-196.58,147.122a3.959,3.959,0,0,0,3.959-3.959,3.959,3.959,0,0,0-3.959-3.959,3.959,3.959,0,0,0-3.959,3.959A3.959,3.959,0,0,0-196.58,147.122Z" transform="translate(-45.711 -38.935)"/><path class="a" d="M-185.245,146.777a3.342,3.342,0,0,0,3.342-3.341,3.342,3.342,0,0,0-3.342-3.342,3.341,3.341,0,0,0-3.341,3.342A3.341,3.341,0,0,0-185.245,146.777Z" transform="translate(-49.371 -39.207)"/><path class="a" d="M-173.928,146.456a2.767,2.767,0,0,0,2.767-2.767,2.767,2.767,0,0,0-2.767-2.767,2.768,2.768,0,0,0-2.768,2.767A2.767,2.767,0,0,0-173.928,146.456Z" transform="translate(-53.012 -39.461)"/><path class="a" d="M-162.629,146.159a2.235,2.235,0,0,0,2.235-2.235,2.235,2.235,0,0,0-2.235-2.235,2.235,2.235,0,0,0-2.235,2.235A2.235,2.235,0,0,0-162.629,146.159Z" transform="translate(-56.635 -39.696)"/><path class="a" d="M-151.359,145.9a1.766,1.766,0,0,0,1.766-1.766,1.767,1.767,0,0,0-1.766-1.767,1.767,1.767,0,0,0-1.767,1.767A1.767,1.767,0,0,0-151.359,145.9Z" transform="translate(-60.229 -39.902)"/><path class="a" d="M-140.108,145.659a1.341,1.341,0,0,0,1.341-1.34,1.341,1.341,0,0,0-1.341-1.341,1.341,1.341,0,0,0-1.341,1.341A1.341,1.341,0,0,0-140.108,145.659Z" transform="translate(-63.805 -40.09)"/><path class="a" d="M-128.875,145.446a.958.958,0,0,0,.957-.957.958.958,0,0,0-.957-.958.958.958,0,0,0-.958.958A.958.958,0,0,0-128.875,145.446Z" transform="translate(-67.362 -40.26)"/><path class="a" d="M-117.671,145.267a.639.639,0,0,0,.639-.638.639.639,0,0,0-.639-.639.639.639,0,0,0-.638.639A.638.638,0,0,0-117.671,145.267Z" transform="translate(-70.891 -40.4)"/><path class="a" d="M-106.485,145.113a.361.361,0,0,0,.361-.361.362.362,0,0,0-.361-.362.362.362,0,0,0-.362.362A.362.362,0,0,0-106.485,145.113Z" transform="translate(-74.401 -40.523)"/><path class="a" d="M-95.337,145.006a.17.17,0,0,0,.171-.17.171.171,0,0,0-.171-.171.17.17,0,0,0-.17.171A.17.17,0,0,0-95.337,145.006Z" transform="translate(-77.873 -40.607)"/><path class="a" d="M-84.217,144.934a.042.042,0,0,0,.042-.042.043.043,0,0,0-.042-.043.043.043,0,0,0-.043.043A.043.043,0,0,0-84.217,144.934Z" transform="translate(-81.317 -40.663)"/><path class="a" d="M-344.219,156.01a.064.064,0,0,0,.064-.064.064.064,0,0,0-.064-.064.064.064,0,0,0-.064.064A.064.064,0,0,0-344.219,156.01Z" transform="translate(-1.694 -44.042)"/><path class="a" d="M-333.221,156.093a.213.213,0,0,0,.213-.213.213.213,0,0,0-.213-.213.213.213,0,0,0-.213.213A.213.213,0,0,0-333.221,156.093Z" transform="translate(-5.016 -43.976)"/><path class="a" d="M-322.252,156.212a.426.426,0,0,0,.426-.426.425.425,0,0,0-.426-.425.425.425,0,0,0-.425.425A.426.426,0,0,0-322.252,156.212Z" transform="translate(-8.31 -43.882)"/><path class="a" d="M-311.319,156.378a.724.724,0,0,0,.724-.724.724.724,0,0,0-.724-.724.724.724,0,0,0-.724.724A.724.724,0,0,0-311.319,156.378Z" transform="translate(-11.566 -43.751)"/><path class="a" d="M-300.407,156.569a1.064,1.064,0,0,0,1.064-1.064,1.064,1.064,0,0,0-1.064-1.064,1.064,1.064,0,0,0-1.064,1.064A1.064,1.064,0,0,0-300.407,156.569Z" transform="translate(-14.804 -43.6)"/><path class="a" d="M-289.5,156.771a1.426,1.426,0,0,0,1.426-1.426,1.426,1.426,0,0,0-1.426-1.426,1.426,1.426,0,0,0-1.426,1.426A1.427,1.427,0,0,0-289.5,156.771Z" transform="translate(-18.032 -43.441)"/><path class="a" d="M-278.636,157.02a1.873,1.873,0,0,0,1.873-1.873,1.873,1.873,0,0,0-1.873-1.873,1.873,1.873,0,0,0-1.873,1.873A1.873,1.873,0,0,0-278.636,157.02Z" transform="translate(-21.222 -43.243)"/><path class="a" d="M-267.779,157.282a2.341,2.341,0,0,0,2.341-2.342,2.341,2.341,0,0,0-2.341-2.342,2.341,2.341,0,0,0-2.342,2.342A2.341,2.341,0,0,0-267.779,157.282Z" transform="translate(-24.403 -43.037)"/><path class="a" d="M-256.941,157.567a2.851,2.851,0,0,0,2.851-2.852,2.852,2.852,0,0,0-2.851-2.852,2.853,2.853,0,0,0-2.853,2.852A2.852,2.852,0,0,0-256.941,157.567Z" transform="translate(-27.566 -42.811)"/><path class="a" d="M-246.122,157.877a3.406,3.406,0,0,0,3.406-3.406,3.405,3.405,0,0,0-3.406-3.405,3.405,3.405,0,0,0-3.406,3.405A3.406,3.406,0,0,0-246.122,157.877Z" transform="translate(-30.709 -42.567)"/><path class="a" d="M-235.3,158.185a3.959,3.959,0,0,0,3.959-3.959,3.959,3.959,0,0,0-3.959-3.959,3.959,3.959,0,0,0-3.959,3.959A3.959,3.959,0,0,0-235.3,158.185Z" transform="translate(-33.853 -42.323)"/><path class="a" d="M-224.455,158.459a4.449,4.449,0,0,0,4.449-4.449,4.449,4.449,0,0,0-4.449-4.449,4.449,4.449,0,0,0-4.449,4.449A4.449,4.449,0,0,0-224.455,158.459Z" transform="translate(-37.025 -42.107)"/><path class="a" d="M-213.467,158.554a4.619,4.619,0,0,0,4.619-4.618,4.619,4.619,0,0,0-4.619-4.618,4.619,4.619,0,0,0-4.619,4.618A4.619,4.619,0,0,0-213.467,158.554Z" transform="translate(-40.338 -42.032)"/><path class="a" d="M-202.253,158.364a4.278,4.278,0,0,0,4.278-4.279,4.277,4.277,0,0,0-4.278-4.278,4.278,4.278,0,0,0-4.279,4.278A4.279,4.279,0,0,0-202.253,158.364Z" transform="translate(-43.876 -42.182)"/><path class="a" d="M-190.965,158.078a3.768,3.768,0,0,0,3.768-3.767,3.768,3.768,0,0,0-3.768-3.767,3.767,3.767,0,0,0-3.767,3.767A3.767,3.767,0,0,0-190.965,158.078Z" transform="translate(-47.489 -42.407)"/><path class="a" d="M-179.657,157.77a3.214,3.214,0,0,0,3.214-3.214,3.214,3.214,0,0,0-3.214-3.214,3.214,3.214,0,0,0-3.214,3.214A3.214,3.214,0,0,0-179.657,157.77Z" transform="translate(-51.121 -42.652)"/><path class="a" d="M-168.359,157.473a2.682,2.682,0,0,0,2.682-2.682,2.682,2.682,0,0,0-2.682-2.681,2.682,2.682,0,0,0-2.681,2.681A2.682,2.682,0,0,0-168.359,157.473Z" transform="translate(-54.744 -42.887)"/><path class="a" d="M-157.079,157.2a2.193,2.193,0,0,0,2.192-2.192,2.193,2.193,0,0,0-2.192-2.192,2.193,2.193,0,0,0-2.192,2.192A2.193,2.193,0,0,0-157.079,157.2Z" transform="translate(-58.348 -43.102)"/><path class="a" d="M-145.809,156.937a1.724,1.724,0,0,0,1.724-1.724,1.724,1.724,0,0,0-1.724-1.724,1.724,1.724,0,0,0-1.724,1.724A1.724,1.724,0,0,0-145.809,156.937Z" transform="translate(-61.942 -43.309)"/><path class="a" d="M-134.566,156.711a1.32,1.32,0,0,0,1.32-1.32,1.32,1.32,0,0,0-1.32-1.32,1.32,1.32,0,0,0-1.32,1.32A1.319,1.319,0,0,0-134.566,156.711Z" transform="translate(-65.509 -43.488)"/><path class="a" d="M-123.334,156.5a.936.936,0,0,0,.937-.937.937.937,0,0,0-.937-.937.937.937,0,0,0-.937.937A.937.937,0,0,0-123.334,156.5Z" transform="translate(-69.065 -43.657)"/><path class="a" d="M-112.13,156.319a.618.618,0,0,0,.617-.617.618.618,0,0,0-.617-.617.618.618,0,0,0-.617.617A.618.618,0,0,0-112.13,156.319Z" transform="translate(-72.594 -43.798)"/><path class="a" d="M-100.954,156.177a.362.362,0,0,0,.362-.362.362.362,0,0,0-.362-.361.361.361,0,0,0-.361.361A.362.362,0,0,0-100.954,156.177Z" transform="translate(-76.095 -43.911)"/><path class="a" d="M-89.8,156.057a.149.149,0,0,0,.149-.149.149.149,0,0,0-.149-.149.149.149,0,0,0-.149.149A.149.149,0,0,0-89.8,156.057Z" transform="translate(-79.577 -44.004)"/><path class="a" d="M-78.676,155.986a.022.022,0,0,0,.022-.022.022.022,0,0,0-.022-.022.021.021,0,0,0-.021.022A.021.021,0,0,0-78.676,155.986Z" transform="translate(-83.021 -44.061)"/><path class="a" d="M-349.741,167.061a.042.042,0,0,0,.042-.042.043.043,0,0,0-.042-.043.043.043,0,0,0-.043.043A.043.043,0,0,0-349.741,167.061Z" transform="translate(-0.009 -47.439)"/><path class="a" d="M-338.744,167.145a.191.191,0,0,0,.192-.191.192.192,0,0,0-.192-.192.192.192,0,0,0-.191.192A.192.192,0,0,0-338.744,167.145Z" transform="translate(-3.331 -47.373)"/><circle class="a" cx="0.404" cy="0.404" r="0.404" transform="translate(-334.803 119.175)"/><path class="a" d="M-316.823,167.407a.66.66,0,0,0,.66-.66.66.66,0,0,0-.66-.66.66.66,0,0,0-.66.66A.66.66,0,0,0-316.823,167.407Z" transform="translate(-9.9 -47.167)"/><path class="a" d="M-305.9,167.585a.979.979,0,0,0,.979-.979.979.979,0,0,0-.979-.98.979.979,0,0,0-.98.98A.979.979,0,0,0-305.9,167.585Z" transform="translate(-13.147 -47.026)"/><path class="a" d="M-295,167.786a1.341,1.341,0,0,0,1.341-1.34A1.341,1.341,0,0,0-295,165.1a1.341,1.341,0,0,0-1.341,1.341A1.341,1.341,0,0,0-295,167.786Z" transform="translate(-16.375 -46.866)"/><path class="a" d="M-284.111,168.012a1.745,1.745,0,0,0,1.745-1.745,1.745,1.745,0,0,0-1.745-1.746,1.745,1.745,0,0,0-1.746,1.746A1.745,1.745,0,0,0-284.111,168.012Z" transform="translate(-19.585 -46.688)"/><circle class="a" cx="2.192" cy="2.192" r="2.192" transform="translate(-298.213 117.387)"/><path class="a" d="M-262.388,168.524a2.66,2.66,0,0,0,2.661-2.66,2.661,2.661,0,0,0-2.661-2.661,2.661,2.661,0,0,0-2.661,2.661A2.66,2.66,0,0,0-262.388,168.524Z" transform="translate(-25.957 -46.284)"/><circle class="a" cx="3.108" cy="3.108" r="3.108" transform="translate(-283.777 116.472)"/><path class="a" d="M-240.656,169.023a3.555,3.555,0,0,0,3.554-3.554,3.555,3.555,0,0,0-3.554-3.555,3.555,3.555,0,0,0-3.555,3.555A3.555,3.555,0,0,0-240.656,169.023Z" transform="translate(-32.338 -45.889)"/><path class="a" d="M-229.724,169.189a3.852,3.852,0,0,0,3.853-3.852,3.852,3.852,0,0,0-3.853-3.853,3.852,3.852,0,0,0-3.853,3.853A3.852,3.852,0,0,0-229.724,169.189Z" transform="translate(-35.594 -45.758)"/><path class="a" d="M-218.708,169.249a3.959,3.959,0,0,0,3.959-3.959,3.959,3.959,0,0,0-3.959-3.959,3.959,3.959,0,0,0-3.959,3.959A3.959,3.959,0,0,0-218.708,169.249Z" transform="translate(-38.935 -45.71)"/><path class="a" d="M-207.56,169.142a3.767,3.767,0,0,0,3.767-3.767,3.768,3.768,0,0,0-3.767-3.768,3.768,3.768,0,0,0-3.767,3.768A3.767,3.767,0,0,0-207.56,169.142Z" transform="translate(-42.407 -45.795)"/><circle class="a" cx="3.405" cy="3.405" r="3.405" transform="translate(-245.697 116.174)"/><path class="a" d="M-185.076,168.69a2.958,2.958,0,0,0,2.958-2.958,2.958,2.958,0,0,0-2.958-2.959,2.958,2.958,0,0,0-2.958,2.959A2.958,2.958,0,0,0-185.076,168.69Z" transform="translate(-49.54 -46.152)"/><path class="a" d="M-173.805,168.429a2.49,2.49,0,0,0,2.49-2.49,2.49,2.49,0,0,0-2.49-2.491,2.49,2.49,0,0,0-2.491,2.491A2.49,2.49,0,0,0-173.805,168.429Z" transform="translate(-53.134 -46.359)"/><path class="a" d="M-162.545,168.179a2.043,2.043,0,0,0,2.043-2.043,2.043,2.043,0,0,0-2.043-2.044,2.044,2.044,0,0,0-2.043,2.044A2.044,2.044,0,0,0-162.545,168.179Z" transform="translate(-56.72 -46.556)"/><circle class="a" cx="1.596" cy="1.596" r="1.596" transform="translate(-213.185 117.983)"/><path class="a" d="M-140.052,167.715a1.213,1.213,0,0,0,1.213-1.213,1.213,1.213,0,0,0-1.213-1.213,1.213,1.213,0,0,0-1.213,1.213A1.213,1.213,0,0,0-140.052,167.715Z" transform="translate(-63.862 -46.923)"/><path class="a" d="M-128.837,167.525a.872.872,0,0,0,.872-.872.872.872,0,0,0-.872-.873.873.873,0,0,0-.873.873A.872.872,0,0,0-128.837,167.525Z" transform="translate(-67.4 -47.073)"/><path class="a" d="M-117.643,167.359a.574.574,0,0,0,.574-.574.574.574,0,0,0-.574-.575.575.575,0,0,0-.574.575A.575.575,0,0,0-117.643,167.359Z" transform="translate(-70.919 -47.204)"/><path class="a" d="M-106.466,167.216a.319.319,0,0,0,.319-.319.319.319,0,0,0-.319-.32.319.319,0,0,0-.319.32A.319.319,0,0,0-106.466,167.216Z" transform="translate(-74.42 -47.317)"/><path class="a" d="M-95.318,167.109a.128.128,0,0,0,.128-.128.127.127,0,0,0-.128-.128.127.127,0,0,0-.128.128A.128.128,0,0,0-95.318,167.109Z" transform="translate(-77.892 -47.402)"/><path class="a" d="M-84.207,167.049a.02.02,0,0,0,.021-.021.021.021,0,0,0-.021-.021.022.022,0,0,0-.022.021A.021.021,0,0,0-84.207,167.049Z" transform="translate(-81.327 -47.449)"/><path class="a" d="M-344.2,178.113a.022.022,0,0,0,.022-.021.022.022,0,0,0-.022-.021.021.021,0,0,0-.021.021A.021.021,0,0,0-344.2,178.113Z" transform="translate(-1.713 -50.836)"/><path class="a" d="M-333.193,178.184a.149.149,0,0,0,.149-.149.149.149,0,0,0-.149-.149.149.149,0,0,0-.149.149A.149.149,0,0,0-333.193,178.184Z" transform="translate(-5.044 -50.78)"/><path class="a" d="M-322.214,178.291a.34.34,0,0,0,.341-.341.34.34,0,0,0-.341-.341.34.34,0,0,0-.34.341A.34.34,0,0,0-322.214,178.291Z" transform="translate(-8.348 -50.695)"/><path class="a" d="M-311.254,178.422a.574.574,0,0,0,.574-.574.575.575,0,0,0-.574-.574.574.574,0,0,0-.574.574A.574.574,0,0,0-311.254,178.422Z" transform="translate(-11.632 -50.592)"/><path class="a" d="M-300.322,178.589a.873.873,0,0,0,.873-.873.873.873,0,0,0-.873-.873.872.872,0,0,0-.872.873A.872.872,0,0,0-300.322,178.589Z" transform="translate(-14.888 -50.461)"/><circle class="a" cx="1.192" cy="1.192" r="1.192" transform="translate(-308.726 126.063)"/><path class="a" d="M-278.5,178.969a1.554,1.554,0,0,0,1.554-1.554,1.554,1.554,0,0,0-1.554-1.553,1.553,1.553,0,0,0-1.553,1.553A1.554,1.554,0,0,0-278.5,178.969Z" transform="translate(-21.363 -50.16)"/><path class="a" d="M-267.6,179.183a1.937,1.937,0,0,0,1.937-1.937,1.937,1.937,0,0,0-1.937-1.937,1.937,1.937,0,0,0-1.937,1.937A1.937,1.937,0,0,0-267.6,179.183Z" transform="translate(-24.582 -49.991)"/><path class="a" d="M-256.716,179.409a2.341,2.341,0,0,0,2.341-2.342,2.341,2.341,0,0,0-2.341-2.342,2.341,2.341,0,0,0-2.341,2.342A2.341,2.341,0,0,0-256.716,179.409Z" transform="translate(-27.791 -49.812)"/><path class="a" d="M-245.831,179.635a2.745,2.745,0,0,0,2.745-2.746,2.745,2.745,0,0,0-2.745-2.745,2.745,2.745,0,0,0-2.746,2.745A2.746,2.746,0,0,0-245.831,179.635Z" transform="translate(-31.001 -49.634)"/><path class="a" d="M-234.9,179.8a3.044,3.044,0,0,0,3.044-3.044,3.043,3.043,0,0,0-3.044-3.044,3.044,3.044,0,0,0-3.044,3.044A3.044,3.044,0,0,0-234.9,179.8Z" transform="translate(-34.257 -49.502)"/><path class="a" d="M-223.939,179.933a3.279,3.279,0,0,0,3.278-3.278,3.278,3.278,0,0,0-3.278-3.277,3.278,3.278,0,0,0-3.278,3.277A3.279,3.279,0,0,0-223.939,179.933Z" transform="translate(-37.541 -49.399)"/><path class="a" d="M-212.9,179.968a3.342,3.342,0,0,0,3.342-3.342,3.341,3.341,0,0,0-3.342-3.341,3.341,3.341,0,0,0-3.341,3.341A3.342,3.342,0,0,0-212.9,179.968Z" transform="translate(-40.901 -49.371)"/><path class="a" d="M-201.784,179.9a3.214,3.214,0,0,0,3.214-3.214,3.214,3.214,0,0,0-3.214-3.214A3.214,3.214,0,0,0-205,176.683,3.214,3.214,0,0,0-201.784,179.9Z" transform="translate(-44.345 -49.427)"/><path class="a" d="M-190.608,179.754a2.958,2.958,0,0,0,2.959-2.958,2.958,2.958,0,0,0-2.959-2.958,2.958,2.958,0,0,0-2.958,2.958A2.958,2.958,0,0,0-190.608,179.754Z" transform="translate(-47.846 -49.54)"/><circle class="a" cx="2.597" cy="2.597" r="2.597" transform="translate(-233.374 124.659)"/><path class="a" d="M-168.152,179.338a2.214,2.214,0,0,0,2.214-2.214,2.214,2.214,0,0,0-2.214-2.213,2.213,2.213,0,0,0-2.213,2.213A2.214,2.214,0,0,0-168.152,179.338Z" transform="translate(-54.951 -49.869)"/><path class="a" d="M-156.919,179.123a1.83,1.83,0,0,0,1.83-1.83,1.83,1.83,0,0,0-1.83-1.83,1.83,1.83,0,0,0-1.83,1.83A1.83,1.83,0,0,0-156.919,179.123Z" transform="translate(-58.508 -50.038)"/><path class="a" d="M-145.677,178.9a1.426,1.426,0,0,0,1.426-1.426,1.426,1.426,0,0,0-1.426-1.426,1.426,1.426,0,0,0-1.426,1.426A1.426,1.426,0,0,0-145.677,178.9Z" transform="translate(-62.074 -50.217)"/><path class="a" d="M-134.463,178.708a1.086,1.086,0,0,0,1.086-1.086,1.086,1.086,0,0,0-1.086-1.086,1.086,1.086,0,0,0-1.086,1.086A1.086,1.086,0,0,0-134.463,178.708Z" transform="translate(-65.612 -50.367)"/><path class="a" d="M-123.259,178.53a.767.767,0,0,0,.767-.767.766.766,0,0,0-.767-.766.766.766,0,0,0-.766.766A.767.767,0,0,0-123.259,178.53Z" transform="translate(-69.141 -50.508)"/><circle class="a" cx="0.49" cy="0.49" r="0.49" transform="translate(-185.213 126.766)"/><path class="a" d="M-100.907,178.244a.255.255,0,0,0,.255-.255.255.255,0,0,0-.255-.255.256.256,0,0,0-.255.255A.256.256,0,0,0-100.907,178.244Z" transform="translate(-76.142 -50.733)"/><path class="a" d="M-89.768,178.149a.085.085,0,0,0,.085-.085.085.085,0,0,0-.085-.085.085.085,0,0,0-.085.085A.085.085,0,0,0-89.768,178.149Z" transform="translate(-79.605 -50.808)"/><path class="a" d="M-338.7,189.212a.085.085,0,0,0,.085-.085.085.085,0,0,0-.085-.085.085.085,0,0,0-.085.085A.085.085,0,0,0-338.7,189.212Z" transform="translate(-3.378 -54.196)"/><path class="a" d="M-327.708,189.307a.256.256,0,0,0,.255-.255.256.256,0,0,0-.255-.256.255.255,0,0,0-.255.256A.255.255,0,0,0-327.708,189.307Z" transform="translate(-6.691 -54.121)"/><path class="a" d="M-316.739,189.427a.469.469,0,0,0,.468-.468.468.468,0,0,0-.468-.468.468.468,0,0,0-.468.468A.469.469,0,0,0-316.739,189.427Z" transform="translate(-9.985 -54.027)"/><path class="a" d="M-305.787,189.569a.724.724,0,0,0,.724-.724.724.724,0,0,0-.724-.724.724.724,0,0,0-.724.724A.724.724,0,0,0-305.787,189.569Z" transform="translate(-13.26 -53.914)"/><path class="a" d="M-294.856,189.735a1.022,1.022,0,0,0,1.022-1.021,1.022,1.022,0,0,0-1.022-1.022,1.021,1.021,0,0,0-1.021,1.022A1.021,1.021,0,0,0-294.856,189.735Z" transform="translate(-16.516 -53.783)"/><path class="a" d="M-283.933,189.913a1.34,1.34,0,0,0,1.34-1.34,1.341,1.341,0,0,0-1.34-1.341,1.341,1.341,0,0,0-1.341,1.341A1.341,1.341,0,0,0-283.933,189.913Z" transform="translate(-19.763 -53.642)"/><path class="a" d="M-273.011,190.092a1.66,1.66,0,0,0,1.66-1.66,1.66,1.66,0,0,0-1.66-1.66,1.66,1.66,0,0,0-1.66,1.66A1.661,1.661,0,0,0-273.011,190.092Z" transform="translate(-23.01 -53.501)"/><path class="a" d="M-262.107,190.294a2.022,2.022,0,0,0,2.022-2.022,2.022,2.022,0,0,0-2.022-2.022,2.022,2.022,0,0,0-2.022,2.022A2.022,2.022,0,0,0-262.107,190.294Z" transform="translate(-26.238 -53.341)"/><path class="a" d="M-251.175,190.461a2.32,2.32,0,0,0,2.32-2.32,2.32,2.32,0,0,0-2.32-2.32,2.32,2.32,0,0,0-2.32,2.32A2.32,2.32,0,0,0-251.175,190.461Z" transform="translate(-29.495 -53.21)"/><path class="a" d="M-240.224,190.6a2.575,2.575,0,0,0,2.575-2.575,2.576,2.576,0,0,0-2.575-2.576,2.576,2.576,0,0,0-2.575,2.576A2.575,2.575,0,0,0-240.224,190.6Z" transform="translate(-32.77 -53.097)"/><path class="a" d="M-229.236,190.7a2.746,2.746,0,0,0,2.746-2.745,2.746,2.746,0,0,0-2.746-2.746,2.746,2.746,0,0,0-2.745,2.746A2.746,2.746,0,0,0-229.236,190.7Z" transform="translate(-36.083 -53.022)"/><path class="a" d="M-218.182,190.71a2.767,2.767,0,0,0,2.767-2.767,2.767,2.767,0,0,0-2.767-2.767,2.768,2.768,0,0,0-2.768,2.767A2.767,2.767,0,0,0-218.182,190.71Z" transform="translate(-39.461 -53.012)"/><path class="a" d="M-207.081,190.663a2.682,2.682,0,0,0,2.682-2.681,2.682,2.682,0,0,0-2.682-2.682,2.682,2.682,0,0,0-2.681,2.682A2.682,2.682,0,0,0-207.081,190.663Z" transform="translate(-42.886 -53.05)"/><circle class="a" cx="2.49" cy="2.49" r="2.49" transform="translate(-244.781 132.441)"/><circle class="a" cx="2.214" cy="2.214" r="2.214" transform="translate(-236.829 132.717)"/><circle class="a" cx="1.894" cy="1.894" r="1.894" transform="translate(-228.834 133.037)"/><path class="a" d="M-162.329,190.032a1.554,1.554,0,0,0,1.554-1.553,1.554,1.554,0,0,0-1.554-1.554,1.554,1.554,0,0,0-1.553,1.554A1.553,1.553,0,0,0-162.329,190.032Z" transform="translate(-56.936 -53.548)"/><path class="a" d="M-151.124,189.854a1.235,1.235,0,0,0,1.234-1.234,1.235,1.235,0,0,0-1.234-1.235,1.235,1.235,0,0,0-1.235,1.235A1.235,1.235,0,0,0-151.124,189.854Z" transform="translate(-60.464 -53.689)"/><circle class="a" cx="0.915" cy="0.915" r="0.915" transform="translate(-204.828 134.016)"/><path class="a" d="M-128.734,189.521a.638.638,0,0,0,.638-.638.639.639,0,0,0-.638-.639.639.639,0,0,0-.639.639A.639.639,0,0,0-128.734,189.521Z" transform="translate(-67.503 -53.952)"/><circle class="a" cx="0.404" cy="0.404" r="0.404" transform="translate(-188.966 134.527)"/><path class="a" d="M-106.41,189.272a.192.192,0,0,0,.191-.191.192.192,0,0,0-.191-.192.192.192,0,0,0-.192.192A.192.192,0,0,0-106.41,189.272Z" transform="translate(-74.476 -54.149)"/><path class="a" d="M-95.29,189.2a.064.064,0,0,0,.064-.064.064.064,0,0,0-.064-.064.064.064,0,0,0-.064.064A.064.064,0,0,0-95.29,189.2Z" transform="translate(-77.92 -54.206)"/><path class="a" d="M-333.146,200.252a.042.042,0,0,0,.042-.042.042.042,0,0,0-.042-.042.042.042,0,0,0-.042.042A.042.042,0,0,0-333.146,200.252Z" transform="translate(-5.091 -57.603)"/><path class="a" d="M-322.139,200.324a.171.171,0,0,0,.171-.171.17.17,0,0,0-.171-.17.17.17,0,0,0-.17.17A.17.17,0,0,0-322.139,200.324Z" transform="translate(-8.423 -57.546)"/><path class="a" d="M-311.16,200.431a.362.362,0,0,0,.361-.362.361.361,0,0,0-.361-.361.362.362,0,0,0-.362.361A.362.362,0,0,0-311.16,200.431Z" transform="translate(-11.726 -57.462)"/><path class="a" d="M-300.191,200.549a.574.574,0,0,0,.575-.574.575.575,0,0,0-.575-.574.575.575,0,0,0-.574.574A.574.574,0,0,0-300.191,200.549Z" transform="translate(-15.02 -57.368)"/><path class="a" d="M-289.24,200.692a.83.83,0,0,0,.83-.83.829.829,0,0,0-.83-.83.83.83,0,0,0-.83.83A.831.831,0,0,0-289.24,200.692Z" transform="translate(-18.295 -57.255)"/><circle class="a" cx="1.085" cy="1.085" r="1.085" transform="translate(-300.944 141.521)"/><path class="a" d="M-267.347,200.989a1.363,1.363,0,0,0,1.362-1.363,1.362,1.362,0,0,0-1.362-1.362,1.362,1.362,0,0,0-1.362,1.362A1.363,1.363,0,0,0-267.347,200.989Z" transform="translate(-24.836 -57.02)"/><path class="a" d="M-256.406,201.143a1.639,1.639,0,0,0,1.639-1.639,1.639,1.639,0,0,0-1.639-1.639,1.639,1.639,0,0,0-1.639,1.639A1.639,1.639,0,0,0-256.406,201.143Z" transform="translate(-28.101 -56.898)"/><circle class="a" cx="1.894" cy="1.894" r="1.894" transform="translate(-278.726 140.712)"/><path class="a" d="M-234.476,201.394a2.086,2.086,0,0,0,2.086-2.086,2.086,2.086,0,0,0-2.086-2.086,2.086,2.086,0,0,0-2.086,2.086A2.086,2.086,0,0,0-234.476,201.394Z" transform="translate(-34.68 -56.701)"/><path class="a" d="M-223.469,201.465a2.214,2.214,0,0,0,2.213-2.214,2.214,2.214,0,0,0-2.213-2.214,2.214,2.214,0,0,0-2.214,2.214A2.214,2.214,0,0,0-223.469,201.465Z" transform="translate(-38.011 -56.644)"/><path class="a" d="M-212.415,201.476a2.235,2.235,0,0,0,2.235-2.235,2.235,2.235,0,0,0-2.235-2.235,2.235,2.235,0,0,0-2.235,2.235A2.235,2.235,0,0,0-212.415,201.476Z" transform="translate(-41.39 -56.635)"/><path class="a" d="M-201.333,201.453a2.193,2.193,0,0,0,2.192-2.192,2.193,2.193,0,0,0-2.192-2.192,2.193,2.193,0,0,0-2.192,2.192A2.193,2.193,0,0,0-201.333,201.453Z" transform="translate(-44.796 -56.654)"/><path class="a" d="M-190.2,201.369a2.043,2.043,0,0,0,2.044-2.043,2.044,2.044,0,0,0-2.044-2.043,2.044,2.044,0,0,0-2.043,2.043A2.043,2.043,0,0,0-190.2,201.369Z" transform="translate(-48.25 -56.72)"/><path class="a" d="M-179.046,201.25a1.83,1.83,0,0,0,1.83-1.83,1.83,1.83,0,0,0-1.83-1.83,1.83,1.83,0,0,0-1.83,1.83A1.83,1.83,0,0,0-179.046,201.25Z" transform="translate(-51.732 -56.814)"/><path class="a" d="M-167.861,201.1a1.554,1.554,0,0,0,1.554-1.554,1.554,1.554,0,0,0-1.554-1.553,1.553,1.553,0,0,0-1.553,1.553A1.554,1.554,0,0,0-167.861,201.1Z" transform="translate(-55.242 -56.936)"/><circle class="a" cx="1.298" cy="1.298" r="1.298" transform="translate(-216.725 141.308)"/><circle class="a" cx="1" cy="1" r="1" transform="translate(-208.751 141.606)"/><path class="a" d="M-134.3,200.632a.724.724,0,0,0,.724-.724.724.724,0,0,0-.724-.724.724.724,0,0,0-.724.724A.724.724,0,0,0-134.3,200.632Z" transform="translate(-65.772 -57.302)"/><circle class="a" cx="0.49" cy="0.49" r="0.49" transform="translate(-192.889 142.117)"/><circle class="a" cx="0.298" cy="0.298" r="0.298" transform="translate(-185.022 142.309)"/><path class="a" d="M-100.85,200.3a.127.127,0,0,0,.128-.128.127.127,0,0,0-.128-.128.128.128,0,0,0-.128.128A.128.128,0,0,0-100.85,200.3Z" transform="translate(-76.198 -57.565)"/><circle class="a" cx="0.021" cy="0.021" r="0.021" transform="translate(-169.394 142.585)"/><path class="a" d="M-338.668,211.3a.021.021,0,0,0,.022-.021.022.022,0,0,0-.022-.022.021.021,0,0,0-.021.022A.02.02,0,0,0-338.668,211.3Z" transform="translate(-3.407 -61)"/><path class="a" d="M-327.633,211.339a.086.086,0,0,0,.085-.085.086.086,0,0,0-.085-.085.085.085,0,0,0-.085.085A.085.085,0,0,0-327.633,211.339Z" transform="translate(-6.766 -60.972)"/><path class="a" d="M-316.635,211.422a.234.234,0,0,0,.234-.234.234.234,0,0,0-.234-.235.234.234,0,0,0-.234.235A.234.234,0,0,0-316.635,211.422Z" transform="translate(-10.088 -60.906)"/><path class="a" d="M-305.656,211.529a.425.425,0,0,0,.425-.425.425.425,0,0,0-.425-.426.426.426,0,0,0-.426.426A.426.426,0,0,0-305.656,211.529Z" transform="translate(-13.392 -60.821)"/><circle class="a" cx="0.617" cy="0.617" r="0.617" transform="translate(-311.989 149.665)"/><path class="a" d="M-283.717,211.767a.852.852,0,0,0,.851-.851.852.852,0,0,0-.851-.852.852.852,0,0,0-.851.852A.851.851,0,0,0-283.717,211.767Z" transform="translate(-19.98 -60.633)"/><circle class="a" cx="1.085" cy="1.085" r="1.085" transform="translate(-297.106 149.197)"/><circle class="a" cx="1.32" cy="1.32" r="1.32" transform="translate(-289.665 148.963)"/><circle class="a" cx="1.49" cy="1.49" r="1.49" transform="translate(-282.159 148.792)"/><path class="a" d="M-239.811,212.207a1.639,1.639,0,0,0,1.639-1.639,1.639,1.639,0,0,0-1.639-1.639,1.639,1.639,0,0,0-1.639,1.639A1.639,1.639,0,0,0-239.811,212.207Z" transform="translate(-33.183 -60.286)"/><path class="a" d="M-228.794,212.266a1.745,1.745,0,0,0,1.746-1.745,1.745,1.745,0,0,0-1.746-1.746,1.745,1.745,0,0,0-1.745,1.746A1.745,1.745,0,0,0-228.794,212.266Z" transform="translate(-36.524 -60.239)"/><path class="a" d="M-217.74,212.278a1.766,1.766,0,0,0,1.766-1.766,1.767,1.767,0,0,0-1.766-1.767,1.767,1.767,0,0,0-1.767,1.767A1.767,1.767,0,0,0-217.74,212.278Z" transform="translate(-39.902 -60.23)"/><circle class="a" cx="1.724" cy="1.724" r="1.724" transform="translate(-251.691 148.558)"/><circle class="a" cx="1.596" cy="1.596" r="1.596" transform="translate(-243.888 148.686)"/><path class="a" d="M-184.4,212.088a1.426,1.426,0,0,0,1.426-1.426,1.426,1.426,0,0,0-1.426-1.426,1.426,1.426,0,0,0-1.426,1.426A1.426,1.426,0,0,0-184.4,212.088Z" transform="translate(-50.216 -60.38)"/><path class="a" d="M-173.251,211.981a1.235,1.235,0,0,0,1.234-1.234,1.235,1.235,0,0,0-1.234-1.235,1.235,1.235,0,0,0-1.235,1.235A1.235,1.235,0,0,0-173.251,211.981Z" transform="translate(-53.689 -60.464)"/><circle class="a" cx="1" cy="1" r="1" transform="translate(-220.265 149.282)"/><circle class="a" cx="0.788" cy="0.788" r="0.788" transform="translate(-212.376 149.495)"/><path class="a" d="M-139.76,211.6a.553.553,0,0,0,.554-.553.553.553,0,0,0-.554-.554.554.554,0,0,0-.554.554A.554.554,0,0,0-139.76,211.6Z" transform="translate(-64.153 -60.765)"/><path class="a" d="M-128.612,211.494a.361.361,0,0,0,.361-.361.362.362,0,0,0-.361-.362.362.362,0,0,0-.362.362A.362.362,0,0,0-128.612,211.494Z" transform="translate(-67.625 -60.85)"/><circle class="a" cx="0.192" cy="0.192" r="0.192" transform="translate(-188.753 150.091)"/><path class="a" d="M-106.353,211.328a.065.065,0,0,0,.064-.064.064.064,0,0,0-.064-.064.064.064,0,0,0-.064.064A.064.064,0,0,0-106.353,211.328Z" transform="translate(-74.533 -60.981)"/><path class="a" d="M-322.083,222.379a.043.043,0,0,0,.043-.042.043.043,0,0,0-.043-.042.042.042,0,0,0-.042.042A.042.042,0,0,0-322.083,222.379Z" transform="translate(-8.479 -64.378)"/><circle class="a" cx="0.128" cy="0.128" r="0.128" transform="translate(-323.013 157.83)"/><circle class="a" cx="0.277" cy="0.277" r="0.277" transform="translate(-315.487 157.681)"/><circle class="a" cx="0.426" cy="0.426" r="0.426" transform="translate(-307.96 157.532)"/><circle class="a" cx="0.617" cy="0.617" r="0.617" transform="translate(-300.476 157.341)"/><circle class="a" cx="0.788" cy="0.788" r="0.788" transform="translate(-292.97 157.17)"/><path class="a" d="M-256.114,222.9a.979.979,0,0,0,.979-.979.979.979,0,0,0-.979-.979.979.979,0,0,0-.98.979A.979.979,0,0,0-256.114,222.9Z" transform="translate(-28.393 -63.965)"/><path class="a" d="M-245.117,222.985a1.128,1.128,0,0,0,1.128-1.128,1.128,1.128,0,0,0-1.128-1.128,1.128,1.128,0,0,0-1.128,1.128A1.128,1.128,0,0,0-245.117,222.985Z" transform="translate(-31.715 -63.899)"/><path class="a" d="M-234.11,223.056a1.255,1.255,0,0,0,1.256-1.256,1.255,1.255,0,0,0-1.256-1.256,1.256,1.256,0,0,0-1.256,1.256A1.256,1.256,0,0,0-234.11,223.056Z" transform="translate(-35.046 -63.843)"/><path class="a" d="M-223.074,223.092a1.32,1.32,0,0,0,1.32-1.32,1.32,1.32,0,0,0-1.32-1.32,1.32,1.32,0,0,0-1.32,1.32A1.319,1.319,0,0,0-223.074,223.092Z" transform="translate(-38.406 -63.815)"/><path class="a" d="M-212.021,223.1a1.341,1.341,0,0,0,1.341-1.341,1.341,1.341,0,0,0-1.341-1.341,1.341,1.341,0,0,0-1.34,1.341A1.341,1.341,0,0,0-212.021,223.1Z" transform="translate(-41.784 -63.805)"/><path class="a" d="M-200.947,223.092a1.32,1.32,0,0,0,1.32-1.32,1.32,1.32,0,0,0-1.32-1.32,1.32,1.32,0,0,0-1.32,1.32A1.319,1.319,0,0,0-200.947,223.092Z" transform="translate(-45.182 -63.815)"/><path class="a" d="M-189.837,223.033a1.213,1.213,0,0,0,1.213-1.213,1.213,1.213,0,0,0-1.213-1.213,1.213,1.213,0,0,0-1.213,1.213A1.213,1.213,0,0,0-189.837,223.033Z" transform="translate(-48.616 -63.862)"/><circle class="a" cx="1.085" cy="1.085" r="1.085" transform="translate(-231.863 156.872)"/><circle class="a" cx="0.915" cy="0.915" r="0.915" transform="translate(-224.017 157.043)"/><circle class="a" cx="0.724" cy="0.724" r="0.724" transform="translate(-216.15 157.234)"/><path class="a" d="M-145.292,222.664a.553.553,0,0,0,.554-.554.554.554,0,0,0-.554-.554.554.554,0,0,0-.553.554A.553.553,0,0,0-145.292,222.664Z" transform="translate(-62.459 -64.153)"/><circle class="a" cx="0.383" cy="0.383" r="0.383" transform="translate(-200.458 157.575)"/><circle class="a" cx="0.213" cy="0.213" r="0.213" transform="translate(-192.612 157.745)"/><circle class="a" cx="0.085" cy="0.085" r="0.085" transform="translate(-184.809 157.873)"/><circle class="a" cx="0.021" cy="0.021" r="0.021" transform="translate(-177.069 157.937)"/><path class="a" d="M-316.551,233.442a.043.043,0,0,0,.043-.042.043.043,0,0,0-.043-.043.043.043,0,0,0-.042.043A.042.042,0,0,0-316.551,233.442Z" transform="translate(-10.173 -67.766)"/><path class="a" d="M-305.534,233.5a.149.149,0,0,0,.148-.148.149.149,0,0,0-.148-.149.149.149,0,0,0-.149.149A.149.149,0,0,0-305.534,233.5Z" transform="translate(-13.514 -67.719)"/><path class="a" d="M-294.518,233.561a.255.255,0,0,0,.255-.255.255.255,0,0,0-.255-.256.256.256,0,0,0-.255.256A.256.256,0,0,0-294.518,233.561Z" transform="translate(-16.855 -67.672)"/><circle class="a" cx="0.404" cy="0.404" r="0.404" transform="translate(-304.101 165.229)"/><path class="a" d="M-272.513,233.716a.532.532,0,0,0,.532-.532.532.532,0,0,0-.532-.532.532.532,0,0,0-.532.532A.533.533,0,0,0-272.513,233.716Z" transform="translate(-23.508 -67.55)"/><circle class="a" cx="0.681" cy="0.681" r="0.681" transform="translate(-289.026 164.952)"/><circle class="a" cx="0.788" cy="0.788" r="0.788" transform="translate(-281.457 164.846)"/><circle class="a" cx="0.894" cy="0.894" r="0.894" transform="translate(-273.888 164.74)"/><path class="a" d="M-228.447,233.954a.958.958,0,0,0,.958-.957.958.958,0,0,0-.958-.958.958.958,0,0,0-.957.958A.958.958,0,0,0-228.447,233.954Z" transform="translate(-36.872 -67.362)"/><path class="a" d="M-217.383,233.954a.958.958,0,0,0,.957-.957.958.958,0,0,0-.957-.958.958.958,0,0,0-.958.958A.958.958,0,0,0-217.383,233.954Z" transform="translate(-40.259 -67.362)"/><path class="a" d="M-206.31,233.941a.936.936,0,0,0,.937-.936.936.936,0,0,0-.937-.937.937.937,0,0,0-.937.937A.937.937,0,0,0-206.31,233.941Z" transform="translate(-43.657 -67.372)"/><circle class="a" cx="0.873" cy="0.873" r="0.873" transform="translate(-243.164 164.761)"/><circle class="a" cx="0.766" cy="0.766" r="0.766" transform="translate(-235.382 164.867)"/><path class="a" d="M-172.988,233.775a.638.638,0,0,0,.638-.638.639.639,0,0,0-.638-.639.639.639,0,0,0-.639.639A.639.639,0,0,0-172.988,233.775Z" transform="translate(-53.952 -67.503)"/><circle class="a" cx="0.49" cy="0.49" r="0.49" transform="translate(-219.754 165.144)"/><path class="a" d="M-150.739,233.621a.361.361,0,0,0,.361-.361.362.362,0,0,0-.361-.362.362.362,0,0,0-.362.362A.362.362,0,0,0-150.739,233.621Z" transform="translate(-60.85 -67.625)"/><circle class="a" cx="0.213" cy="0.213" r="0.213" transform="translate(-204.126 165.421)"/><circle class="a" cx="0.106" cy="0.106" r="0.106" transform="translate(-196.344 165.527)"/><path class="a" d="M-117.4,233.43a.021.021,0,0,0,.021-.021.022.022,0,0,0-.021-.022.021.021,0,0,0-.021.022A.02.02,0,0,0-117.4,233.43Z" transform="translate(-71.164 -67.776)"/><path class="a" d="M-299.956,244.506a.043.043,0,0,0,.043-.042.043.043,0,0,0-.043-.042.042.042,0,0,0-.042.042A.042.042,0,0,0-299.956,244.506Z" transform="translate(-15.255 -71.154)"/><circle class="a" cx="0.128" cy="0.128" r="0.128" transform="translate(-307.662 173.181)"/><circle class="a" cx="0.213" cy="0.213" r="0.213" transform="translate(-300.071 173.096)"/><circle class="a" cx="0.319" cy="0.319" r="0.319" transform="translate(-292.502 172.99)"/><path class="a" d="M-255.87,244.72a.426.426,0,0,0,.425-.426.426.426,0,0,0-.425-.426.426.426,0,0,0-.426.426A.426.426,0,0,0-255.87,244.72Z" transform="translate(-28.637 -70.985)"/><circle class="a" cx="0.511" cy="0.511" r="0.511" transform="translate(-277.342 172.798)"/><path class="a" d="M-233.81,244.8a.574.574,0,0,0,.575-.574.575.575,0,0,0-.575-.574.575.575,0,0,0-.574.574A.574.574,0,0,0-233.81,244.8Z" transform="translate(-35.347 -70.919)"/><path class="a" d="M-222.765,244.827a.618.618,0,0,0,.617-.617.618.618,0,0,0-.617-.617.618.618,0,0,0-.617.617A.618.618,0,0,0-222.765,244.827Z" transform="translate(-38.716 -70.9)"/><path class="a" d="M-211.711,244.839a.639.639,0,0,0,.639-.638.639.639,0,0,0-.639-.638.638.638,0,0,0-.638.638A.638.638,0,0,0-211.711,244.839Z" transform="translate(-42.094 -70.891)"/><path class="a" d="M-200.638,244.827a.618.618,0,0,0,.617-.617.618.618,0,0,0-.617-.617.618.618,0,0,0-.617.617A.618.618,0,0,0-200.638,244.827Z" transform="translate(-45.491 -70.9)"/><path class="a" d="M-189.556,244.8a.574.574,0,0,0,.575-.574.575.575,0,0,0-.575-.574.575.575,0,0,0-.574.574A.574.574,0,0,0-189.556,244.8Z" transform="translate(-48.898 -70.919)"/><circle class="a" cx="0.49" cy="0.49" r="0.49" transform="translate(-231.267 172.82)"/><circle class="a" cx="0.404" cy="0.404" r="0.404" transform="translate(-223.507 172.905)"/><circle class="a" cx="0.298" cy="0.298" r="0.298" transform="translate(-215.724 173.011)"/><circle class="a" cx="0.192" cy="0.192" r="0.192" transform="translate(-207.942 173.118)"/><circle class="a" cx="0.085" cy="0.085" r="0.085" transform="translate(-200.16 173.224)"/><circle class="a" cx="0.021" cy="0.021" r="0.021" transform="translate(-192.421 173.288)"/><path class="a" d="M-294.414,255.557a.021.021,0,0,0,.022-.021.022.022,0,0,0-.022-.022.021.021,0,0,0-.021.022A.02.02,0,0,0-294.414,255.557Z" transform="translate(-16.958 -74.551)"/><circle class="a" cx="0.085" cy="0.085" r="0.085" transform="translate(-303.782 180.9)"/><path class="a" d="M-272.344,255.629a.149.149,0,0,0,.149-.148.149.149,0,0,0-.149-.149.149.149,0,0,0-.149.149A.149.149,0,0,0-272.344,255.629Z" transform="translate(-23.677 -74.495)"/><circle class="a" cx="0.213" cy="0.213" r="0.213" transform="translate(-288.558 180.772)"/><circle class="a" cx="0.277" cy="0.277" r="0.277" transform="translate(-280.946 180.708)"/><circle class="a" cx="0.341" cy="0.341" r="0.341" transform="translate(-273.334 180.644)"/><circle class="a" cx="0.362" cy="0.362" r="0.362" transform="translate(-265.68 180.623)"/><circle class="a" cx="0.362" cy="0.362" r="0.362" transform="translate(-258.004 180.623)"/><circle class="a" cx="0.362" cy="0.362" r="0.362" transform="translate(-250.329 180.623)"/><circle class="a" cx="0.319" cy="0.319" r="0.319" transform="translate(-242.61 180.666)"/><path class="a" d="M-183.883,255.688a.255.255,0,0,0,.255-.255.255.255,0,0,0-.255-.256.256.256,0,0,0-.255.256A.256.256,0,0,0-183.883,255.688Z" transform="translate(-50.733 -74.448)"/><circle class="a" cx="0.192" cy="0.192" r="0.192" transform="translate(-227.131 180.793)"/><circle class="a" cx="0.128" cy="0.128" r="0.128" transform="translate(-219.392 180.857)"/><path class="a" d="M-150.607,255.582a.065.065,0,0,0,.064-.064.064.064,0,0,0-.064-.064.064.064,0,0,0-.064.064A.064.064,0,0,0-150.607,255.582Z" transform="translate(-60.981 -74.533)"/><path class="a" d="M-139.525,255.557a.021.021,0,0,0,.022-.021.022.022,0,0,0-.022-.022.022.022,0,0,0-.021.022A.021.021,0,0,0-139.525,255.557Z" transform="translate(-64.388 -74.551)"/><path class="a" d="M-266.765,266.633a.042.042,0,0,0,.042-.042.042.042,0,0,0-.042-.042.042.042,0,0,0-.042.042A.042.042,0,0,0-266.765,266.633Z" transform="translate(-25.418 -77.93)"/><path class="a" d="M-255.71,266.645a.064.064,0,0,0,.063-.064.064.064,0,0,0-.063-.064.064.064,0,0,0-.065.064A.064.064,0,0,0-255.71,266.645Z" transform="translate(-28.796 -77.92)"/><circle class="a" cx="0.106" cy="0.106" r="0.106" transform="translate(-276.938 188.554)"/><path class="a" d="M-233.622,266.692a.149.149,0,0,0,.149-.149.149.149,0,0,0-.149-.149.149.149,0,0,0-.148.149A.149.149,0,0,0-233.622,266.692Z" transform="translate(-35.535 -77.883)"/><path class="a" d="M-222.567,266.7a.169.169,0,0,0,.17-.17.17.17,0,0,0-.17-.17.17.17,0,0,0-.171.17A.17.17,0,0,0-222.567,266.7Z" transform="translate(-38.913 -77.874)"/><path class="a" d="M-211.5,266.7a.17.17,0,0,0,.171-.17.17.17,0,0,0-.171-.17.17.17,0,0,0-.17.17A.17.17,0,0,0-211.5,266.7Z" transform="translate(-42.301 -77.874)"/><path class="a" d="M-200.431,266.692a.149.149,0,0,0,.149-.149.149.149,0,0,0-.149-.149.149.149,0,0,0-.149.149A.149.149,0,0,0-200.431,266.692Z" transform="translate(-45.698 -77.883)"/><path class="a" d="M-189.358,266.68a.127.127,0,0,0,.128-.128.127.127,0,0,0-.128-.128.128.128,0,0,0-.128.128A.128.128,0,0,0-189.358,266.68Z" transform="translate(-49.095 -77.892)"/><circle class="a" cx="0.085" cy="0.085" r="0.085" transform="translate(-230.863 188.575)"/><path class="a" d="M-167.2,266.645a.064.064,0,0,0,.064-.064.064.064,0,0,0-.064-.064.064.064,0,0,0-.064.064A.064.064,0,0,0-167.2,266.645Z" transform="translate(-55.899 -77.92)"/><circle class="a" cx="0.021" cy="0.021" r="0.021" transform="translate(-215.448 188.639)"/><circle class="a" cx="0.021" cy="0.021" r="0.021" transform="translate(-280.691 196.315)"/><circle class="a" cx="0.021" cy="0.021" r="0.021" transform="translate(-273.015 196.315)"/><circle class="a" cx="0.043" cy="0.043" r="0.043" transform="translate(-265.361 196.294)"/><circle class="a" cx="0.043" cy="0.043" r="0.043" transform="translate(-257.685 196.294)"/><circle class="a" cx="0.021" cy="0.021" r="0.021" transform="translate(-249.988 196.315)"/><circle class="a" cx="0.021" cy="0.021" r="0.021" transform="translate(-242.313 196.315)"/></g></svg>