<svg xmlns="http://www.w3.org/2000/svg" width="22" height="22" viewBox="0 0 22 22"><defs><style>.a{fill:none;}.b{fill:#172e60;}</style></defs><g transform="translate(-68 -472)"><rect class="a" width="22" height="22" transform="translate(68 472)"/><g transform="translate(-3246.841 -1054.643)"><path class="b" d="M3319.514,1578.5v-8.667a.074.074,0,0,0,.009-.017.705.705,0,0,1,.722-.656h9.985a.828.828,0,0,1,.191.018.753.753,0,0,1,.543.786c0,.667,0,1.334,0,2,0,.022,0,.044,0,.069h-.087q-1.886,0-3.773,0a1.421,1.421,0,0,0-.278.02,1.477,1.477,0,0,0-1.138,1.513c0,.381,0,.761,0,1.142a1.877,1.877,0,0,0,.043.39,1.387,1.387,0,0,0,1.329,1.144q1.911,0,3.822,0h.079c0,.017,0,.026,0,.035,0,.708,0,1.417,0,2.125a.743.743,0,0,1-.341.663,1.48,1.48,0,0,1-.309.113h-10.141a.405.405,0,0,0-.042-.01.657.657,0,0,1-.53-.4A2.033,2.033,0,0,1,3319.514,1578.5Z" transform="translate(0.693 -36.526)"/><path class="b" d="M3426.475,1617.613c-.011.043-.019.087-.033.129a.551.551,0,0,1-.423.4.607.607,0,0,1-.118.007c-1.133,0-2.265,0-3.4,0a.569.569,0,0,1-.569-.466.859.859,0,0,1-.02-.175c0-.384,0-.768,0-1.152a.686.686,0,0,1,.147-.444.5.5,0,0,1,.4-.2h3.423a.536.536,0,0,1,.55.4c.016.049.025.1.037.15Zm-3.185-.258a.415.415,0,1,0-.416-.414A.416.416,0,0,0,3423.29,1617.354Z" transform="translate(-94.332 -79.336)"/></g></g></svg>