<svg xmlns="http://www.w3.org/2000/svg" xmlns:xlink="http://www.w3.org/1999/xlink" width="27.292" height="27.292" viewBox="0 0 27.292 27.292"><defs><style>.a{fill:url(#a);}.b{fill:#fff;fill-rule:evenodd;}</style><linearGradient id="a" x1="30.125" y1="-10.002" x2="30.971" y2="-9.156" gradientUnits="objectBoundingBox"><stop offset="0" stop-color="#ff4c3c"/><stop offset="0.957" stop-color="#ee053d"/><stop offset="1" stop-color="#ee023e"/></linearGradient></defs><rect class="a" width="27.292" height="27.292" rx="3.221" transform="translate(27.292 0) rotate(90)"/><path class="b" d="M14.038,173.723a1.317,1.317,0,0,0-.037.127c-.606,2.4-.672,2.925-1.294,4.038a12.46,12.46,0,0,1-1,1.507c-.042.053-.079.125-.163.107s-.1-.1-.108-.176a13,13,0,0,1-.13-2.191c.031-.957.148-1.284,1.369-6.471a.363.363,0,0,0-.029-.216,3.681,3.681,0,0,1-.095-2.422c.553-1.77,2.538-1.9,2.886-.445.214.9-.353,2.084-.787,3.829-.359,1.44,1.321,2.464,2.756,1.414,1.323-.968,1.837-3.292,1.74-4.94-.192-3.284-3.759-3.994-6.021-2.936-2.6,1.211-3.184,4.457-2.013,5.942.148.187.262.3.214.494-.075.3-.143.6-.223.893a.314.314,0,0,1-.463.209,2.668,2.668,0,0,1-1.085-.819,5.224,5.224,0,0,1,.037-5.786,6.855,6.855,0,0,1,6.641-2.959,5.65,5.65,0,0,1,5.173,4.693,7.875,7.875,0,0,1-1.42,5.487c-1.684,2.11-4.416,2.251-5.677.955C14.21,173.957,14.133,173.841,14.038,173.723Z" transform="translate(-1.442 -157.653)"/></svg>