<svg xmlns="http://www.w3.org/2000/svg" xmlns:xlink="http://www.w3.org/1999/xlink" width="27.292" height="27.292" viewBox="0 0 27.292 27.292"><defs><style>.a{fill:url(#a);}.b{fill:#fff;}</style><linearGradient id="a" x1="23.808" y1="-14.999" x2="24.654" y2="-14.153" gradientUnits="objectBoundingBox"><stop offset="0" stop-color="#0cf"/><stop offset="1" stop-color="#0080ff"/></linearGradient></defs><rect class="a" width="27.292" height="27.292" rx="3.211" transform="translate(27.292 0) rotate(90)"/><path class="b" d="M71.817,165.083a6.351,6.351,0,0,1-1.517.426c.244-.04.6-.476.746-.65a2.688,2.688,0,0,0,.5-.9c.013-.026.025-.057,0-.077a.086.086,0,0,0-.081.007,7.884,7.884,0,0,1-1.8.677.119.119,0,0,1-.123-.033,1.308,1.308,0,0,0-.157-.156,3.247,3.247,0,0,0-.871-.527,3.1,3.1,0,0,0-1.335-.212,3.266,3.266,0,0,0-2.292,1.175,3.047,3.047,0,0,0-.609,1.2,3.233,3.233,0,0,0-.034,1.27c.011.07,0,.082-.06.07a9.653,9.653,0,0,1-6.181-3.1c-.072-.079-.11-.079-.17.007a3.049,3.049,0,0,0,.535,3.645c.121.112.244.225.379.329a3.172,3.172,0,0,1-1.192-.329c-.072-.046-.108-.02-.114.062a1.861,1.861,0,0,0,.018.348,3.129,3.129,0,0,0,1.954,2.485,1.781,1.781,0,0,0,.4.119,3.542,3.542,0,0,1-1.169.035c-.085-.015-.119.026-.085.108a3.276,3.276,0,0,0,2.458,2.024c.11.02.222.02.334.044l-.02.02a3.892,3.892,0,0,1-1.678.875,6.059,6.059,0,0,1-2.547.322c-.139-.02-.166-.018-.2,0s0,.055.04.09c.172.112.349.212.529.309a8.441,8.441,0,0,0,1.7.67,9.173,9.173,0,0,0,8.809-2.026,9.012,9.012,0,0,0,2.437-6.637c0-.1.114-.148.184-.2a5.981,5.981,0,0,0,1.2-1.228.365.365,0,0,0,.078-.234v-.013C71.877,165.043,71.877,165.054,71.817,165.083Z" transform="translate(-49.657 -156.627)"/></svg>