<svg xmlns="http://www.w3.org/2000/svg" width="26.764" height="31.282" viewBox="0 0 26.764 31.282"><defs><style>.a{fill:#f8ba8c;}.b{fill:#259caa;}.c{fill:#c4d2da;}.c,.e,.f,.j{mix-blend-mode:multiply;}.c,.e,.f,.h,.j{isolation:isolate;}.d{fill:#d89871;}.e{fill:#e4d7d7;}.f{fill:#efe8e4;}.g{fill:#3d2216;}.h{opacity:0.5;mix-blend-mode:soft-light;}.i{fill:#fff;}.k{fill:#afaaa8;}</style></defs><g transform="translate(40.992 -141.037)"><path class="a" d="M-31.333,155.24a1.349,1.349,0,0,0-1.623-1.087c-.863.189-.866.993-.735,1.655a13.381,13.381,0,0,0,.682,2.2c.249.377.611,1.092,1.218.888.4-.135.637-.849.732-1.365A11.082,11.082,0,0,0-31.333,155.24Z" transform="translate(-1.732 -3.131)"/><path class="a" d="M-16.228,155.205a1.349,1.349,0,0,1,1.623-1.087c.863.189.948,1.017.817,1.677-.008.035-.466,1.689-.682,2.2-.176.419-.659,1.158-1.285.9-.392-.161-.653-.885-.748-1.4A11.134,11.134,0,0,1-16.228,155.205Z" transform="translate(-5.857 -3.122)"/><path class="b" d="M-40.992,178.774h26.764s-.528-6.569-1.406-7.554-7.569-3.185-7.569-3.185l-8.744-.026s-7.04,2.061-7.521,3.211S-40.992,178.774-40.992,178.774Z" transform="translate(0 -6.455)"/><path class="c" d="M-28.452,168.02l-3.5-.011s-7.04,2.061-7.521,3.211-1.524,7.554-1.524,7.554h3.53s1.043-6.4,1.524-7.554C-35.475,170.115-28.959,168.169-28.452,168.02Z" transform="translate(0 -6.455)"/><path class="d" d="M-27.859,166.331s2.2,1.808,3.441,1.808,3.44-1.808,3.44-1.808a2.438,2.438,0,0,1-.29-2.512c.643-1.426-7.17-1.309-6.262,0A2,2,0,0,1-27.859,166.331Z" transform="translate(-3.143 -5.206)"/><path class="e" d="M-25.569,167.813a2.808,2.808,0,0,1,1.024-1.29c.529-.386.843-.04,3.081-1.324a2.4,2.4,0,0,1,.2-1.379c.643-1.426-7.17-1.309-6.262,0a2,2,0,0,1-.329,2.512A13.078,13.078,0,0,0-25.569,167.813Z" transform="translate(-3.143 -5.206)"/><path class="c" d="M-28.592,167.276l-.51.558s1.523,3.763,2.846,4.239c.4.146,1.246-1.718,1.539-1.718.141,0,1.278,1.978,1.451,1.938,1.355-.309,2.909-4.433,2.909-4.433l-.573-.434-3.787,2.383Z" transform="translate(-2.845 -6.279)"/><path class="a" d="M-19.084,147.251c0-2.866-1.776-5.743-6.479-5.743s-6.41,3.148-6.41,6.015c0,.151-.014,7.947.9,9.737a7.221,7.221,0,0,0,5.671,3.625,6.519,6.519,0,0,0,5.692-3.625C-18.68,155.2-19.084,147.251-19.084,147.251Z" transform="translate(-2.159 -0.113)"/><path class="f" d="M-30.112,147.9l.123.088c.129.121-.517,1.561-.329,1.568.931.2,2.049-1.822,2.959-1.539,1.6.5,4.616,4.538,7.573,4.458.777-.749.752-5.221.752-5.221,0-2.866-1.776-5.743-6.479-5.743-3.9,0-5.732,2.161-6.248,4.533A2.939,2.939,0,0,1-30.112,147.9Z" transform="translate(-2.209 -0.113)"/><path class="f" d="M-23.561,159.154a7.221,7.221,0,0,1-5.671-3.625c-.914-1.79-.9-9.586-.9-9.737a6.544,6.544,0,0,1,.679-2.945,5.8,5.8,0,0,0-2.52,5c0,.151-.014,7.947.9,9.737a7.221,7.221,0,0,0,5.671,3.625,6.5,6.5,0,0,0,5.511-3.294A6.16,6.16,0,0,1-23.561,159.154Z" transform="translate(-2.159 -0.433)"/><g transform="translate(-34.131 142.414)"><path class="f" d="M-16.174,162.7c.01-.016.022-.03.032-.047-.053.039-.108.073-.162.11C-16.26,162.742-16.217,162.719-16.174,162.7Z" transform="translate(28.223 -147.586)"/><path class="f" d="M-24.337,160.6a7.221,7.221,0,0,1-5.671-3.625c-.913-1.79-.9-9.586-.9-9.737a6.237,6.237,0,0,1,1.16-3.7,6.011,6.011,0,0,1,.294-.688,5.8,5.8,0,0,0-2.52,5c0,.151-.014,7.947.9,9.737a7.221,7.221,0,0,0,5.671,3.625,6.107,6.107,0,0,0,3.481-1.121A5.924,5.924,0,0,1-24.337,160.6Z" transform="translate(31.972 -142.847)"/></g><path class="g" d="M-18.439,146.455c-.579-3.157-3.156-5.445-7.371-5.418s-6.964,2.6-7.516,5.523a24.846,24.846,0,0,0-.323,5.047c.712-.585,1-.661,1.349-.524.236,2.579.8,2.54.8,2.54s.052-1.751.167-2.908,2.008-1.367,2.955-3.367c3-.131,4.892,3.71,8.18,3.92a3.145,3.145,0,0,0,.395,2.657,11.156,11.156,0,0,1,.342-2.315.794.794,0,0,1,1.262-.367A16.787,16.787,0,0,0-18.439,146.455Z" transform="translate(-1.751)"/><g class="h" transform="translate(-34.776 141.037)"><path class="i" d="M-18.235,146.455c-.579-3.157-3.156-5.445-7.371-5.418-3.689.023-6.267,2.01-7.215,4.471a7.64,7.64,0,0,1,6.774-3.565c4.214-.026,6.792,2.262,7.371,5.419a19.034,19.034,0,0,1,.313,3.719.809.809,0,0,1,.364.161A16.787,16.787,0,0,0-18.235,146.455Z" transform="translate(32.821 -141.037)"/></g><g class="j" transform="translate(-35.426 145.846)"><path class="k" d="M-28.381,147.361c-.947,2-4,3.886-5.268,4.26,0-.065-.005-.141-.008-.21a17.039,17.039,0,0,0,.008,1.709c.712-.585,1-.661,1.349-.524.236,2.579.8,2.54.8,2.54s.052-1.751.167-2.908,2.008-1.367,2.955-3.367c2.986-.13,4.877,3.674,8.139,3.915C-22.648,151.941-25.383,147.231-28.381,147.361Z" transform="translate(33.674 -147.359)"/></g><path class="i" d="M-28.592,166.1l-.51,1.452s1.523,2.869,2.846,3.346c.4.145,1.246-1.719,1.539-1.719.141,0,1.278,1.979,1.451,1.939,1.355-.309,2.909-3.539,2.909-3.539l-.573-1.329-3.787,2.383Z" transform="translate(-2.845 -5.998)"/></g></svg>