<svg xmlns="http://www.w3.org/2000/svg" xmlns:xlink="http://www.w3.org/1999/xlink" width="27" height="30" viewBox="0 0 27 30"><defs><style>.a{fill:url(#a);}.b{fill:url(#b);}.c{fill:url(#c);}.d{fill:url(#d);}.e{fill:#2e2e2e;}.f{fill:#f2f2f2;stroke:#fff;stroke-miterlimit:10;stroke-width:0.183px;}.g{fill:url(#e);}.h{fill:#7b4319;}.i{fill:url(#f);}.j{fill:url(#g);}.k{fill:#f9c947;}.l{fill:url(#i);}</style><linearGradient id="a" x1="0.146" y1="0.146" x2="0.854" y2="0.854" gradientUnits="objectBoundingBox"><stop offset="0" stop-color="#ffd326"/><stop offset="0.191" stop-color="#ffcc1f"/><stop offset="1" stop-color="#ffb208"/></linearGradient><linearGradient id="b" x1="0.019" y1="0.362" x2="0.981" y2="0.638" gradientUnits="objectBoundingBox"><stop offset="0.158" stop-color="#e67f00"/><stop offset="0.294" stop-color="#e8880a"/><stop offset="0.528" stop-color="#eea026"/><stop offset="0.83" stop-color="#f8c853"/><stop offset="1" stop-color="#ffe270"/></linearGradient><linearGradient id="c" x1="0.146" y1="0.146" x2="0.854" y2="0.854" gradientUnits="objectBoundingBox"><stop offset="0" stop-color="#ffd326"/><stop offset="1" stop-color="#ffa900"/></linearGradient><radialGradient id="d" cx="0.277" cy="0.263" r="1.476" gradientTransform="translate(0.074 0.029) scale(0.732 0.874)" gradientUnits="objectBoundingBox"><stop offset="0" stop-color="#ea8f2d"/><stop offset="0.176" stop-color="#e2892a"/><stop offset="0.446" stop-color="#cc7a22"/><stop offset="0.775" stop-color="#a96116"/><stop offset="1" stop-color="#8e4e0d"/></radialGradient><radialGradient id="e" cx="0.5" cy="0.5" r="0.697" gradientTransform="translate(-1.874 0.125) scale(0.648 0.815)" gradientUnits="objectBoundingBox"><stop offset="0" stop-color="#d6762d"/><stop offset="0.142" stop-color="#ce712b"/><stop offset="0.36" stop-color="#b86425"/><stop offset="0.626" stop-color="#95501c"/><stop offset="0.929" stop-color="#653410"/><stop offset="1" stop-color="#592d0d"/></radialGradient><radialGradient id="f" cx="0.5" cy="0.5" r="0.572" gradientTransform="translate(0.063 0.068) scale(0.874 0.874)" gradientUnits="objectBoundingBox"><stop offset="0" stop-color="#db9d21"/><stop offset="0.019" stop-color="#db9d23"/><stop offset="0.031" stop-color="#dba02c"/><stop offset="0.032" stop-color="#dba12d"/><stop offset="0.489" stop-color="#d99f2b"/><stop offset="0.653" stop-color="#d29928"/><stop offset="0.77" stop-color="#c68f21"/><stop offset="0.865" stop-color="#b58117"/><stop offset="0.945" stop-color="#9f6e0b"/><stop offset="1" stop-color="#8c5e00"/></radialGradient><radialGradient id="g" cx="0.5" cy="0.5" r="0.572" gradientTransform="translate(0.063 0.068) scale(0.874 0.874)" gradientUnits="objectBoundingBox"><stop offset="0" stop-color="#996601"/><stop offset="0.032" stop-color="#996702"/><stop offset="0.489" stop-color="#976501"/><stop offset="0.653" stop-color="#906101"/><stop offset="0.77" stop-color="#845901"/><stop offset="0.865" stop-color="#734d01"/><stop offset="0.945" stop-color="#5d3f00"/><stop offset="1" stop-color="#4a3200"/></radialGradient><linearGradient id="i" x1="0.019" y1="0.362" x2="0.981" y2="0.638" xlink:href="#b"/></defs><g transform="translate(53.434 -73.544)"><g transform="translate(-49.637 80.317)"><circle class="a" cx="5.166" cy="5.166" r="5.166" transform="translate(0 2.066) rotate(-11.535)"/><path class="b" d="M-38.359,86.587a4.318,4.318,0,0,1-1.628,5.88,4.318,4.318,0,0,1-5.879-1.628,4.318,4.318,0,0,1,1.628-5.88,4.318,4.318,0,0,1,5.879,1.628Zm.6-.342a5.008,5.008,0,0,0-6.824-1.89,5.007,5.007,0,0,0-1.89,6.824,5.007,5.007,0,0,0,6.824,1.89,5.007,5.007,0,0,0,1.89-6.825Z" transform="translate(48.208 -82.618)"/><path class="c" d="M-38.287,86.473a4.456,4.456,0,0,1-1.679,6.066,4.457,4.457,0,0,1-6.067-1.68,4.456,4.456,0,0,1,1.68-6.066,4.456,4.456,0,0,1,6.066,1.68Zm.623-.353A5.167,5.167,0,0,0-44.7,84.17a5.166,5.166,0,0,0-1.95,7.041,5.167,5.167,0,0,0,7.041,1.95,5.166,5.166,0,0,0,1.95-7.041Z" transform="translate(48.254 -82.571)"/></g><rect class="d" width="27.001" height="19.772" rx="2.591" transform="translate(-53.434 83.772)"/><path class="e" d="M-28.167,105.737h-.157a.084.084,0,0,1-.089-.078.084.084,0,0,1,.089-.078h.157a.653.653,0,0,0,.539-.275.1.1,0,0,1,.122-.027.073.073,0,0,1,.032.107A.84.84,0,0,1-28.167,105.737Zm-1.059,0h-.9a.085.085,0,0,1-.089-.078.084.084,0,0,1,.089-.078h.9a.084.084,0,0,1,.09.078A.085.085,0,0,1-29.226,105.737Zm-1.8,0h-.9a.085.085,0,0,1-.09-.078.084.084,0,0,1,.09-.078h.9a.084.084,0,0,1,.09.078A.085.085,0,0,1-31.03,105.737Zm-1.8,0h-.9a.085.085,0,0,1-.09-.078.084.084,0,0,1,.09-.078h.9a.084.084,0,0,1,.089.078A.085.085,0,0,1-32.833,105.737Zm-1.8,0h-.9a.085.085,0,0,1-.09-.078.084.084,0,0,1,.09-.078h.9a.084.084,0,0,1,.089.078A.084.084,0,0,1-34.637,105.737Zm-1.8,0h-.9a.085.085,0,0,1-.09-.078.084.084,0,0,1,.09-.078h.9a.084.084,0,0,1,.089.078A.084.084,0,0,1-36.441,105.737Zm-1.8,0h-.9a.085.085,0,0,1-.09-.078.084.084,0,0,1,.09-.078h.9a.084.084,0,0,1,.089.078A.084.084,0,0,1-38.245,105.737Zm-1.8,0h-.9a.084.084,0,0,1-.089-.078.084.084,0,0,1,.089-.078h.9a.084.084,0,0,1,.09.078A.085.085,0,0,1-40.049,105.737Zm-1.8,0h-.9a.084.084,0,0,1-.089-.078.084.084,0,0,1,.089-.078h.9a.084.084,0,0,1,.09.078A.085.085,0,0,1-41.852,105.737Zm-1.8,0h-.9a.085.085,0,0,1-.089-.078.084.084,0,0,1,.089-.078h.9a.084.084,0,0,1,.09.078A.085.085,0,0,1-43.656,105.737Zm-1.8,0h-.9a.085.085,0,0,1-.09-.078.084.084,0,0,1,.09-.078h.9a.084.084,0,0,1,.09.078A.085.085,0,0,1-45.46,105.737Zm-1.8,0h-.9a.085.085,0,0,1-.09-.078.084.084,0,0,1,.09-.078h.9a.084.084,0,0,1,.089.078A.085.085,0,0,1-47.263,105.737Zm-1.8,0h-.9a.085.085,0,0,1-.09-.078.084.084,0,0,1,.09-.078h.9a.084.084,0,0,1,.089.078A.084.084,0,0,1-49.067,105.737Zm-1.8,0h-.009a.812.812,0,0,1-.765-.491.076.076,0,0,1,.057-.1.092.092,0,0,1,.112.05.634.634,0,0,0,.6.384.088.088,0,0,1,.094.078A.081.081,0,0,1-50.871,105.737Zm23.418-1.085a.084.084,0,0,1-.089-.078v-.787a.084.084,0,0,1,.089-.078.084.084,0,0,1,.09.078v.787A.084.084,0,0,1-27.453,104.652Zm-24.141-.137a.084.084,0,0,1-.089-.078v-.788a.084.084,0,0,1,.089-.078.085.085,0,0,1,.09.078v.788A.084.084,0,0,1-51.594,104.515Zm24.141-1.439a.084.084,0,0,1-.089-.078v-.788a.085.085,0,0,1,.089-.078.085.085,0,0,1,.09.078V103A.084.084,0,0,1-27.453,103.077Zm-24.141-.137a.084.084,0,0,1-.089-.078v-.788a.084.084,0,0,1,.089-.078.084.084,0,0,1,.09.078v.788A.084.084,0,0,1-51.594,102.94Zm24.141-1.439a.084.084,0,0,1-.089-.078v-.788a.084.084,0,0,1,.089-.078.084.084,0,0,1,.09.078v.788A.084.084,0,0,1-27.453,101.5Zm-24.141-.138a.084.084,0,0,1-.089-.078V100.5a.084.084,0,0,1,.089-.078.084.084,0,0,1,.09.078v.787A.084.084,0,0,1-51.594,101.363Zm24.141-1.439a.084.084,0,0,1-.089-.078v-.787a.084.084,0,0,1,.089-.078.084.084,0,0,1,.09.078v.787A.084.084,0,0,1-27.453,99.924Zm-24.141-.137a.084.084,0,0,1-.089-.078v-.787a.084.084,0,0,1,.089-.078.084.084,0,0,1,.09.078v.787A.084.084,0,0,1-51.594,99.788Zm24.141-1.439a.084.084,0,0,1-.089-.078v-.787a.084.084,0,0,1,.089-.078.084.084,0,0,1,.09.078v.787A.084.084,0,0,1-27.453,98.349Zm-24.141-.137a.084.084,0,0,1-.089-.078v-.788a.084.084,0,0,1,.089-.078.084.084,0,0,1,.09.078v.788A.084.084,0,0,1-51.594,98.212Zm24.141-1.439a.084.084,0,0,1-.089-.078v-.788a.085.085,0,0,1,.089-.078.085.085,0,0,1,.09.078V96.7A.084.084,0,0,1-27.453,96.773Zm-24.141-.137a.084.084,0,0,1-.089-.078V95.77a.084.084,0,0,1,.089-.078.084.084,0,0,1,.09.078v.788A.085.085,0,0,1-51.594,96.636ZM-27.453,95.2a.085.085,0,0,1-.089-.078v-.788a.084.084,0,0,1,.089-.078.084.084,0,0,1,.09.078v.788A.085.085,0,0,1-27.453,95.2Zm-24.141-.138a.084.084,0,0,1-.089-.078v-.787a.084.084,0,0,1,.089-.078.084.084,0,0,1,.09.078v.787A.084.084,0,0,1-51.594,95.06Zm24.141-1.439a.084.084,0,0,1-.089-.078v-.787a.084.084,0,0,1,.089-.078.084.084,0,0,1,.09.078v.787A.084.084,0,0,1-27.453,93.621Zm-24.141-.137a.084.084,0,0,1-.089-.078v-.788a.084.084,0,0,1,.089-.078.085.085,0,0,1,.09.078v.788A.084.084,0,0,1-51.594,93.484Zm24.141-1.439a.084.084,0,0,1-.089-.078v-.788a.084.084,0,0,1,.089-.077.084.084,0,0,1,.09.077v.788A.084.084,0,0,1-27.453,92.045Zm-24.141-.137a.084.084,0,0,1-.089-.078v-.788a.084.084,0,0,1,.089-.078.084.084,0,0,1,.09.078v.788A.084.084,0,0,1-51.594,91.909Zm24.141-1.439a.084.084,0,0,1-.089-.078V89.6a.084.084,0,0,1,.089-.078.084.084,0,0,1,.09.078v.788A.084.084,0,0,1-27.453,90.47Zm-24.141-.138a.084.084,0,0,1-.089-.078v-.787a.084.084,0,0,1,.089-.078.084.084,0,0,1,.09.078v.787A.084.084,0,0,1-51.594,90.332ZM-27.488,88.9a.089.089,0,0,1-.084-.053.636.636,0,0,0-.595-.381.086.086,0,0,1-.091-.078.082.082,0,0,1,.087-.078h0a.816.816,0,0,1,.764.487.077.077,0,0,1-.056.1A.116.116,0,0,1-27.488,88.9Zm-24-.125a.11.11,0,0,1-.046-.011.073.073,0,0,1-.03-.108.841.841,0,0,1,.69-.347h.162a.084.084,0,0,1,.089.078.084.084,0,0,1-.089.078h-.162a.657.657,0,0,0-.537.271A.092.092,0,0,1-51.493,88.773Zm22.42-.309h-.9a.084.084,0,0,1-.089-.078.084.084,0,0,1,.089-.078h.9a.084.084,0,0,1,.09.078A.084.084,0,0,1-29.073,88.463Zm-1.8,0h-.9a.084.084,0,0,1-.089-.078.084.084,0,0,1,.089-.078h.9a.084.084,0,0,1,.09.078A.084.084,0,0,1-30.877,88.463Zm-1.8,0h-.9a.084.084,0,0,1-.089-.078.084.084,0,0,1,.089-.078h.9a.084.084,0,0,1,.09.078A.084.084,0,0,1-32.681,88.463Zm-1.8,0h-.9a.084.084,0,0,1-.09-.078.084.084,0,0,1,.09-.078h.9a.084.084,0,0,1,.09.078A.084.084,0,0,1-34.485,88.463Zm-1.8,0h-.9a.084.084,0,0,1-.09-.078.084.084,0,0,1,.09-.078h.9a.084.084,0,0,1,.089.078A.084.084,0,0,1-36.288,88.463Zm-1.8,0h-.9a.084.084,0,0,1-.09-.078.084.084,0,0,1,.09-.078h.9a.084.084,0,0,1,.089.078A.084.084,0,0,1-38.092,88.463Zm-1.8,0h-.9a.084.084,0,0,1-.09-.078.084.084,0,0,1,.09-.078h.9a.084.084,0,0,1,.089.078A.084.084,0,0,1-39.9,88.463Zm-1.8,0h-.9a.084.084,0,0,1-.089-.078.084.084,0,0,1,.089-.078h.9a.084.084,0,0,1,.09.078A.084.084,0,0,1-41.7,88.463Zm-1.8,0h-.9a.084.084,0,0,1-.089-.078.084.084,0,0,1,.089-.078h.9a.084.084,0,0,1,.09.078A.084.084,0,0,1-43.5,88.463Zm-1.8,0h-.9a.084.084,0,0,1-.089-.078.084.084,0,0,1,.089-.078h.9a.084.084,0,0,1,.09.078A.084.084,0,0,1-45.307,88.463Zm-1.8,0h-.9a.084.084,0,0,1-.089-.078.084.084,0,0,1,.089-.078h.9a.084.084,0,0,1,.09.078A.084.084,0,0,1-47.111,88.463Zm-1.8,0h-.9a.084.084,0,0,1-.089-.078.084.084,0,0,1,.089-.078h.9a.084.084,0,0,1,.09.078A.084.084,0,0,1-48.915,88.463Z" transform="translate(-0.397 -3.344)"/><path class="f" d="M-28.185,105.711h-.157a.084.084,0,0,1-.089-.078.084.084,0,0,1,.089-.078h.157a.653.653,0,0,0,.539-.274.1.1,0,0,1,.122-.028.074.074,0,0,1,.032.108A.842.842,0,0,1-28.185,105.711Zm-1.059,0h-.9a.084.084,0,0,1-.089-.078.085.085,0,0,1,.089-.078h.9a.085.085,0,0,1,.09.078A.084.084,0,0,1-29.244,105.711Zm-1.8,0h-.9a.084.084,0,0,1-.09-.078.085.085,0,0,1,.09-.078h.9a.085.085,0,0,1,.089.078A.084.084,0,0,1-31.047,105.711Zm-1.8,0h-.9a.084.084,0,0,1-.09-.078.085.085,0,0,1,.09-.078h.9a.085.085,0,0,1,.089.078A.084.084,0,0,1-32.851,105.711Zm-1.8,0h-.9a.084.084,0,0,1-.09-.078.085.085,0,0,1,.09-.078h.9a.084.084,0,0,1,.089.078A.084.084,0,0,1-34.655,105.711Zm-1.8,0h-.9a.084.084,0,0,1-.09-.078.085.085,0,0,1,.09-.078h.9a.084.084,0,0,1,.089.078A.084.084,0,0,1-36.459,105.711Zm-1.8,0h-.9a.084.084,0,0,1-.09-.078.085.085,0,0,1,.09-.078h.9a.084.084,0,0,1,.089.078A.084.084,0,0,1-38.263,105.711Zm-1.8,0h-.9a.084.084,0,0,1-.089-.078.084.084,0,0,1,.089-.078h.9a.085.085,0,0,1,.09.078A.084.084,0,0,1-40.067,105.711Zm-1.8,0h-.9a.084.084,0,0,1-.089-.078.084.084,0,0,1,.089-.078h.9a.085.085,0,0,1,.09.078A.084.084,0,0,1-41.87,105.711Zm-1.8,0h-.9a.084.084,0,0,1-.089-.078.085.085,0,0,1,.089-.078h.9a.085.085,0,0,1,.09.078A.084.084,0,0,1-43.674,105.711Zm-1.8,0h-.9a.084.084,0,0,1-.09-.078.085.085,0,0,1,.09-.078h.9a.085.085,0,0,1,.09.078A.084.084,0,0,1-45.478,105.711Zm-1.8,0h-.9a.084.084,0,0,1-.09-.078.085.085,0,0,1,.09-.078h.9a.085.085,0,0,1,.089.078A.084.084,0,0,1-47.281,105.711Zm-1.8,0h-.9a.084.084,0,0,1-.09-.078.085.085,0,0,1,.09-.078h.9a.084.084,0,0,1,.089.078A.084.084,0,0,1-49.085,105.711Zm-1.8,0H-50.9a.813.813,0,0,1-.765-.49.077.077,0,0,1,.057-.1.092.092,0,0,1,.112.05.633.633,0,0,0,.6.383.089.089,0,0,1,.094.078A.08.08,0,0,1-50.889,105.711Zm23.418-1.084a.084.084,0,0,1-.089-.078v-.788a.085.085,0,0,1,.089-.078.085.085,0,0,1,.09.078v.788A.084.084,0,0,1-27.471,104.626Zm-24.141-.138a.084.084,0,0,1-.089-.077v-.788a.084.084,0,0,1,.089-.078.084.084,0,0,1,.09.078v.788A.084.084,0,0,1-51.612,104.489Zm24.141-1.438a.084.084,0,0,1-.089-.078v-.788a.084.084,0,0,1,.089-.078.084.084,0,0,1,.09.078v.788A.084.084,0,0,1-27.471,103.051Zm-24.141-.138a.084.084,0,0,1-.089-.078v-.787a.084.084,0,0,1,.089-.078.084.084,0,0,1,.09.078v.787A.084.084,0,0,1-51.612,102.913Zm24.141-1.439a.084.084,0,0,1-.089-.078v-.787a.084.084,0,0,1,.089-.078.084.084,0,0,1,.09.078v.787A.084.084,0,0,1-27.471,101.474Zm-24.141-.137a.084.084,0,0,1-.089-.078v-.788a.084.084,0,0,1,.089-.078.085.085,0,0,1,.09.078v.788A.084.084,0,0,1-51.612,101.337ZM-27.471,99.9a.084.084,0,0,1-.089-.078v-.787a.084.084,0,0,1,.089-.078.084.084,0,0,1,.09.078v.787A.084.084,0,0,1-27.471,99.9Zm-24.141-.137a.084.084,0,0,1-.089-.078V98.9a.084.084,0,0,1,.089-.078.084.084,0,0,1,.09.078v.788A.084.084,0,0,1-51.612,99.762Zm24.141-1.439a.084.084,0,0,1-.089-.078v-.788a.084.084,0,0,1,.089-.078.084.084,0,0,1,.09.078v.788A.084.084,0,0,1-27.471,98.323Zm-24.141-.138a.084.084,0,0,1-.089-.078V97.32a.084.084,0,0,1,.089-.078.084.084,0,0,1,.09.078v.787A.084.084,0,0,1-51.612,98.185Zm24.141-1.438a.085.085,0,0,1-.089-.078v-.788a.084.084,0,0,1,.089-.078.084.084,0,0,1,.09.078v.788A.085.085,0,0,1-27.471,96.747Zm-24.141-.138a.084.084,0,0,1-.089-.078v-.787a.084.084,0,0,1,.089-.078.084.084,0,0,1,.09.078v.787A.084.084,0,0,1-51.612,96.609Zm24.141-1.439a.084.084,0,0,1-.089-.078v-.787a.084.084,0,0,1,.089-.078.084.084,0,0,1,.09.078v.787A.084.084,0,0,1-27.471,95.171Zm-24.141-.137a.084.084,0,0,1-.089-.078v-.788a.084.084,0,0,1,.089-.078.084.084,0,0,1,.09.078v.788A.084.084,0,0,1-51.612,95.034ZM-27.471,93.6a.084.084,0,0,1-.089-.078v-.788a.085.085,0,0,1,.089-.078.085.085,0,0,1,.09.078v.788A.084.084,0,0,1-27.471,93.6Zm-24.141-.138a.084.084,0,0,1-.089-.077v-.788a.084.084,0,0,1,.089-.078.084.084,0,0,1,.09.078v.788A.084.084,0,0,1-51.612,93.457Zm24.141-1.438a.085.085,0,0,1-.089-.078v-.788a.084.084,0,0,1,.089-.078.084.084,0,0,1,.09.078v.788A.085.085,0,0,1-27.471,92.019Zm-24.141-.138A.084.084,0,0,1-51.7,91.8v-.787a.084.084,0,0,1,.089-.078.084.084,0,0,1,.09.078V91.8A.084.084,0,0,1-51.612,91.882Zm24.141-1.439a.084.084,0,0,1-.089-.078v-.787a.084.084,0,0,1,.089-.078.084.084,0,0,1,.09.078v.787A.084.084,0,0,1-27.471,90.443Zm-24.141-.137a.084.084,0,0,1-.089-.078V89.44a.084.084,0,0,1,.089-.078.085.085,0,0,1,.09.078v.788A.084.084,0,0,1-51.612,90.306Zm24.106-1.436a.088.088,0,0,1-.084-.053.636.636,0,0,0-.595-.38.086.086,0,0,1-.091-.078.082.082,0,0,1,.087-.078h0a.816.816,0,0,1,.764.487.076.076,0,0,1-.056.1A.088.088,0,0,1-27.506,88.87Zm-24-.124a.1.1,0,0,1-.046-.012.072.072,0,0,1-.03-.107.841.841,0,0,1,.69-.347h.162a.084.084,0,0,1,.089.078.085.085,0,0,1-.089.078H-50.9a.714.714,0,0,0-.537.272A.1.1,0,0,1-51.511,88.747Zm22.42-.309h-.9a.084.084,0,0,1-.089-.078.084.084,0,0,1,.089-.078h.9a.084.084,0,0,1,.09.078A.085.085,0,0,1-29.091,88.437Zm-1.8,0h-.9a.084.084,0,0,1-.089-.078.084.084,0,0,1,.089-.078h.9a.084.084,0,0,1,.09.078A.085.085,0,0,1-30.895,88.437Zm-1.8,0h-.9a.085.085,0,0,1-.089-.078.084.084,0,0,1,.089-.078h.9a.084.084,0,0,1,.09.078A.085.085,0,0,1-32.7,88.437Zm-1.8,0h-.9a.085.085,0,0,1-.09-.078.084.084,0,0,1,.09-.078h.9a.084.084,0,0,1,.09.078A.085.085,0,0,1-34.5,88.437Zm-1.8,0h-.9a.085.085,0,0,1-.09-.078.084.084,0,0,1,.09-.078h.9a.084.084,0,0,1,.089.078A.085.085,0,0,1-36.306,88.437Zm-1.8,0h-.9a.085.085,0,0,1-.09-.078.084.084,0,0,1,.09-.078h.9a.084.084,0,0,1,.089.078A.084.084,0,0,1-38.11,88.437Zm-1.8,0h-.9a.085.085,0,0,1-.09-.078.084.084,0,0,1,.09-.078h.9a.084.084,0,0,1,.089.078A.084.084,0,0,1-39.913,88.437Zm-1.8,0h-.9a.084.084,0,0,1-.089-.078.084.084,0,0,1,.089-.078h.9a.084.084,0,0,1,.09.078A.085.085,0,0,1-41.717,88.437Zm-1.8,0h-.9a.084.084,0,0,1-.089-.078.084.084,0,0,1,.089-.078h.9a.084.084,0,0,1,.09.078A.085.085,0,0,1-43.521,88.437Zm-1.8,0h-.9a.084.084,0,0,1-.089-.078.084.084,0,0,1,.089-.078h.9a.084.084,0,0,1,.09.078A.085.085,0,0,1-45.325,88.437Zm-1.8,0h-.9a.085.085,0,0,1-.089-.078.084.084,0,0,1,.089-.078h.9a.084.084,0,0,1,.09.078A.085.085,0,0,1-47.129,88.437Zm-1.8,0h-.9a.085.085,0,0,1-.089-.078.084.084,0,0,1,.089-.078h.9a.084.084,0,0,1,.09.078A.085.085,0,0,1-48.933,88.437Z" transform="translate(-0.392 -3.338)"/><path class="g" d="M2.765,0H8.54a0,0,0,0,1,0,0V5.53a0,0,0,0,1,0,0H2.765A2.765,2.765,0,0,1,0,2.765v0A2.765,2.765,0,0,1,2.765,0Z" transform="translate(-34.973 90.729)"/><path class="h" d="M-21.02,101.258h-5.4a2.934,2.934,0,0,1-3.11-2.717h0a2.934,2.934,0,0,1,3.11-2.717h5.4Z" transform="translate(-5.413 -5.046)"/><g transform="translate(-27.848 95.365)"><path class="e" d="M-19.816,101.91h-.451a.084.084,0,0,1-.089-.078.084.084,0,0,1,.089-.078h.451a.084.084,0,0,1,.09.078A.084.084,0,0,1-19.816,101.91Z" transform="translate(20.356 -101.754)"/></g><g transform="translate(-34.079 91.492)"><path class="e" d="M-22.978,100.776h-.887a.084.084,0,0,1-.089-.078.084.084,0,0,1,.089-.078h.887a.084.084,0,0,1,.089.078A.084.084,0,0,1-22.978,100.776Zm-1.774,0h-.887a.084.084,0,0,1-.089-.078.084.084,0,0,1,.089-.078h.887a.084.084,0,0,1,.089.078A.084.084,0,0,1-24.752,100.776Zm-1.772-.028h-.015a2.486,2.486,0,0,1-.855-.29.072.072,0,0,1-.026-.108.1.1,0,0,1,.123-.024,2.293,2.293,0,0,0,.788.268.079.079,0,0,1,.073.09A.086.086,0,0,1-26.524,100.748Zm-1.453-.814a.1.1,0,0,1-.074-.034,1.866,1.866,0,0,1-.358-.736.078.078,0,0,1,.07-.092.089.089,0,0,1,.105.06,1.725,1.725,0,0,0,.331.68.072.072,0,0,1-.023.108A.1.1,0,0,1-27.977,99.935Zm-.346-1.477-.018,0a.08.08,0,0,1-.07-.092,1.868,1.868,0,0,1,.357-.737.1.1,0,0,1,.124-.021.073.073,0,0,1,.023.109,1.73,1.73,0,0,0-.329.68A.088.088,0,0,1-28.322,98.457Zm.974-1.246a.092.092,0,0,1-.075-.036.072.072,0,0,1,.026-.108,2.469,2.469,0,0,1,.854-.292.088.088,0,0,1,.1.063.08.08,0,0,1-.073.091,2.3,2.3,0,0,0-.787.268A.1.1,0,0,1-27.348,97.211Zm4.366-.308h-.887a.084.084,0,0,1-.089-.078.084.084,0,0,1,.089-.078h.887a.084.084,0,0,1,.089.078A.085.085,0,0,1-22.983,96.9Zm-1.774,0h-.887a.084.084,0,0,1-.089-.078.084.084,0,0,1,.089-.078h.887a.084.084,0,0,1,.089.078A.084.084,0,0,1-24.756,96.9Z" transform="translate(28.412 -96.747)"/></g><g transform="translate(-27.848 91.492)"><path class="e" d="M-19.816,96.9h-.451a.084.084,0,0,1-.089-.078.084.084,0,0,1,.089-.078h.451a.084.084,0,0,1,.09.078A.085.085,0,0,1-19.816,96.9Z" transform="translate(20.356 -96.747)"/></g><g transform="translate(-27.867 95.353)"><path class="f" d="M-19.841,101.894h-.451a.084.084,0,0,1-.089-.078.084.084,0,0,1,.089-.077h.451a.084.084,0,0,1,.09.077A.084.084,0,0,1-19.841,101.894Z" transform="translate(20.381 -101.739)"/></g><g transform="translate(-34.098 91.48)"><path class="f" d="M-23,100.76h-.886a.084.084,0,0,1-.09-.078.084.084,0,0,1,.09-.077H-23a.084.084,0,0,1,.089.077A.084.084,0,0,1-23,100.76Zm-1.774,0h-.886a.084.084,0,0,1-.09-.078.084.084,0,0,1,.09-.077h.886a.084.084,0,0,1,.09.077A.084.084,0,0,1-24.777,100.76Zm-1.771-.027-.015,0a2.482,2.482,0,0,1-.854-.29.072.072,0,0,1-.027-.108.1.1,0,0,1,.124-.023,2.282,2.282,0,0,0,.787.267.08.08,0,0,1,.073.09A.086.086,0,0,1-26.548,100.733ZM-28,99.919a.094.094,0,0,1-.074-.034,1.882,1.882,0,0,1-.358-.736.079.079,0,0,1,.07-.092.088.088,0,0,1,.105.061,1.737,1.737,0,0,0,.331.679.072.072,0,0,1-.023.108A.1.1,0,0,1-28,99.919Zm-.346-1.477-.018,0a.079.079,0,0,1-.07-.092,1.871,1.871,0,0,1,.357-.737.1.1,0,0,1,.125-.021.073.073,0,0,1,.023.109,1.721,1.721,0,0,0-.33.68A.087.087,0,0,1-28.347,98.441Zm.974-1.245a.1.1,0,0,1-.075-.036.073.073,0,0,1,.027-.108,2.475,2.475,0,0,1,.853-.292.089.089,0,0,1,.1.063.08.08,0,0,1-.073.09,2.3,2.3,0,0,0-.787.268A.1.1,0,0,1-27.373,97.2Zm4.366-.309h-.887a.084.084,0,0,1-.089-.078.084.084,0,0,1,.089-.078h.887a.084.084,0,0,1,.089.078A.084.084,0,0,1-23.008,96.887Zm-1.774,0h-.886a.084.084,0,0,1-.09-.078.084.084,0,0,1,.09-.078h.886a.084.084,0,0,1,.089.078A.084.084,0,0,1-24.781,96.887Z" transform="translate(28.436 -96.731)"/></g><g transform="translate(-27.867 91.48)"><path class="f" d="M-19.841,96.887h-.451a.084.084,0,0,1-.089-.078.084.084,0,0,1,.089-.078h.451a.084.084,0,0,1,.09.078A.084.084,0,0,1-19.841,96.887Z" transform="translate(20.381 -96.731)"/></g><path class="i" d="M-26.2,99.073a.971.971,0,0,1,1.03-.9.971.971,0,0,1,1.029.9.971.971,0,0,1-1.029.9A.971.971,0,0,1-26.2,99.073Z" transform="translate(-6.169 -5.578)"/><ellipse class="j" cx="1.029" cy="0.899" rx="1.029" ry="0.899" transform="translate(-32.347 92.607)"/><path class="k" d="M-26.2,99.073a.971.971,0,0,1,1.03-.9.971.971,0,0,1,1.029.9.971.971,0,0,1-1.029.9A.971.971,0,0,1-26.2,99.073Z" transform="translate(-6.169 -5.578)"/><g transform="translate(-37.303 80.965)"><circle class="a" cx="3.829" cy="3.829" r="3.829" transform="translate(0.001 0.001)"/><path class="l" d="M-25.934,85.426a3.2,3.2,0,0,1-1.207,4.358A3.2,3.2,0,0,1-31.5,88.577a3.2,3.2,0,0,1,1.207-4.357,3.2,3.2,0,0,1,4.358,1.207Zm.447-.253a3.711,3.711,0,0,0-5.058-1.4,3.711,3.711,0,0,0-1.4,5.058,3.712,3.712,0,0,0,5.058,1.4,3.712,3.712,0,0,0,1.4-5.058Z" transform="translate(32.546 -83.172)"/><path class="c" d="M-25.88,85.342a3.3,3.3,0,0,1-1.245,4.5,3.3,3.3,0,0,1-4.5-1.245,3.3,3.3,0,0,1,1.245-4.5,3.3,3.3,0,0,1,4.5,1.245Zm.461-.261a3.829,3.829,0,0,0-5.218-1.446,3.83,3.83,0,0,0-1.446,5.219A3.829,3.829,0,0,0-26.864,90.3a3.828,3.828,0,0,0,1.445-5.218Z" transform="translate(32.58 -83.138)"/></g><g transform="translate(-44.112 73.544)"><circle class="a" cx="3.269" cy="3.269" r="3.269" transform="translate(0 5.148) rotate(-51.94)"/><path class="l" d="M-34,77.2a2.734,2.734,0,0,1-1.03,3.721,2.734,2.734,0,0,1-3.721-1.031,2.733,2.733,0,0,1,1.031-3.721A2.733,2.733,0,0,1-34,77.2Zm.381-.216a3.168,3.168,0,0,0-4.319-1.2,3.168,3.168,0,0,0-1.2,4.319,3.168,3.168,0,0,0,4.319,1.2,3.168,3.168,0,0,0,1.2-4.319Z" transform="translate(40.967 -73.96)"/><path class="c" d="M-33.956,77.132a2.82,2.82,0,0,1-1.063,3.839,2.82,2.82,0,0,1-3.839-1.063,2.82,2.82,0,0,1,1.063-3.839,2.819,2.819,0,0,1,3.839,1.063Zm.394-.223a3.269,3.269,0,0,0-4.455-1.235,3.27,3.27,0,0,0-1.234,4.456A3.269,3.269,0,0,0-34.8,81.365a3.268,3.268,0,0,0,1.234-4.455Z" transform="translate(40.997 -73.93)"/></g></g></svg>